<svg width="24" height="24" viewBox="0 0 24 24" fill="none" xmlns="http://www.w3.org/2000/svg">
<path fill-rule="evenodd" clip-rule="evenodd" d="M15.7657 17.5112C15.8242 18.7543 15.8814 19.971 15.8814 21.0156L12.8305 21.0156C12.8305 20.0459 12.7788 18.9461 12.722 17.7407C12.6968 17.204 12.6705 16.6464 12.6474 16.07C12.5743 14.245 12.5363 12.2817 12.7013 10.4771C12.8635 8.70356 13.2354 6.89601 14.1115 5.4954C15.0567 3.98422 16.5544 3.01562 18.6271 3.01562C19.5692 3.01562 20.4542 3.19605 21.2007 3.66262C21.9719 4.14473 22.4532 4.8436 22.7191 5.6129C23.206 7.02129 23.0031 8.77865 22.7027 10.3821C22.5123 11.3983 22.2381 12.5475 21.9635 13.6978C21.7973 14.3943 21.631 15.0912 21.4831 15.7594C21.0725 17.6143 20.7629 19.4034 20.7629 21.0156H17.712C17.712 19.0583 18.0831 17.0033 18.5044 15.1C18.6788 14.3121 18.8565 13.5694 19.0262 12.8606C19.2844 11.7825 19.5237 10.7825 19.704 9.82031C20.0081 8.1975 20.0311 7.17478 19.8357 6.60966C19.7605 6.3922 19.6737 6.30596 19.5836 6.24964C19.4686 6.17778 19.1991 6.06647 18.6271 6.06647C17.6716 6.06647 17.1214 6.43643 16.698 7.11328C16.2055 7.90069 15.888 9.13064 15.7395 10.755C15.5938 12.3482 15.6235 14.1433 15.6958 15.9478C15.7166 16.4664 15.7413 16.9911 15.7657 17.5112Z" fill="#E478FA"/>
<path fill-rule="evenodd" clip-rule="evenodd" d="M5.82811 15.624C6.30127 17.4389 6.72911 19.3586 6.72912 21.0156L3.67828 21.0156C3.67827 19.7896 3.34909 18.2085 2.87595 16.3937C2.72004 15.7957 2.54641 15.1656 2.37006 14.5256C2.03744 13.3186 1.69512 12.0763 1.44369 10.9478C1.06639 9.25426 0.786561 7.40736 1.1722 5.9212C1.37954 5.12214 1.79982 4.34272 2.56188 3.783C3.31234 3.23181 4.22861 3.01562 5.20366 3.01562C7.18325 3.01562 8.70278 3.81356 9.74078 5.1949C10.7108 6.48584 11.1802 8.17775 11.4252 9.88439C11.7798 12.3534 11.714 15.3613 11.6536 18.1263C11.6316 19.1343 11.6103 20.11 11.6103 21.0156H8.55941C8.55941 19.9432 8.58303 18.8614 8.6064 17.791C8.66473 15.1193 8.7215 12.5195 8.40537 10.318C8.18717 8.7984 7.81472 7.71024 7.3018 7.02766C6.85681 6.43548 6.25216 6.06647 5.20366 6.06647C4.66467 6.06647 4.44541 6.18492 4.36788 6.24187C4.30195 6.2903 4.20178 6.39252 4.12524 6.68748C3.94312 7.38935 4.0418 8.57995 4.42153 10.2843C4.65836 11.3473 4.96225 12.4484 5.27981 13.599C5.46143 14.2571 5.64753 14.9314 5.82811 15.624Z" fill="#E478FA"/>
</svg>
