<svg width="73" height="72" viewBox="0 0 73 72" fill="none" xmlns="http://www.w3.org/2000/svg">
<mask id="mask0_677_34124" style="mask-type:luminance" maskUnits="userSpaceOnUse" x="0" y="0" width="73" height="72">
<path d="M72.5 0H0.5V72H72.5V0Z" fill="white"/>
</mask>
<g mask="url(#mask0_677_34124)">
<path d="M47.7894 31.8799V33.8966H44.4004V31.8799H47.7894Z" fill="#52565B"/>
<path d="M47.7894 31.8799V33.8966H44.4004V31.8799H47.7894Z" stroke="#33363A" stroke-width="0.852188" stroke-linecap="round" stroke-linejoin="round"/>
<path d="M48.4484 11.4468V32.1977H43.7402V11.4468H48.4484Z" fill="#48677A"/>
<path d="M48.4484 11.4468V32.1977H43.7402V11.4468H48.4484Z" stroke="#607D9E" stroke-width="0.852188" stroke-linecap="round" stroke-linejoin="round"/>
<path d="M44.938 14.3188H43.293" stroke="#4C4842" stroke-width="1.13625" stroke-linecap="round" stroke-linejoin="round"/>
<path d="M47.4118 14.3184H45.0322" stroke="#6E808E" stroke-width="0.994219" stroke-linecap="round" stroke-linejoin="round"/>
<path d="M45.0392 29.5303L43.5254 29.7209" stroke="#4C4842" stroke-width="0.994219" stroke-linecap="round" stroke-linejoin="round"/>
<path d="M47.966 29.1621L45.0391 29.5305" stroke="#6E808E" stroke-width="0.994219" stroke-linecap="round" stroke-linejoin="round"/>
<path d="M48.6628 29.0747L47.9668 29.1622" stroke="#A8927B" stroke-width="0.994219" stroke-linecap="round" stroke-linejoin="round"/>
<path d="M45.0361 31.4712L43.5283 31.6609" stroke="#4C4842" stroke-width="0.994219" stroke-linecap="round" stroke-linejoin="round"/>
<path d="M47.9659 31.1021L45.0332 31.471" stroke="#6E808E" stroke-width="0.994219" stroke-linecap="round" stroke-linejoin="round"/>
<path d="M48.6637 31.0142L47.9678 31.1017" stroke="#A8927B" stroke-width="0.994219" stroke-linecap="round" stroke-linejoin="round"/>
<path d="M45.1451 27.5762L43.5254 27.7801" stroke="#4C4842" stroke-width="0.994219" stroke-linecap="round" stroke-linejoin="round"/>
<path d="M47.9817 27.2192L45.1445 27.5763" stroke="#6E808E" stroke-width="0.994219" stroke-linecap="round" stroke-linejoin="round"/>
<path d="M48.6619 27.1338L47.9824 27.2193" stroke="#A8927B" stroke-width="0.994219" stroke-linecap="round" stroke-linejoin="round"/>
<path d="M45.0361 23.7114L43.5283 23.9012" stroke="#4C4842" stroke-width="0.994219" stroke-linecap="round" stroke-linejoin="round"/>
<path d="M47.9659 23.3423L45.0332 23.7113" stroke="#6E808E" stroke-width="0.994219" stroke-linecap="round" stroke-linejoin="round"/>
<path d="M48.6637 23.2544L47.9678 23.3419" stroke="#A8927B" stroke-width="0.994219" stroke-linecap="round" stroke-linejoin="round"/>
<path d="M44.9264 19.8457L43.5254 20.0221" stroke="#4C4842" stroke-width="0.994219" stroke-linecap="round" stroke-linejoin="round"/>
<path d="M47.9479 19.4653L44.9258 19.8457" stroke="#6E808E" stroke-width="0.994219" stroke-linecap="round" stroke-linejoin="round"/>
<path d="M48.6625 19.376L47.9492 19.4657" stroke="#A8927B" stroke-width="0.994219" stroke-linecap="round" stroke-linejoin="round"/>
<path d="M44.9264 21.7852L43.5254 21.9616" stroke="#4C4842" stroke-width="0.994219" stroke-linecap="round" stroke-linejoin="round"/>
<path d="M47.9479 21.4048L44.9258 21.7851" stroke="#6E808E" stroke-width="0.994219" stroke-linecap="round" stroke-linejoin="round"/>
<path d="M48.6625 21.3154L47.9492 21.4052" stroke="#A8927B" stroke-width="0.994219" stroke-linecap="round" stroke-linejoin="round"/>
<path d="M44.9264 25.6646L43.5254 25.841" stroke="#4C4842" stroke-width="0.994219" stroke-linecap="round" stroke-linejoin="round"/>
<path d="M47.9479 25.2842L44.9258 25.6645" stroke="#6E808E" stroke-width="0.994219" stroke-linecap="round" stroke-linejoin="round"/>
<path d="M48.6625 25.1943L47.9492 25.2841" stroke="#A8927B" stroke-width="0.994219" stroke-linecap="round" stroke-linejoin="round"/>
<path d="M45.0136 17.894L43.5254 18.0812" stroke="#4C4842" stroke-width="0.994219" stroke-linecap="round" stroke-linejoin="round"/>
<path d="M47.9672 17.5225L45.0146 17.894" stroke="#6E808E" stroke-width="0.994219" stroke-linecap="round" stroke-linejoin="round"/>
<path d="M48.6628 17.4351L47.9668 17.5225" stroke="#A8927B" stroke-width="0.994219" stroke-linecap="round" stroke-linejoin="round"/>
<path d="M48.6618 14.3184H47.4131" stroke="#A8927B" stroke-width="0.994219" stroke-linecap="round" stroke-linejoin="round"/>
<path d="M58.1373 45.5316C58.261 45.0376 57.7612 44.64 57.7612 44.64C58.002 42.8413 56.1587 42.3617 56.1587 42.3617C55.901 41.79 55.1193 41.4971 55.1193 41.4971C53.9954 39.8208 51.1822 39.5028 51.1822 39.5028C50.0619 38.6587 48.5529 38.7391 48.5529 38.7391C47.8785 38.2666 46.6101 38.5159 46.6101 38.5159C46.6101 38.5159 45.1381 38.1136 43.8732 38.9399C43.8732 38.9399 42.9756 38.6615 41.4082 39.3632C41.4082 39.3632 39.8885 39.5237 38.7981 40.3561C38.7981 40.3561 36.9904 40.8588 36.2686 41.8174C36.048 41.7069 34.034 42.4073 32.6802 44.5043C32.5057 44.7904 30.8688 46.7197 31.5843 47.6606C31.5843 47.6606 31.1792 48.216 31.7548 49.0644C31.6025 49.3323 31.4828 50.2282 32.1731 50.7719C32.3545 52.1646 33.6521 52.4097 33.6521 52.4097C34.9208 53.4796 36.5217 53.3802 37.2223 53.1351C38.2654 53.5977 38.9728 53.2783 38.9728 53.2783" fill="url(#paint0_radial_677_34124)"/>
<path d="M41.8399 42.0533C38.8517 41.4119 37.5688 44.1158 37.5688 44.1158C35.5849 43.6583 34.6554 44.2556 34.394 45.5361C34.1326 46.8167 34.7578 47.8479 34.7578 47.8479C36.1298 46.5406 38.1079 46.4854 38.1079 46.4854C39.4011 44.8168 41.8547 44.5118 41.8547 44.5118C42.978 43.0402 44.3678 43.1302 44.3678 43.1302C44.8011 42.4178 45.6628 42.3184 46.5101 42.5462C46.5101 42.5462 49.3302 41.6003 52.1568 42.3426C52.1568 42.3426 52.2696 41.2932 50.7164 41.0129C50.7164 41.0129 49.7899 39.7338 47.3135 40.1321C47.3135 40.1321 43.6777 39.4599 41.8399 42.0533Z" fill="url(#paint1_radial_677_34124)"/>
<path d="M45.7474 41.1736C48.6266 41.1342 51.4539 40.7645 53.2367 40.0662C52.1879 39.6166 51.1821 39.5028 51.1821 39.5028C50.0619 38.6587 48.553 38.7389 48.553 38.7389C47.8786 38.2664 46.6102 38.5158 46.6102 38.5158C46.6102 38.5158 45.1382 38.1137 43.8733 38.9399C43.8733 38.9399 42.9757 38.6613 41.4083 39.363C41.4083 39.363 39.9473 39.519 38.8623 40.3104C40.7798 41.0471 43.2811 41.2074 45.7474 41.1736Z" fill="url(#paint2_radial_677_34124)"/>
<path d="M44.8994 53.9139C46.0427 54.5632 47.3378 53.9616 47.7606 53.8017C48.9662 54.3057 50.9548 55.0335 53.5152 54.2332C56.0755 53.4329 56.4796 51.1097 56.4796 51.1097C56.7467 50.5915 56.4357 50.0235 56.4357 50.0235C56.4357 50.0235 52.9748 48.9573 49.5176 50.0257C46.0604 51.0942 44.8994 53.9139 44.8994 53.9139Z" fill="#B25C6C"/>
<path d="M44.8994 53.9139C46.0427 54.5632 47.3378 53.9616 47.7606 53.8017C48.9662 54.3057 50.9548 55.0335 53.5152 54.2332C56.0755 53.4329 56.4796 51.1097 56.4796 51.1097C56.7467 50.5915 56.4357 50.0235 56.4357 50.0235C56.4357 50.0235 52.9748 48.9573 49.5176 50.0257C46.0604 51.0942 44.8994 53.9139 44.8994 53.9139Z" stroke="#59142E" stroke-width="0.842418" stroke-linecap="round" stroke-linejoin="round"/>
<path d="M53.9649 52.6504C54.4275 52.1676 54.5218 51.6255 54.5218 51.6255C54.5434 51.5835 54.5578 51.5409 54.5666 51.4988C52.2277 51.2547 50.5397 51.7404 50.3688 52.2196C50.1912 52.7177 50.7865 53.3921 51.9476 53.0511C52.6534 52.8439 53.7207 52.7021 53.9649 52.6504Z" fill="url(#paint3_radial_677_34124)"/>
<path d="M42.789 48.4848C41.2033 48.1439 37.0926 50.5342 38.973 53.2787C39.7147 54.3613 41.7952 55.4163 44.8996 53.9145C46.6828 53.4143 48.1644 51.6973 48.1644 51.6973C49.5492 50.9396 49.9628 50.8848 49.9384 50.5066C50.7569 50.7665 53.2232 50.4596 53.968 50.1936C53.968 50.1936 55.2171 50.4732 56.4359 50.024C57.6964 49.5594 57.9163 49.15 58.1696 48.1357C58.4087 47.1783 58.3982 45.9021 58.1376 45.532C57.5041 44.8302 55.9586 44.8205 55.9586 44.8205C55.1322 42.9753 54.2689 42.9386 53.4445 42.9048C52.4671 42.9753 51.0931 42.6945 50.1648 43.1797C48.9988 43.789 48.8305 45.169 48.8305 45.169C46.2542 45.5855 43.3766 47.4576 42.789 48.4848Z" fill="url(#paint4_radial_677_34124)"/>
<path d="M58.1706 48.1354C58.4096 47.1781 58.3993 45.9018 58.1387 45.5317" stroke="#A83F67" stroke-width="0.842418" stroke-linecap="round" stroke-linejoin="round"/>
<path d="M41.502 48.624C41.6861 48.9786 41.8569 49.2489 41.8569 49.2489" stroke="#D36E8A" stroke-width="0.561612" stroke-linecap="round" stroke-linejoin="round"/>
<path d="M38.4834 52.1405C39.5614 52.1976 39.5513 52.159 40.2072 51.6442C40.863 51.1294 41.0703 51.2154 40.5406 50.501" stroke="#D36E8A" stroke-width="0.561612" stroke-linecap="round" stroke-linejoin="round"/>
<path d="M40.8389 51.0286C42.2568 50.8608 42.992 50.464 43.1566 50.7126" stroke="#D36E8A" stroke-width="0.561612" stroke-linecap="round" stroke-linejoin="round"/>
<path d="M43.0459 50.6421C44.2298 49.756 44.4525 49.3403 44.2136 48.959" stroke="#D36E8A" stroke-width="0.561612" stroke-linecap="round" stroke-linejoin="round"/>
<path d="M44.2568 49.0398C44.4231 49.348 45.4458 49.3448 45.9978 49.0206C46.4622 48.7479 46.9638 47.9995 46.6988 47.5371" stroke="#D36E8A" stroke-width="0.561612" stroke-linecap="round" stroke-linejoin="round"/>
<path d="M46.7402 48.0616C46.9728 47.5373 48.9614 47.4558 49.6794 47.7928C50.2383 48.0551 50.5199 48.4761 50.7644 49.1026" stroke="#D36E8A" stroke-width="0.561612" stroke-linecap="round" stroke-linejoin="round"/>
<path d="M49.6055 47.7619C50.5683 45.9448 51.4977 46.2971 50.6706 44.9854" stroke="#D36E8A" stroke-width="0.561612" stroke-linecap="round" stroke-linejoin="round"/>
<path d="M50.9336 45.4873C51.3313 46.2555 53.3799 45.8365 54.7008 48.2145C54.7008 48.2145 55.8129 48.1472 56.093 48.8758" stroke="#D36E8A" stroke-width="0.561612" stroke-linecap="round" stroke-linejoin="round"/>
<path d="M52.6791 50.3327C53.2726 49.796 53.1581 49.2231 52.6084 48.2856" stroke="#D36E8A" stroke-width="0.561612" stroke-linecap="round" stroke-linejoin="round"/>
<path d="M48.3461 50.4414C47.0793 50.6192 46.2931 50.8004 45.5277 50.6105C45.0637 51.3413 45.0627 52.0328 42.1201 52.5861" stroke="#D36E8A" stroke-width="0.561612" stroke-linecap="round" stroke-linejoin="round"/>
<path d="M41.5449 52.3438C42.4229 52.4037 42.0479 52.8688 42.0479 52.8688" stroke="#D36E8A" stroke-width="0.561612" stroke-linecap="round" stroke-linejoin="round"/>
<path d="M32.1699 50.772C32.8369 51.1976 34.009 51.261 34.009 51.261" stroke="#A83F67" stroke-width="0.561612" stroke-linecap="round" stroke-linejoin="round"/>
<path d="M33.6513 52.4091C33.5452 51.9247 33.7312 51.4448 34.0113 51.2605C34.437 50.9803 36.2529 50.6723 38.544 51.2227" stroke="#A83F67" stroke-width="0.561612" stroke-linecap="round" stroke-linejoin="round"/>
<path d="M53.1491 42.9161C53.9414 42.3264 54.1293 40.9668 51.8675 40.4838C51.8675 40.4838 51.6817 39.9157 51.1797 39.5029" stroke="#D36E8A" stroke-width="0.561612" stroke-linecap="round" stroke-linejoin="round"/>
<path d="M47.1016 42.3624C47.4537 41.5888 48.4136 41.2291 48.9653 41.1175C49.742 40.9603 51.6366 41.0727 51.7023 42.8866" stroke="#D36E8A" stroke-width="0.561612" stroke-linecap="round" stroke-linejoin="round"/>
<path d="M46.5361 41.0562C47.3387 41.2171 47.7503 41.624 47.7503 41.624" stroke="#D36E8A" stroke-width="0.561612" stroke-linecap="round" stroke-linejoin="round"/>
<path d="M45.9142 39.7012C44.5098 40.6228 44.4388 41.9674 44.6586 42.931" stroke="#D36E8A" stroke-width="0.561612" stroke-linecap="round" stroke-linejoin="round"/>
<path d="M44.6595 42.9321C44.7376 43.2743 44.8525 43.5685 44.9571 43.7786C44.9571 43.7786 43.9809 44.5426 44.2288 45.4443" stroke="#BA5B7D" stroke-width="0.561612" stroke-linecap="round" stroke-linejoin="round"/>
<path d="M43.8715 38.9399C43.6568 39.0957 43.7033 39.3186 43.9747 39.5471C42.6407 39.9929 40.8258 40.8632 42.5747 45.5041" stroke="#D36E8A" stroke-width="0.561612" stroke-linecap="round" stroke-linejoin="round"/>
<path d="M42.0016 41.2505C41.1264 40.8323 40.1039 40.9617 39.2842 41.3927C37.8716 42.1352 37.1302 43.7359 37.9839 46.191" stroke="#D36E8A" stroke-width="0.561612" stroke-linecap="round" stroke-linejoin="round"/>
<path d="M37.9854 46.1914C38.1263 46.5968 38.3107 47.0254 38.5427 47.4772" stroke="#BA5B7D" stroke-width="0.561612" stroke-linecap="round" stroke-linejoin="round"/>
<path d="M37.7063 43.446C34.9786 42.1718 31.8722 44.9846 34.5142 48.9205" stroke="#D36E8A" stroke-width="0.561612" stroke-linecap="round" stroke-linejoin="round"/>
<path d="M34.0585 44.2798C33.5332 44.6994 32.905 44.1743 33.2372 43.7529" stroke="#D36E8A" stroke-width="0.561612" stroke-linecap="round" stroke-linejoin="round"/>
<path d="M32.2383 45.1219C32.7479 44.5532 33.446 44.6482 33.6827 44.99" stroke="#D36E8A" stroke-width="0.561612" stroke-linecap="round" stroke-linejoin="round"/>
<path d="M42.2441 45.7547C43.2073 44.8227 44.6966 45.4436 45.5934 46.3049" stroke="#A83F67" stroke-width="0.561612" stroke-linecap="round" stroke-linejoin="round"/>
<path d="M39.5506 43.5259C39.3706 44.4735 39.5543 45.3667 39.9059 46.1345" stroke="#D36E8A" stroke-width="0.561612" stroke-linecap="round" stroke-linejoin="round"/>
<path d="M36.1319 47.8472C35.5646 46.809 35.4763 45.551 36.0465 44.5352" stroke="#D36E8A" stroke-width="0.561612" stroke-linecap="round" stroke-linejoin="round"/>
<path d="M39.9062 46.1343C40.4328 47.284 41.3357 48.1527 41.9583 48.5023" stroke="#A83F67" stroke-width="0.561612" stroke-linecap="round" stroke-linejoin="round"/>
<path d="M39.4363 49.8592C37.9239 49.8409 36.7452 48.9738 36.1299 47.8477" stroke="#A83F67" stroke-width="0.561612" stroke-linecap="round" stroke-linejoin="round"/>
<path d="M47.0415 43.527C46.9141 43.0626 46.9569 42.6783 47.1004 42.3628" stroke="#BA5B7D" stroke-width="0.561612" stroke-linecap="round" stroke-linejoin="round"/>
<path d="M38.7981 40.356C38.7981 40.356 36.9904 40.8586 36.2686 41.8173C36.048 41.7068 34.034 42.4072 32.6802 44.5042C32.5057 44.7902 30.8688 46.7196 31.5843 47.6605C31.5843 47.6605 31.1792 48.2159 31.7548 49.0643C31.6025 49.3322 31.4828 50.2281 32.1731 50.7717" stroke="#A83F67" stroke-width="0.842418" stroke-linecap="round" stroke-linejoin="round"/>
<path d="M58.1373 45.5318C58.261 45.0379 57.7611 44.6401 57.7611 44.6401C58.0019 42.8415 56.1588 42.3618 56.1588 42.3618C55.9011 41.7902 55.1194 41.4973 55.1194 41.4973C54.6608 40.8134 53.9212 40.3555 53.2061 40.0532" stroke="#A83F67" stroke-width="0.842418" stroke-linecap="round" stroke-linejoin="round"/>
<path d="M53.2048 40.0531C52.167 39.6143 51.181 39.5028 51.181 39.5028C50.0607 38.6587 48.5517 38.7391 48.5517 38.7391C47.8773 38.2666 46.6089 38.5159 46.6089 38.5159C46.6089 38.5159 45.1369 38.1136 43.872 38.9399C43.872 38.9399 42.9744 38.6615 41.407 39.3632C41.407 39.3632 39.8873 39.5237 38.7969 40.3561" stroke="#59142E" stroke-width="0.842418" stroke-linecap="round" stroke-linejoin="round"/>
<path d="M32.1729 50.772C32.3542 52.1648 33.6518 52.4098 33.6518 52.4098C34.9205 53.4797 36.5216 53.3804 37.2222 53.1353C38.2653 53.5979 38.9725 53.2785 38.9725 53.2785" stroke="#59142E" stroke-width="0.842418" stroke-linecap="round" stroke-linejoin="round"/>
<path d="M47.7598 53.8024C48.7115 53.4392 49.2178 52.8483 49.9281 52.4287" stroke="#59142E" stroke-width="0.842418" stroke-linecap="round" stroke-linejoin="round"/>
<path d="M50.1631 43.1792C48.9971 43.7886 48.8288 45.1685 48.8288 45.1685C46.2525 45.585 43.3747 47.457 42.7871 48.4843" stroke="#93375C" stroke-width="0.561612" stroke-linecap="round" stroke-linejoin="round"/>
<path d="M42.7888 48.4842C41.2031 48.1432 37.0926 50.5336 38.973 53.278" stroke="#77294C" stroke-width="0.561612" stroke-linecap="round" stroke-linejoin="round"/>
<path d="M38.9727 53.2778C39.7144 54.3605 41.7949 55.4155 44.8993 53.9136" stroke="#59142E" stroke-width="0.842418" stroke-linecap="round" stroke-linejoin="round"/>
<path d="M44.8994 53.914C46.6826 53.4138 48.164 51.6968 48.164 51.6968C49.5488 50.9391 49.9626 50.8842 49.9381 50.506C50.7567 50.766 53.223 50.4592 53.9678 50.1932C53.9678 50.1932 55.2168 50.4728 56.4357 50.0236C57.6962 49.559 57.9159 49.1496 58.1692 48.1353" stroke="#59142E" stroke-width="0.842418" stroke-linecap="round" stroke-linejoin="round"/>
<path d="M55.9587 44.8204C55.1322 42.9752 54.2691 42.9386 53.4447 42.9048C52.4674 42.9753 51.0933 42.6945 50.165 43.1797" stroke="#A83F67" stroke-width="0.561612" stroke-linecap="round" stroke-linejoin="round"/>
<path d="M49.9622 14.5757V24.1886H42.2188V14.5757H49.9622Z" fill="url(#paint5_linear_677_34124)"/>
<path d="M49.9623 24.1886H42.2188V14.5757" stroke="#101A1E" stroke-width="0.852188" stroke-linecap="round" stroke-linejoin="round"/>
<path d="M49.9629 14.5757V24.1886" stroke="#4F514C" stroke-width="0.852188" stroke-linecap="round" stroke-linejoin="round"/>
<path d="M42.2188 14.5757H49.9623" stroke="#8DA7B4" stroke-width="0.852188" stroke-linecap="round" stroke-linejoin="round"/>
<path d="M38.6172 22.2096C40.5356 22.2096 42.2191 22.853 42.2191 22.853H44.0845C41.8528 21.2443 38.6172 22.2096 38.6172 22.2096Z" stroke="#101A1E" stroke-width="0.852188" stroke-linecap="round" stroke-linejoin="round"/>
<path d="M39.873 16.2069C41.481 16.2069 42.2204 15.5288 42.2204 15.5288H44.0857C41.8716 17.876 39.873 16.2069 39.873 16.2069Z" stroke="#93AFBC" stroke-width="0.852188" stroke-linecap="round" stroke-linejoin="round"/>
<path d="M44.0846 15.5293C44.0846 15.5293 41.7914 16.6149 37.8378 16.0421C34.7114 15.5891 27.288 10.2235 19.77 13.4807C14.4616 15.7807 8.5791 21.8224 8.5791 40.1191C8.5791 60.7365 17.1326 66.1526 28.3034 66.1526C39.4742 66.1526 47.928 61.9113 48.916 61.0864C49.9039 60.2614 49.0076 58.8866 48.1122 59.2774V57.7865C49.9893 57.6053 51.5481 56.1265 51.5481 55.2026H28.9704C25.0336 55.2026 21.8423 52.0113 21.8423 48.0744V29.3997C21.8423 25.429 25.0613 22.21 29.032 22.21H39.0847C41.9706 22.21 44.0846 22.8581 44.0846 22.8581V15.5293Z" fill="url(#paint6_radial_677_34124)"/>
<path d="M44.0847 15.5293C44.0847 15.5293 42.9177 16.0811 40.8145 16.19V22.2861C42.7768 22.4574 44.0847 22.8581 44.0847 22.8581H46.4358V15.5293H44.0847Z" fill="url(#paint7_linear_677_34124)"/>
<path d="M48.9165 61.0865C49.9045 60.2616 49.0081 58.8865 48.1127 59.2774V57.7865C49.9898 57.6053 51.5486 56.1266 51.5486 55.2027H28.9709C25.0341 55.2027 21.8428 52.0114 21.8428 48.0746V29.3999C21.8428 25.4291 25.0619 22.21 29.0327 22.21H39.0852C41.9712 22.21 44.0851 22.858 44.0851 22.858" stroke="#293438" stroke-width="0.852188" stroke-linecap="round" stroke-linejoin="round"/>
<path d="M44.0844 15.5293C44.0844 15.5293 41.7912 16.6149 37.8376 16.0421C34.7112 15.5891 27.2878 10.2235 19.7698 13.4807C15.7885 15.2056 11.4843 19.0353 9.58105 28.5613" stroke="#6E8B9F" stroke-width="0.852188" stroke-linecap="round" stroke-linejoin="round"/>
<path d="M9.58127 28.561C8.94682 31.7364 8.5791 35.5447 8.5791 40.1188C8.5791 43.702 8.8376 46.826 9.32306 49.5422" stroke="#516E7A" stroke-width="0.852188" stroke-linecap="round" stroke-linejoin="round"/>
<path d="M9.32422 49.5425C11.6325 62.4555 19.0754 66.1525 28.3047 66.1525C39.4755 66.1525 47.9292 61.9113 48.9171 61.0864" stroke="black" stroke-width="0.852188" stroke-linecap="round" stroke-linejoin="round"/>
<path d="M19.3231 48.144V29.3789C19.3231 24.0435 23.6484 19.7182 28.9838 19.7182H42.2201V17.9272C41.6065 18.0148 40.8947 18.074 40.0919 18.0742C39.272 18.0742 38.4239 18.0115 37.5712 17.888C36.5099 17.7341 35.3131 17.2407 33.798 16.6161C31.2972 15.5852 28.185 14.3022 24.9055 14.3022C23.3317 14.3022 21.8946 14.5934 20.5123 15.1922C17.6483 16.4331 15.4653 18.5503 13.8382 21.6647C11.5868 25.9738 10.4453 32.1827 10.4453 40.119C10.4453 49.2253 12.1932 55.7863 15.6402 59.62C18.464 62.7605 22.6065 64.287 28.3043 64.287C36.6656 64.287 42.81 61.8084 45.6997 60.4471C47.0131 59.8167 48.1131 59.2772 48.1131 59.2772V57.7864C47.988 57.7985 47.8613 57.8047 47.7338 57.8047H28.9838C23.6484 57.8047 19.3231 53.4794 19.3231 48.144Z" fill="url(#paint8_radial_677_34124)"/>
<path d="M19.3235 48.1436C19.3235 53.479 23.6488 57.8042 28.9842 57.8042H47.7343C47.8618 57.8042 47.9884 57.798 48.1135 57.7859V59.2767C48.1135 59.2767 47.0135 59.8162 45.7001 60.4466C42.8104 61.808 36.6659 64.2865 28.3047 64.2865C22.6068 64.2865 18.4643 62.76 15.6406 59.6195L19.3235 48.1436Z" fill="url(#paint9_radial_677_34124)"/>
<path d="M19.325 38.1354V29.3787C19.325 24.0433 23.6503 19.7182 28.9857 19.7182H42.222V17.9272C41.6085 18.0148 40.8966 18.074 40.0938 18.0742C39.2739 18.0742 38.4258 18.0115 37.5731 17.888C36.5118 17.7341 35.3151 17.2407 33.7999 16.6161C31.2991 15.5852 28.1869 14.3022 24.9074 14.3022C23.3336 14.3022 21.8965 14.5934 20.5143 15.1922C17.6502 16.4331 15.4672 18.5503 13.8401 21.6647C11.7801 25.6079 10.6499 31.1429 10.4727 38.1354H19.325Z" fill="url(#paint10_radial_677_34124)"/>
<path d="M28.9849 57.8042C23.6495 57.8042 19.3242 53.479 19.3242 48.1436" stroke="#313C41" stroke-width="0.852188" stroke-linecap="round" stroke-linejoin="round"/>
<path d="M42.2201 17.9272C41.6065 18.0148 40.8947 18.074 40.0919 18.0742C39.272 18.0742 38.4239 18.0115 37.5712 17.888C36.5099 17.7341 35.3131 17.2407 33.7979 16.6161C31.2972 15.5852 28.185 14.3022 24.9055 14.3022C23.3317 14.3022 21.8946 14.5934 20.5123 15.1922C17.6483 16.4331 15.4653 18.5503 13.8382 21.6647C11.5868 25.9738 10.4453 32.1827 10.4453 40.119C10.4453 49.2253 12.1932 55.7863 15.6402 59.62C18.464 62.7605 22.6065 64.287 28.3043 64.287C36.6656 64.287 42.81 61.8084 45.6997 60.4471C47.0131 59.8167 48.1131 59.2772 48.1131 59.2772V57.7864" stroke="#313C41" stroke-width="0.852188" stroke-linecap="round" stroke-linejoin="round"/>
<path d="M48.1137 57.7861C47.9886 57.7982 47.862 57.8046 47.7345 57.8046H28.9844" stroke="black" stroke-width="0.852188" stroke-linecap="round" stroke-linejoin="round"/>
<path d="M19.3242 29.3789C19.3242 24.0435 23.6495 19.7183 28.9849 19.7183" stroke="#D6E9EE" stroke-width="0.852188" stroke-linecap="round" stroke-linejoin="round"/>
<path d="M28.9844 19.7183H42.2208" stroke="#9BB9C4" stroke-width="0.852188" stroke-linecap="round" stroke-linejoin="round"/>
<path d="M19.3242 48.1441V29.3789" stroke="#9BB9C4" stroke-width="0.852188" stroke-linecap="round" stroke-linejoin="round"/>
<path d="M29.1201 56.9395H45.1594" stroke="#93AFBC" stroke-width="0.852188" stroke-linecap="round" stroke-linejoin="round"/>
<path d="M51.8693 37.0662L49.2568 34.2868C49.0228 34.0378 48.6961 33.8965 48.3542 33.8965H46.0881H43.822C43.4801 33.8965 43.1535 34.0378 42.9194 34.2868L40.3069 37.0662C39.9562 37.4393 40.0654 38.0418 40.522 38.2733C40.9449 38.4876 41.5194 38.6809 42.2163 38.6809C43.7808 38.6809 46.0881 38.6809 46.0881 38.6809C46.0881 38.6809 48.3954 38.6809 49.9599 38.6809C50.6568 38.6809 51.2315 38.4876 51.6543 38.2733C52.1109 38.0418 52.22 37.4393 51.8693 37.0662Z" fill="url(#paint11_radial_677_34124)"/>
<path d="M42.2285 37.7015L45.0424 34.8291H46.1229L48.8864 37.7015H42.2285Z" fill="url(#paint12_radial_677_34124)"/>
<path d="M42.5098 37.214L44.4013 35.2832" stroke="#60484D" stroke-width="0.568125" stroke-linecap="round" stroke-linejoin="round"/>
<path d="M41.207 38.5475L42.5132 37.2144" stroke="#2B3942" stroke-width="0.568125" stroke-linecap="round" stroke-linejoin="round"/>
<path d="M51.8711 37.0661L49.2586 34.2868C49.0245 34.0378 48.6978 33.8965 48.3559 33.8965H46.0898H43.8237C43.4819 33.8965 43.1552 34.0378 42.9211 34.2868L40.3086 37.0661" stroke="#335466" stroke-width="0.852188" stroke-linecap="round" stroke-linejoin="round"/>
<path d="M46.0889 38.6813C46.0889 38.6813 48.3962 38.6813 49.9606 38.6813C50.6576 38.6813 51.2322 38.488 51.6551 38.2737C52.1117 38.0422 52.2208 37.4395 51.8701 37.0664" stroke="#332E2A" stroke-width="0.852188" stroke-linecap="round" stroke-linejoin="round"/>
<path d="M40.3069 37.0664C39.9562 37.4395 40.0653 38.0422 40.522 38.2737C40.9448 38.488 41.5194 38.6813 42.2164 38.6813C43.7809 38.6813 46.0882 38.6813 46.0882 38.6813" stroke="#2B3942" stroke-width="0.852188" stroke-linecap="round" stroke-linejoin="round"/>
<path d="M41.645 9.18457V11.1929H29.5459V9.18457H41.645Z" fill="url(#paint13_linear_677_34124)"/>
<path d="M41.645 11.1929H29.5459" stroke="#1D282D" stroke-width="0.517245" stroke-linecap="round" stroke-linejoin="round"/>
<path d="M29.5459 9.18457H41.645" stroke="#516572" stroke-width="0.517245" stroke-linecap="round" stroke-linejoin="round"/>
<path d="M29.5459 9.8999H41.645" stroke="#B7D2E5" stroke-width="0.172415" stroke-miterlimit="10"/>
<path d="M29.0109 12.1768H28.067C27.68 12.1768 27.3662 11.8631 27.3662 11.476V8.89902C27.3662 8.51199 27.68 8.19824 28.067 8.19824H29.0109C29.398 8.19824 29.7117 8.51199 29.7117 8.89902V11.476C29.7117 11.8631 29.398 12.1768 29.0109 12.1768Z" fill="url(#paint14_linear_677_34124)"/>
<path d="M28.3967 10.6069H28.3703C28.182 10.6069 28.0293 10.4542 28.0293 10.2659V9.57393C28.0293 9.38559 28.182 9.23291 28.3703 9.23291H28.3967C28.5851 9.23291 28.7377 9.38559 28.7377 9.57393V10.2659C28.7377 10.4542 28.5851 10.6069 28.3967 10.6069Z" fill="url(#paint15_linear_677_34124)"/>
<path d="M29.7117 8.87354V11.5025C29.7117 11.8752 29.3859 12.1772 28.9839 12.1772H28.094C27.692 12.1772 27.3662 11.8752 27.3662 11.5025V8.87354" stroke="#1D282D" stroke-width="0.852188" stroke-linecap="round" stroke-linejoin="round"/>
<path d="M27.3662 8.87338C27.3662 8.50069 27.692 8.19873 28.094 8.19873H28.9839C29.3859 8.19873 29.7117 8.50069 29.7117 8.87338" stroke="#516572" stroke-width="0.852188" stroke-linecap="round" stroke-linejoin="round"/>
<path d="M48.8156 13.2166H43.3665C42.5816 13.2166 41.9453 12.5804 41.9453 11.7955V10.3269V8.57825C41.9453 7.79338 42.5816 7.15723 43.3665 7.15723H48.8156C49.6005 7.15723 50.2368 7.79338 50.2368 8.57825V11.7955C50.2368 12.5804 49.6005 13.2166 48.8156 13.2166Z" fill="url(#paint16_linear_677_34124)"/>
<path d="M48.5838 12.5014H45.8903C45.5006 12.5014 45.1846 12.1853 45.1846 11.7956C45.1846 11.4059 45.5006 11.0898 45.8903 11.0898H48.5838C48.9735 11.0898 49.2896 11.4059 49.2896 11.7956C49.2896 12.1853 48.9735 12.5014 48.5838 12.5014Z" fill="#60484D"/>
<g opacity="0.4">
<path d="M43.4557 11.9318H43.4116C43.2964 11.9318 43.2031 11.8384 43.2031 11.7232V9.13198C43.2031 9.0168 43.2964 8.92334 43.4116 8.92334H43.4557C43.5708 8.92334 43.6642 9.0168 43.6642 9.13198V11.7232C43.6642 11.8384 43.5708 11.9318 43.4557 11.9318Z" fill="#60484D"/>
</g>
<g opacity="0.4">
<path d="M48.1468 11.9318C47.981 11.9318 47.8467 11.7975 47.8467 11.6317V9.22345C47.8467 9.0577 47.981 8.92334 48.1468 8.92334C48.3125 8.92334 48.4469 9.0577 48.4469 9.22345V11.6317C48.4469 11.7975 48.3125 11.9318 48.1468 11.9318Z" fill="#60484D"/>
</g>
<path d="M44.9364 11.9327C44.588 11.9327 44.3057 11.6503 44.3057 11.3019V8.41982C44.3057 8.07142 44.588 7.78906 44.9364 7.78906C45.2848 7.78906 45.5672 8.07142 45.5672 8.41982V11.3019C45.5672 11.6503 45.2848 11.9327 44.9364 11.9327Z" fill="url(#paint17_linear_677_34124)"/>
<path d="M41.9453 8.5779C41.9453 7.79304 42.5816 7.15674 43.3665 7.15674H48.8156C49.6005 7.15674 50.2368 7.79304 50.2368 8.5779" stroke="#6684A7" stroke-width="0.852188" stroke-linecap="round" stroke-linejoin="round"/>
<path d="M50.2363 8.57812V11.7954" stroke="#425466" stroke-width="0.852188" stroke-linecap="round" stroke-linejoin="round"/>
<path d="M48.8154 13.2163H43.3662" stroke="#425466" stroke-width="0.852188" stroke-linecap="round" stroke-linejoin="round"/>
<path d="M50.2366 11.7954C50.2366 12.5803 49.6003 13.2166 48.8154 13.2166" stroke="#1D282D" stroke-width="0.852188" stroke-linecap="round" stroke-linejoin="round"/>
<path d="M41.9473 11.7954V9.7876" stroke="#425466" stroke-width="0.852188" stroke-linecap="round" stroke-linejoin="round"/>
<path d="M43.3665 13.2166C42.5816 13.2166 41.9453 12.5803 41.9453 11.7954" stroke="#1D282D" stroke-width="0.852188" stroke-linecap="round" stroke-linejoin="round"/>
<path d="M41.9473 9.78766V8.57812" stroke="#1D282D" stroke-width="0.852188" stroke-linecap="round" stroke-linejoin="round"/>
<path d="M44.9497 9.38066H43.3388C42.999 9.38066 42.7236 9.10527 42.7236 8.76553V8.4042C42.7236 8.06446 42.999 7.78906 43.3388 7.78906H44.9497C45.2894 7.78906 45.5648 8.06446 45.5648 8.4042V8.76553C45.5648 9.10527 45.2894 9.38066 44.9497 9.38066Z" fill="url(#paint18_linear_677_34124)"/>
<path d="M62.3447 9.18457V11.1929H50.2461V9.18457H62.3447Z" fill="url(#paint19_linear_677_34124)"/>
<path d="M62.3447 11.1929H50.2461" stroke="#1D282D" stroke-width="0.517234" stroke-linecap="round" stroke-linejoin="round"/>
<path d="M50.2461 9.18457H62.3447" stroke="#516572" stroke-width="0.517234" stroke-linecap="round" stroke-linejoin="round"/>
<path d="M50.2461 9.89941H62.3447" stroke="#B7D2E5" stroke-width="0.172411" stroke-miterlimit="10"/>
<path d="M63.6955 12.1768H62.7516C62.3645 12.1768 62.0508 11.8631 62.0508 11.476V8.89902C62.0508 8.51199 62.3645 8.19824 62.7516 8.19824H63.6955C64.0825 8.19824 64.3963 8.51199 64.3963 8.89902V11.476C64.3963 11.8631 64.0825 12.1768 63.6955 12.1768Z" fill="url(#paint20_linear_677_34124)"/>
<path d="M63.0813 10.6069H63.0549C62.8666 10.6069 62.7139 10.4542 62.7139 10.2659V9.57393C62.7139 9.38559 62.8666 9.23291 63.0549 9.23291H63.0813C63.2696 9.23291 63.4223 9.38559 63.4223 9.57393V10.2659C63.4223 10.4542 63.2696 10.6069 63.0813 10.6069Z" fill="url(#paint21_linear_677_34124)"/>
<path d="M64.3963 8.87354V11.5025C64.3963 11.8752 64.0705 12.1772 63.6685 12.1772H62.7785C62.3766 12.1772 62.0508 11.8752 62.0508 11.5025V8.87354" stroke="#1D282D" stroke-width="0.852188" stroke-linecap="round" stroke-linejoin="round"/>
<path d="M62.0508 8.87338C62.0508 8.50069 62.3766 8.19873 62.7785 8.19873H63.6685C64.0705 8.19873 64.3963 8.50069 64.3963 8.87338" stroke="#516572" stroke-width="0.852188" stroke-linecap="round" stroke-linejoin="round"/>
</g>
<defs>
<radialGradient id="paint0_radial_677_34124" cx="0" cy="0" r="1" gradientUnits="userSpaceOnUse" gradientTransform="translate(54.1634 56.0346) scale(27.2813 20.7298)">
<stop offset="0.64" stop-color="#D36E8A"/>
<stop offset="0.77" stop-color="#E997AF"/>
<stop offset="0.96" stop-color="#FEC1D4"/>
</radialGradient>
<radialGradient id="paint1_radial_677_34124" cx="0" cy="0" r="1" gradientUnits="userSpaceOnUse" gradientTransform="translate(50.2992 52.7306) scale(17.3608 13.1916)">
<stop offset="0.76" stop-color="white" stop-opacity="0"/>
<stop offset="0.82" stop-color="white" stop-opacity="0.4"/>
<stop offset="0.9" stop-color="white" stop-opacity="0.8"/>
</radialGradient>
<radialGradient id="paint2_radial_677_34124" cx="0" cy="0" r="1" gradientUnits="userSpaceOnUse" gradientTransform="translate(45.7878 25.3149) scale(20.6573 15.6965)">
<stop offset="0.88" stop-color="#B75978"/>
<stop offset="0.94" stop-color="#B75978" stop-opacity="0.5"/>
<stop offset="1" stop-color="#B75978" stop-opacity="0"/>
</radialGradient>
<radialGradient id="paint3_radial_677_34124" cx="0" cy="0" r="1" gradientUnits="userSpaceOnUse" gradientTransform="translate(53.6809 56.2797) scale(7.58101 5.76044)">
<stop offset="0.63" stop-color="white" stop-opacity="0"/>
<stop offset="0.74" stop-color="white" stop-opacity="0.3"/>
<stop offset="0.9" stop-color="white" stop-opacity="0.6"/>
</radialGradient>
<radialGradient id="paint4_radial_677_34124" cx="0" cy="0" r="1" gradientUnits="userSpaceOnUse" gradientTransform="translate(34.6742 36.3303) scale(28.4135 21.59)">
<stop offset="0.63" stop-color="#FEC1D4"/>
<stop offset="0.74" stop-color="#E997AF"/>
<stop offset="0.91" stop-color="#D36E8A"/>
</radialGradient>
<linearGradient id="paint5_linear_677_34124" x1="43.425" y1="19.386" x2="49.7238" y2="19.0525" gradientUnits="userSpaceOnUse">
<stop offset="0.08" stop-color="#778E99"/>
<stop offset="0.36" stop-color="#687C87"/>
<stop offset="0.61" stop-color="#596B75"/>
<stop offset="0.8" stop-color="#626D6E"/>
<stop offset="0.91" stop-color="#6C6F68"/>
</linearGradient>
<radialGradient id="paint6_radial_677_34124" cx="0" cy="0" r="1" gradientUnits="userSpaceOnUse" gradientTransform="translate(6.35532 6.17778) scale(55.4618)">
<stop offset="0.16" stop-color="#BBD7E3"/>
<stop offset="0.57" stop-color="#8FA3AC"/>
<stop offset="0.98" stop-color="#626F76"/>
</radialGradient>
<linearGradient id="paint7_linear_677_34124" x1="40.4429" y1="19.2447" x2="46.7602" y2="19.1336" gradientUnits="userSpaceOnUse">
<stop stop-color="#A8BABE" stop-opacity="0"/>
<stop offset="0.25" stop-color="#A8BABE" stop-opacity="0.5"/>
<stop offset="0.67" stop-color="#A8BABE"/>
<stop offset="0.86" stop-color="#A8BABE" stop-opacity="0.5"/>
<stop offset="1" stop-color="#A8BABE" stop-opacity="0"/>
</linearGradient>
<radialGradient id="paint8_radial_677_34124" cx="0" cy="0" r="1" gradientUnits="userSpaceOnUse" gradientTransform="translate(28.5131 16.1198) scale(46.7419)">
<stop offset="0.3" stop-color="#8698A2"/>
<stop offset="0.61" stop-color="#72828B"/>
<stop offset="0.81" stop-color="#5E6B75"/>
<stop offset="0.97" stop-color="#80919F"/>
<stop offset="1" stop-color="#A1B7CA"/>
</radialGradient>
<radialGradient id="paint9_radial_677_34124" cx="0" cy="0" r="1" gradientUnits="userSpaceOnUse" gradientTransform="translate(42.1485 41.1168) scale(22.9219 22.9219)">
<stop offset="0.79" stop-color="#444B53"/>
<stop offset="0.9" stop-color="#444B53" stop-opacity="0.5"/>
<stop offset="1" stop-color="#444B53" stop-opacity="0"/>
</radialGradient>
<radialGradient id="paint10_radial_677_34124" cx="0" cy="0" r="1" gradientUnits="userSpaceOnUse" gradientTransform="translate(30.7875 34.8679) scale(23.8208)">
<stop offset="0.78" stop-color="#55616B" stop-opacity="0"/>
<stop offset="0.86" stop-color="#4D5B60" stop-opacity="0.5"/>
<stop offset="0.95" stop-color="#455456"/>
</radialGradient>
<radialGradient id="paint11_radial_677_34124" cx="0" cy="0" r="1" gradientUnits="userSpaceOnUse" gradientTransform="translate(46.4053 41.3824) scale(7.42525)">
<stop offset="0.69" stop-color="#8B99A4"/>
<stop offset="0.82" stop-color="#7F98B2"/>
<stop offset="0.94" stop-color="#7397C1"/>
</radialGradient>
<radialGradient id="paint12_radial_677_34124" cx="0" cy="0" r="1" gradientUnits="userSpaceOnUse" gradientTransform="translate(43.9906 40.9565) scale(6.07537)">
<stop offset="0.57" stop-color="white"/>
<stop offset="0.71" stop-color="white" stop-opacity="0.5"/>
<stop offset="0.87" stop-color="white" stop-opacity="0"/>
</radialGradient>
<linearGradient id="paint13_linear_677_34124" x1="35.5553" y1="11.5568" x2="35.5048" y2="8.61194" gradientUnits="userSpaceOnUse">
<stop offset="0.21" stop-color="#514446"/>
<stop offset="0.4" stop-color="#6D6F7A"/>
<stop offset="0.68" stop-color="#899AAF"/>
</linearGradient>
<linearGradient id="paint14_linear_677_34124" x1="28.4481" y1="12.4078" x2="28.4481" y2="7.9477" gradientUnits="userSpaceOnUse">
<stop offset="0.25" stop-color="#514446"/>
<stop offset="0.42" stop-color="#6D6F7A"/>
<stop offset="0.68" stop-color="#899AAF"/>
</linearGradient>
<linearGradient id="paint15_linear_677_34124" x1="28.3053" y1="10.5616" x2="28.3053" y2="9.18746" gradientUnits="userSpaceOnUse">
<stop stop-color="white" stop-opacity="0"/>
<stop offset="0.4" stop-color="white" stop-opacity="0.5"/>
<stop offset="1" stop-color="white"/>
</linearGradient>
<linearGradient id="paint16_linear_677_34124" x1="41.4371" y1="10.1346" x2="50.3665" y2="10.0976" gradientUnits="userSpaceOnUse">
<stop offset="0.08" stop-color="#BAC7C4"/>
<stop offset="0.14" stop-color="#AEAEA4"/>
<stop offset="0.2" stop-color="#A29584"/>
<stop offset="0.29" stop-color="#969D9C"/>
<stop offset="0.38" stop-color="#8AA5B4"/>
<stop offset="0.49" stop-color="#808E95"/>
<stop offset="0.67" stop-color="#767676"/>
<stop offset="0.77" stop-color="#8C867D"/>
<stop offset="0.93" stop-color="#A29584"/>
</linearGradient>
<linearGradient id="paint17_linear_677_34124" x1="44.8479" y1="11.8395" x2="44.8479" y2="7.69603" gradientUnits="userSpaceOnUse">
<stop stop-color="white" stop-opacity="0"/>
<stop offset="0.4" stop-color="white" stop-opacity="0.5"/>
<stop offset="1" stop-color="white"/>
</linearGradient>
<linearGradient id="paint18_linear_677_34124" x1="44.1354" y1="9.28295" x2="44.1354" y2="7.69135" gradientUnits="userSpaceOnUse">
<stop stop-color="white" stop-opacity="0"/>
<stop offset="0.4" stop-color="white" stop-opacity="0.5"/>
<stop offset="1" stop-color="white"/>
</linearGradient>
<linearGradient id="paint19_linear_677_34124" x1="56.2553" y1="11.5568" x2="56.2048" y2="8.61194" gradientUnits="userSpaceOnUse">
<stop offset="0.21" stop-color="#514446"/>
<stop offset="0.4" stop-color="#6D6F7A"/>
<stop offset="0.68" stop-color="#899AAF"/>
</linearGradient>
<linearGradient id="paint20_linear_677_34124" x1="63.0966" y1="12.4078" x2="63.1707" y2="7.99869" gradientUnits="userSpaceOnUse">
<stop offset="0.22" stop-color="#514446"/>
<stop offset="0.4" stop-color="#6D6F7A"/>
<stop offset="0.68" stop-color="#899AAF"/>
</linearGradient>
<linearGradient id="paint21_linear_677_34124" x1="62.9536" y1="10.5616" x2="62.9536" y2="9.18746" gradientUnits="userSpaceOnUse">
<stop stop-color="white" stop-opacity="0"/>
<stop offset="0.4" stop-color="white" stop-opacity="0.5"/>
<stop offset="1" stop-color="white"/>
</linearGradient>
</defs>
</svg>
