<svg width="73" height="72" viewBox="0 0 73 72" fill="none" xmlns="http://www.w3.org/2000/svg">
<mask id="mask0_817_45375" style="mask-type:luminance" maskUnits="userSpaceOnUse" x="0" y="0" width="73" height="72">
<path d="M72.5 0H0.5V72H72.5V0Z" fill="white"/>
</mask>
<g mask="url(#mask0_817_45375)">
<path d="M46.0259 21.2909C45.5253 18.5243 46.0247 13.5132 48.6082 13.1973C49.814 13.0561 54.4594 14.4958 55.5896 15.7221C57.7315 18.0061 59.505 19.2018 52.4938 29.7113" fill="url(#paint0_linear_817_45375)"/>
<path d="M47.7551 23.0252C48.2458 19.7362 49.5482 17.7308 50.9393 17.2885C51.9748 16.9464 52.8393 17.448 53.0803 17.6767C53.9843 18.584 54.4515 22.0718 51.009 27.0818C49.7281 24.7887 47.7551 23.0252 47.7551 23.0252Z" fill="url(#paint1_linear_817_45375)"/>
<g opacity="0.4">
<path d="M52.273 24.7295C51.7414 25.7534 51.2068 26.6848 50.7404 27.2204C50.3246 26.0962 49.8925 25.5853 49.1508 24.7975C53.3102 21.6311 53.0928 17.6079 53.0928 17.6079C53.7516 18.5559 54.323 20.8526 52.273 24.7295Z" fill="#875B64"/>
</g>
<path d="M47.7551 23.0252C48.2458 19.7362 49.5482 17.7308 50.9393 17.2885C51.9748 16.9464 52.8393 17.448 53.0803 17.6767C53.9843 18.584 54.4515 22.0718 51.009 27.0818C49.7281 24.7887 47.7551 23.0252 47.7551 23.0252Z" stroke="#8F616C" stroke-width="1.00799" stroke-linecap="round" stroke-linejoin="round"/>
<path d="M46.0259 21.2909C45.5253 18.5243 46.0247 13.5132 48.6082 13.1973C49.814 13.0561 54.4594 14.4958 55.5896 15.7221C57.7315 18.0061 59.5111 19.2039 52.4938 29.7113" stroke="#7A686C" stroke-width="1.00799" stroke-linecap="round" stroke-linejoin="round"/>
<g opacity="0.01">
<path d="M25.9061 21.9007C26.8924 20.7023 26.3457 19.557 21.6689 21.4022C21.1301 21.6167 20.3466 22.0449 19.9033 22.3472C18.0008 23.6431 14.2101 26.5972 17.7228 26.715" fill="url(#paint2_linear_817_45375)"/>
<path d="M23.7392 23.6786C24.2051 23.0319 24.4833 22.1387 21.5396 23.1608C21.3674 23.2206 21.0106 23.4036 20.8743 23.5026C20.004 24.1342 17.7374 25.907 19.9677 25.866C21.6589 24.8333 23.7392 23.6786 23.7392 23.6786Z" fill="url(#paint3_linear_817_45375)"/>
<path d="M23.7392 23.6786C24.2051 23.0319 24.4833 22.1387 21.5396 23.1608C21.3674 23.2206 21.0106 23.4036 20.8743 23.5026C20.004 24.1342 17.7374 25.907 19.9677 25.866C21.6589 24.8333 23.7392 23.6786 23.7392 23.6786Z" stroke="#8F616C" stroke-width="1.00798" stroke-linecap="round" stroke-linejoin="round"/>
<g opacity="0.4">
<path d="M23.797 34.7076C24.6143 34.049 24.893 33.8664 25.2634 33.3059C25.0363 32.5297 25.019 30.3161 25.019 30.3161C23.1016 31.5255 22.6469 32.5227 23.797 34.7076Z" fill="#875B64"/>
</g>
<path d="M25.9065 21.9005C26.8939 20.7144 26.3398 19.5627 21.6693 21.4021C21.1302 21.6159 20.3465 22.0442 19.9037 22.3471C18.0026 23.646 14.2014 26.5997 17.7232 26.7148" stroke="#7A686C" stroke-width="1.00798" stroke-linecap="round" stroke-linejoin="round"/>
</g>
<path d="M54.0166 30.759C52.7046 29.9189 52.2722 28.9549 51.8199 28.0776C48.0174 20.6694 42.4549 17.8498 33.847 18.7734C25.1323 19.7084 20.9219 23.5532 18.6065 30.746C18.2601 31.694 17.9799 32.72 16.7671 33.8082C10.3854 39.611 10.0165 47.5892 12.586 53.3105C15.4696 59.7305 22.3274 62.8039 31.4103 61.6099C34.4268 61.2157 36.0977 61.9228 38.324 61.6693C40.5694 61.4111 41.9363 60.4532 44.9363 60.1207C54.772 59.0751 60.0734 54.1245 61.2626 47.2705C62.2471 41.5144 60.1773 34.7936 54.0166 30.759Z" fill="url(#paint4_radial_817_45375)"/>
<path d="M54.0166 30.759C52.7046 29.9189 52.2722 28.9549 51.8199 28.0776C48.0174 20.6694 42.455 17.8498 33.847 18.7734C25.1323 19.7084 20.9219 23.5532 18.6065 30.746C18.2601 31.694 17.9799 32.72 16.7671 33.8082C10.3854 39.6109 10.0165 47.5892 12.586 53.3105C15.4696 59.7305 22.3274 62.8039 31.4103 61.6099C34.4268 61.2157 36.0977 61.9228 38.324 61.6693C40.5694 61.4111 41.9363 60.4532 44.9363 60.1207C54.772 59.0751 60.0734 54.1245 61.2626 47.2705C62.2471 41.5144 60.1773 34.7936 54.0166 30.759Z" stroke="#6A5C5F" stroke-width="1.00798" stroke-linecap="round" stroke-linejoin="round"/>
<path d="M61.2625 47.2707C60.8856 49.5476 59.3337 53.3904 57.2928 55.1014C56.1076 52.3719 53.95 51.194 49.7221 50.9915C45.5035 50.7902 42.8606 49.5802 40.8249 46.6354C38.8209 43.7263 38.9292 33.5367 36.1334 33.8135C33.3377 34.0903 34.8911 42.3186 34.2208 46.9599C33.8193 49.7397 31.6548 51.6268 27.7048 52.7648C23.7505 53.9042 20.5629 54.9914 18.5603 59.5306C15.2535 57.9158 13.6752 55.5235 12.5859 53.3107C9.82887 47.7099 10.2943 39.383 16.7671 33.8085C18.0029 32.7462 18.2504 31.687 18.6065 30.7462C20.9918 23.5799 24.9994 19.7208 33.847 18.7736C42.8346 17.8116 47.9089 20.5964 51.8199 28.0778C52.276 28.9521 52.699 29.9264 54.0166 30.7592C60.0967 34.6665 62.2166 41.508 61.2625 47.2707Z" fill="url(#paint5_radial_817_45375)"/>
<g opacity="0.5">
<path d="M49.5935 26.5966C50.2343 31.1746 44.2043 34.971 35.9859 36.151C27.7675 37.331 20.4727 35.4478 19.8319 30.8697C19.1911 26.2917 23.4629 20.3243 33.3493 19.1291C41.5868 18.1332 48.9527 22.0185 49.5935 26.5966Z" fill="url(#paint6_radial_817_45375)"/>
</g>
<g opacity="0.3">
<path d="M54.8064 31.5126C53.4661 30.6384 52.4097 30.015 52.039 29.0647C48.8761 20.9601 43.1451 17.5769 33.8079 18.5823C24.4707 19.5878 19.5891 24.1152 18.149 32.6895C17.9803 33.6948 16.8898 34.1202 15.6722 35.1768C10.4465 39.6909 10.1155 46.5286 12.3064 52.4313C14.7641 59.0526 21.1659 62.4704 30.9746 61.1591C33.5808 60.8109 34.7532 62.3606 38.312 61.9756C41.8666 61.5914 42.7745 59.8164 45.3947 59.6018C55.2564 58.795 60.8015 54.0852 61.8284 47.1028C62.7458 40.8655 59.9904 34.8998 54.8064 31.5126ZM59.4139 46.9664C58.5036 53.1875 53.4783 57.7098 44.7143 58.4423C42.3854 58.6362 41.3375 60.0276 38.1625 60.371C34.9805 60.7155 33.9252 59.5165 31.6084 59.8272C22.8874 60.9933 16.443 57.7933 14.2576 51.9065C12.3092 46.6586 12.9258 40.4842 17.5703 36.4699C18.6489 35.5392 19.7491 34.5502 19.9556 33.6673C21.6942 26.2423 25.8159 22.5437 34.127 21.6488C42.4344 20.7544 46.6677 23.8645 50.4517 30.6122C51.0172 31.6159 51.8865 32.5295 53.1326 33.211C58.4995 36.1524 60.225 41.4258 59.4139 46.9664Z" fill="url(#paint7_linear_817_45375)"/>
</g>
<g opacity="0.3">
<path d="M61.3957 46.929C60.3675 53.9256 55.2484 58.8096 45.3868 59.6164C42.7666 59.831 41.9538 61.615 38.4254 61.9941C34.897 62.3733 33.5983 60.8206 30.9922 61.1688C21.1835 62.48 14.7639 59.0525 12.3062 52.4313C11.2689 49.6381 10.6615 47.0035 11.0895 44.2107L11.1692 44.2417C11.71 49.256 13.9485 52.8374 18.0172 55.0089C19.5268 55.8153 21.3943 56.4192 23.5953 56.7886C27.2646 57.4045 31.9295 57.3807 37.9322 56.7343C44.2199 56.0573 48.8301 54.8374 52.1943 53.3238C54.1882 52.4267 55.7416 51.426 56.9542 50.3815C61.5898 46.388 60.8191 41.8038 60.681 39.7253C61.5411 41.9816 61.7798 44.3156 61.3957 46.929Z" fill="url(#paint8_linear_817_45375)"/>
</g>
<path d="M54.0166 30.759C52.7046 29.9189 52.2722 28.9549 51.8199 28.0776C48.0174 20.6694 42.455 17.8498 33.847 18.7734C25.1323 19.7084 20.9219 23.5532 18.6065 30.746C18.2601 31.694 17.9799 32.72 16.7671 33.8082C10.3854 39.6109 10.0165 47.5892 12.586 53.3105C15.4696 59.7305 22.3274 62.8039 31.4103 61.6099C34.4268 61.2157 36.0977 61.9228 38.324 61.6693C40.5694 61.4111 41.9363 60.4532 44.9363 60.1207C54.772 59.0751 60.0734 54.1245 61.2626 47.2705C62.2471 41.5144 60.1773 34.7936 54.0166 30.759Z" stroke="#6A5C5F" stroke-width="1.00798" stroke-linecap="round" stroke-linejoin="round"/>
<path d="M11.3587 49.3025C11.6079 50.7149 12.0278 52.0662 12.5867 53.3106C15.4703 59.7307 22.3281 62.8041 31.411 61.6101C34.4276 61.2159 36.0984 61.923 38.3248 61.6695C40.5701 61.4113 41.9371 60.4534 44.937 60.1209C54.7727 59.0753 60.0742 54.1247 61.2633 47.2707C61.5764 45.4403 61.5806 43.5125 61.2427 41.6045" stroke="#4C4445" stroke-width="1.00798" stroke-linecap="round" stroke-linejoin="round"/>
<path d="M18.986 59.9903C22.3075 61.663 26.5391 62.2502 31.4106 61.6098C34.4271 61.2157 36.098 61.9228 38.3244 61.6693C40.5697 61.4111 41.9367 60.4531 44.9366 60.1206C50.3044 59.55 54.3218 57.8164 57.0571 55.2449" stroke="#90777F" stroke-width="1.00798" stroke-linecap="round" stroke-linejoin="round"/>
<g opacity="0.7">
<path d="M29.6055 50.9384C26.7274 51.4006 23.9887 49.1855 23.4885 45.9909C22.9884 42.7964 24.9163 39.8318 27.7945 39.3696C30.6726 38.9074 33.4113 41.1226 33.9114 44.3171C34.4116 47.5117 32.4837 50.4762 29.6055 50.9384Z" fill="url(#paint9_radial_817_45375)"/>
</g>
<g opacity="0.1">
<path d="M32.5273 47.0281C32.3832 47.9543 30.6284 47.2447 28.091 47.5731C25.5535 47.9015 24.0624 49.2295 23.8181 48.1914C23.5739 47.1533 25.3097 44.8407 27.8472 44.5124C30.3847 44.1841 32.6715 46.1019 32.5273 47.0281Z" fill="black"/>
</g>
<g opacity="0.5">
<path d="M32.0249 46.5623C31.8621 47.3444 30.3932 46.9761 27.9444 47.2592C25.4956 47.5423 24.0879 48.5063 23.8803 47.6306C23.6726 46.755 25.3521 44.9908 27.8009 44.7077C30.2497 44.4246 32.1877 45.7802 32.0249 46.5623Z" fill="white"/>
</g>
<path d="M32.1078 46.2919C31.945 47.0739 30.3854 46.5747 27.9366 46.8578C25.4878 47.1409 24.0433 48.1905 23.8357 47.3148C23.628 46.4392 25.3443 44.5896 27.7931 44.3065C30.2419 44.0234 32.2706 45.5098 32.1078 46.2919Z" fill="black"/>
<g opacity="0.3">
<path d="M30.6058 47.0476C30.5194 47.4746 29.4197 47.0909 27.9893 47.2551C26.5589 47.4194 25.6587 48.3666 25.5458 47.888C25.433 47.4094 26.5457 46.3922 27.9761 46.228C29.4065 46.0638 30.6922 46.6206 30.6058 47.0476Z" fill="url(#paint10_radial_817_45375)"/>
</g>
<path d="M27.9087 45.5079C26.999 45.6159 26.5379 45.574 26.1893 45.6599C25.8111 45.7531 25.4789 45.7655 25.468 45.6576C25.4312 45.2903 26.6336 44.9191 27.8443 44.7792C29.0089 44.6445 30.236 44.7085 30.2196 45.1154C30.2145 45.2437 30.0482 45.3441 29.7092 45.3798C29.3108 45.4218 28.7693 45.4058 27.9087 45.5079Z" fill="url(#paint11_linear_817_45375)"/>
<g opacity="0.7">
<path d="M46.4924 49.4628C43.5994 49.8176 40.8667 46.864 40.3888 42.8661C39.9109 38.8681 41.8688 35.3394 44.7617 34.9846C47.6547 34.6299 50.3875 37.5834 50.8654 41.5814C51.3433 45.5794 49.3854 49.1081 46.4924 49.4628Z" fill="url(#paint12_radial_817_45375)"/>
</g>
<g opacity="0.1">
<path d="M49.0416 42.1693C49.3641 44.9147 48.3794 47.2593 46.8305 47.4477C45.2817 47.6361 43.7721 45.5992 43.442 42.8513C43.1119 40.1033 44.0985 37.6992 45.6473 37.5108C47.1962 37.3225 48.7191 39.4238 49.0416 42.1693Z" fill="black"/>
</g>
<g opacity="0.5">
<path d="M49.2621 44.0827C49.5844 46.8253 48.605 49.1769 47.0579 49.3644C45.5109 49.552 44.0032 47.508 43.6737 44.7633C43.3442 42.0186 44.3293 39.6252 45.8764 39.4376C47.4234 39.2501 48.9399 41.3401 49.2621 44.0827Z" fill="white"/>
</g>
<path d="M49.1711 43.1131C49.4933 45.8557 48.5122 48.2046 46.9652 48.3921C45.4181 48.5797 43.9096 46.5374 43.5801 43.7926C43.2507 41.0479 44.2365 38.6529 45.7836 38.4654C47.3306 38.2778 48.8488 40.3705 49.1711 43.1131Z" fill="black"/>
<g opacity="0.3">
<path d="M48.7 44.4344C48.9014 46.144 48.0732 47.634 46.8461 47.7832C45.6191 47.9324 44.4641 46.6903 44.2589 44.9795C44.0536 43.2687 44.8831 41.7512 46.1101 41.602C47.3372 41.4528 48.4987 42.7248 48.7 44.4344Z" fill="url(#paint13_radial_817_45375)"/>
</g>
<path d="M47.3582 40.7348C47.3753 41.0301 47.2263 41.2219 46.9903 41.3528C46.7537 41.4839 46.429 41.5498 46.1077 41.5871C45.7861 41.6192 45.4856 41.6256 45.2566 41.5534C45.0267 41.4812 44.8694 41.3298 44.8336 41.0439C44.7632 40.4589 45.3067 39.5802 45.9425 39.5019C46.5771 39.4237 47.305 40.1459 47.3582 40.7348Z" fill="url(#paint14_linear_817_45375)"/>
<g opacity="0.3">
<path d="M21.7754 44.3192C18.8718 43.0929 18.5572 36.4758 18.5572 36.4758C18.5572 36.4758 17.2599 44.6888 22.7533 50.9684C28.3727 57.3927 34.2137 55.7255 33.8916 49.8897C33.3371 39.9338 24.679 45.5455 21.7754 44.3192Z" fill="#453E43"/>
</g>
<g opacity="0.3">
<path d="M42.6655 22.2219C42.8784 21.5161 54.3056 20.6779 54.3056 20.6779C54.3056 20.6779 53.8483 25.4632 49.744 29.9142C47.1039 32.7926 44.1644 32.176 42.8579 28.5422C41.9675 26.0589 42.4179 23.0694 42.6655 22.2219Z" fill="#453E43"/>
</g>
<path d="M58.9419 60.0605C58.9419 60.0605 54.7508 54.3515 45.9414 54.3936" stroke="#A09096" stroke-width="0.50399" stroke-linecap="round" stroke-linejoin="round"/>
<path d="M59.3316 63.4475C59.3316 63.4475 54.6103 55.9347 45.8916 55.5889" stroke="#A09096" stroke-width="0.50399" stroke-linecap="round" stroke-linejoin="round"/>
<path d="M57.5793 64.9246C57.5793 64.9246 53.573 57.7852 46.3672 57.0796" stroke="#A09096" stroke-width="0.50399" stroke-linecap="round" stroke-linejoin="round"/>
<path d="M17.1101 64.6926C17.1101 64.6926 19.9682 58.1805 28.5614 56.2675" stroke="#A09096" stroke-width="0.503995" stroke-linecap="round" stroke-linejoin="round"/>
<path d="M17.4523 68.0841C17.4523 68.0841 20.4519 59.6874 28.8676 57.4226" stroke="#A09096" stroke-width="0.503995" stroke-linecap="round" stroke-linejoin="round"/>
<path d="M19.4778 69.1429C19.4778 69.1429 21.8696 61.268 28.724 58.9827" stroke="#A09096" stroke-width="0.503995" stroke-linecap="round" stroke-linejoin="round"/>
<path d="M39.9629 59.1439L40.1041 61.1914L35.0942 61.7308L34.8243 59.6897L37.2742 58.0702L39.9629 59.1439Z" fill="url(#paint15_linear_817_45375)"/>
<path d="M34.6592 59.7075L34.872 61.0818C34.9106 61.4493 35.2818 61.7106 35.7011 61.6655L39.4972 61.2567C39.9164 61.2116 40.2251 60.877 40.1865 60.5095L40.128 59.1261" stroke="#B5A7A8" stroke-width="1.00798" stroke-linecap="round" stroke-linejoin="round"/>
<g opacity="0.5">
<path d="M37.2734 58.064L37.418 59.441" stroke="#988586" stroke-width="1.00798" stroke-linecap="round" stroke-linejoin="round"/>
</g>
<g opacity="0.5">
<path d="M36.7476 53.0174C34.5324 53.2559 32.8576 54.031 33.0215 55.5917C33.191 57.2067 36.1568 59.068 37.369 58.9374C38.5812 58.8069 41.1336 56.3433 40.9641 54.7283C40.8003 53.1676 38.9627 52.7788 36.7476 53.0174Z" fill="white"/>
</g>
<path d="M30.9088 60.7917C30.9088 60.7917 34.3334 60.4404 37.3615 58.1625C37.3615 58.1625 40.4665 59.765 43.8205 59.3677" stroke="#917880" stroke-width="1.00798" stroke-linecap="round" stroke-linejoin="round"/>
<g opacity="0.1">
<path d="M36.6182 51.7827C34.403 52.0212 32.5219 52.6037 32.6914 54.2193C32.8669 55.8911 36.0574 58.1187 37.2696 57.9882C38.4818 57.8576 41.1384 55.0005 40.963 53.3286C40.7934 51.713 38.8333 51.5442 36.6182 51.7827Z" fill="black"/>
</g>
<path d="M36.7473 53.0172C34.7732 53.2297 33.0897 53.6826 33.2309 55.0275C33.377 56.4192 36.2046 58.2551 37.285 58.1388C37.8198 58.0812 38.6741 57.4647 39.3826 56.6879C40.1052 55.8956 40.6763 54.9365 40.6025 54.2338C40.4614 52.8889 38.7215 52.8046 36.7473 53.0172Z" fill="url(#paint16_linear_817_45375)"/>
<g opacity="0.6">
<path d="M36.9721 54.7178C35.8014 54.8501 35.0092 55.0602 34.5014 55.1343C33.9694 55.212 33.5868 55.0842 33.5863 54.779C33.5851 53.9763 35.2596 53.4182 36.8181 53.2504C38.3171 53.089 40.1879 53.148 40.2041 54.0615C40.2092 54.3497 39.8478 54.572 39.4112 54.6111C38.898 54.6572 38.0796 54.5925 36.9721 54.7178Z" fill="url(#paint17_linear_817_45375)"/>
</g>
<path d="M36.7473 53.0172C34.7732 53.2297 33.0897 53.6826 33.2309 55.0275C33.377 56.4192 36.2046 58.2551 37.285 58.1388C37.8077 58.0825 38.6355 57.4922 39.3343 56.7402C40.0795 55.9381 40.6779 54.952 40.6025 54.2338C40.4614 52.8889 38.7215 52.8046 36.7473 53.0172Z" stroke="#AE6377" stroke-width="1.00798" stroke-linecap="round" stroke-linejoin="round"/>
<path d="M33.8672 56.2256C34.7993 57.2806 36.502 58.2232 37.2855 58.1388C37.7557 58.0882 38.4729 57.6053 39.1208 56.9614C39.5427 56.5423 39.9353 56.0547 40.2113 55.5737" stroke="#7B2E47" stroke-width="1.00798" stroke-linecap="round" stroke-linejoin="round"/>
<path d="M35.5892 57.5852C34.9828 57.2411 34.3197 56.7226 33.8672 56.2256C33.8672 56.2256 35.1845 56.1521 35.5892 57.5852Z" stroke="black" stroke-width="1.00798" stroke-linecap="round" stroke-linejoin="round"/>
<path d="M40.2108 55.5738C39.8864 56.129 39.3858 56.7289 38.8894 57.1815C38.8894 57.1815 38.8749 55.9047 40.2108 55.5738Z" stroke="black" stroke-width="1.00798" stroke-linecap="round" stroke-linejoin="round"/>
<mask id="mask1_817_45375" style="mask-type:luminance" maskUnits="userSpaceOnUse" x="42" y="13" width="13" height="14">
<path d="M54.6709 20.0728C52.3091 24.4378 49.8574 25.9948 46.4685 26.9031C45.6965 27.0925 44.7266 26.9511 44.1804 26.6993C42.6705 26.0085 41.4929 19.5718 43.7099 15.2686C44.8935 12.9034 49.4745 12.2987 53.5351 14.4638" fill="url(#paint18_linear_817_45375)"/>
</mask>
<g mask="url(#mask1_817_45375)">
<path d="M54.6709 20.0728C52.3091 24.4378 49.8574 25.9948 46.4685 26.9031C45.6965 27.0925 44.7266 26.9511 44.1804 26.6993C42.6705 26.0085 41.4929 19.5718 43.7099 15.2686C44.8935 12.9034 49.4745 12.2987 53.5351 14.4638" fill="url(#paint19_linear_817_45375)"/>
</g>
<path d="M54.6709 20.0728C52.3091 24.4378 49.8574 25.9948 46.4685 26.9031C45.6965 27.0925 44.7266 26.9511 44.1804 26.6993C42.6705 26.0085 41.4929 19.5718 43.7099 15.2686C44.8935 12.9034 49.4745 12.2987 53.5351 14.4638" stroke="#7A686C" stroke-width="1.00798" stroke-linecap="round" stroke-linejoin="round"/>
<mask id="mask2_817_45375" style="mask-type:luminance" maskUnits="userSpaceOnUse" x="18" y="26" width="16" height="27">
<path d="M18.872 34.5561C17.6254 44.8881 23.4729 51.2668 30.9671 52.7939C31.7937 52.9623 32.6775 52.5067 32.9817 51.7551C33.7487 49.8593 33.5061 44.8505 31.2328 38.5046C29.6274 34.0236 28.9275 32.2763 25.3747 26.9782" fill="url(#paint20_linear_817_45375)"/>
</mask>
<g mask="url(#mask2_817_45375)">
<path d="M18.872 34.5561C17.6254 44.8881 23.4729 51.2668 30.9671 52.7939C31.7937 52.9623 32.6775 52.5067 32.9817 51.7551C33.7487 49.8593 33.5061 44.8505 31.2328 38.5046C29.6274 34.0236 28.9275 32.2763 25.3747 26.9782" fill="url(#paint21_linear_817_45375)"/>
</g>
<path d="M18.872 34.5561C17.6254 44.8881 23.4729 51.2668 30.9671 52.7939C31.7937 52.9623 32.6775 52.5067 32.9817 51.7551C33.7487 49.8593 33.5061 44.8505 31.2328 38.5046C29.6274 34.0236 28.9275 32.2763 25.3747 26.9782" stroke="#7A686C" stroke-width="1.00799" stroke-linecap="round" stroke-linejoin="round"/>
</g>
<defs>
<linearGradient id="paint0_linear_817_45375" x1="55.09" y1="16.735" x2="53.4201" y2="23.4719" gradientUnits="userSpaceOnUse">
<stop offset="0.21" stop-color="#E4D5D6"/>
<stop offset="0.71" stop-color="#CAB9B9"/>
<stop offset="1" stop-color="#B09C9D"/>
</linearGradient>
<linearGradient id="paint1_linear_817_45375" x1="55.4617" y1="10.4877" x2="49.7019" y2="23.9614" gradientUnits="userSpaceOnUse">
<stop offset="0.28" stop-color="#EFCAC8"/>
<stop offset="0.56" stop-color="#D3A1A4"/>
<stop offset="0.96" stop-color="#B87880"/>
</linearGradient>
<linearGradient id="paint2_linear_817_45375" x1="18.2944" y1="13.0265" x2="25.6746" y2="29.5118" gradientUnits="userSpaceOnUse">
<stop offset="0.21" stop-color="#E4D5D6"/>
<stop offset="0.71" stop-color="#CAB9B9"/>
<stop offset="1" stop-color="#B09C9D"/>
</linearGradient>
<linearGradient id="paint3_linear_817_45375" x1="18.3614" y1="9.69757" x2="22.2214" y2="24.5821" gradientUnits="userSpaceOnUse">
<stop offset="0.28" stop-color="#EFCAC8"/>
<stop offset="0.56" stop-color="#D3A1A4"/>
<stop offset="0.96" stop-color="#B87880"/>
</linearGradient>
<radialGradient id="paint4_radial_817_45375" cx="0" cy="0" r="1" gradientUnits="userSpaceOnUse" gradientTransform="translate(35.9835 40.5074) rotate(-6.14588) scale(23.7161 24.0132)">
<stop offset="0.21" stop-color="white"/>
<stop offset="0.71" stop-color="#E2D9DB"/>
<stop offset="1" stop-color="#C5B3B7"/>
</radialGradient>
<radialGradient id="paint5_radial_817_45375" cx="0" cy="0" r="1" gradientUnits="userSpaceOnUse" gradientTransform="translate(35.6393 37.2292) rotate(-6.14588) scale(22.2359 22.5145)">
<stop offset="0.21" stop-color="#D8C9CA"/>
<stop offset="0.71" stop-color="#B5A7A8"/>
<stop offset="1" stop-color="#918586"/>
</radialGradient>
<radialGradient id="paint6_radial_817_45375" cx="0" cy="0" r="1" gradientUnits="userSpaceOnUse" gradientTransform="translate(34.6845 28.7876) rotate(-8.17073) scale(14.5778 8.11646)">
<stop offset="0.21" stop-color="white"/>
<stop offset="0.65" stop-color="white" stop-opacity="0.5"/>
<stop offset="1" stop-color="white" stop-opacity="0"/>
</radialGradient>
<linearGradient id="paint7_linear_817_45375" x1="33.9587" y1="21.2155" x2="37.2451" y2="51.7358" gradientUnits="userSpaceOnUse">
<stop offset="0.21" stop-color="white"/>
<stop offset="0.6" stop-color="white" stop-opacity="0.6"/>
<stop offset="1" stop-color="white" stop-opacity="0.2"/>
</linearGradient>
<linearGradient id="paint8_linear_817_45375" x1="11.9154" y1="54.7032" x2="62.4832" y2="49.3951" gradientUnits="userSpaceOnUse">
<stop stop-color="#453E43"/>
<stop offset="0.23" stop-color="#7A676B" stop-opacity="0.6"/>
<stop offset="0.49" stop-color="#AF8F93" stop-opacity="0.2"/>
<stop offset="0.77" stop-color="#7A676B" stop-opacity="0.6"/>
<stop offset="1" stop-color="#453E43"/>
</linearGradient>
<radialGradient id="paint9_radial_817_45375" cx="0" cy="0" r="1" gradientUnits="userSpaceOnUse" gradientTransform="translate(28.7019 45.1594) rotate(-9.12313) scale(5.11731 5.67631)">
<stop offset="0.07" stop-color="#6A5C5F"/>
<stop offset="0.61" stop-color="#6A5C5F" stop-opacity="0.5"/>
<stop offset="1" stop-color="#6A5C5F" stop-opacity="0"/>
</radialGradient>
<radialGradient id="paint10_radial_817_45375" cx="0" cy="0" r="1" gradientUnits="userSpaceOnUse" gradientTransform="translate(28.2019 49.1302) rotate(-9.12313) scale(2.4769 3.25593)">
<stop stop-color="white"/>
<stop offset="0.61" stop-color="white" stop-opacity="0.5"/>
<stop offset="1" stop-color="white" stop-opacity="0"/>
</radialGradient>
<linearGradient id="paint11_linear_817_45375" x1="27.3574" y1="44.059" x2="27.7138" y2="46.2781" gradientUnits="userSpaceOnUse">
<stop stop-color="white"/>
<stop offset="0.32" stop-color="white" stop-opacity="0.5"/>
<stop offset="1" stop-color="white" stop-opacity="0"/>
</linearGradient>
<radialGradient id="paint12_radial_817_45375" cx="0" cy="0" r="1" gradientUnits="userSpaceOnUse" gradientTransform="translate(45.6289 42.2305) rotate(-6.99073) scale(5.11665 7.06835)">
<stop offset="0.07" stop-color="#6A5C5F"/>
<stop offset="0.61" stop-color="#6A5C5F" stop-opacity="0.5"/>
<stop offset="1" stop-color="#6A5C5F" stop-opacity="0"/>
</radialGradient>
<radialGradient id="paint13_radial_817_45375" cx="0" cy="0" r="1" gradientUnits="userSpaceOnUse" gradientTransform="translate(46.496 44.844) rotate(-6.99073) scale(2.47126 3.25217)">
<stop stop-color="white"/>
<stop offset="0.61" stop-color="white" stop-opacity="0.5"/>
<stop offset="1" stop-color="white" stop-opacity="0"/>
</radialGradient>
<linearGradient id="paint14_linear_817_45375" x1="45.8568" y1="39.7501" x2="46.1304" y2="41.9812" gradientUnits="userSpaceOnUse">
<stop stop-color="white"/>
<stop offset="0.32" stop-color="white" stop-opacity="0.5"/>
<stop offset="1" stop-color="white" stop-opacity="0"/>
</linearGradient>
<linearGradient id="paint15_linear_817_45375" x1="37.4885" y1="61.2641" x2="37.1957" y2="58.5456" gradientUnits="userSpaceOnUse">
<stop offset="0.21" stop-color="white"/>
<stop offset="0.71" stop-color="#E2D9DB"/>
<stop offset="1" stop-color="#C5B3B7"/>
</linearGradient>
<linearGradient id="paint16_linear_817_45375" x1="36.665" y1="53.4293" x2="37.1427" y2="57.8657" gradientUnits="userSpaceOnUse">
<stop stop-color="#FFA0AE"/>
<stop offset="0.13" stop-color="#FFADBA"/>
<stop offset="0.27" stop-color="#FFBBC6"/>
<stop offset="0.42" stop-color="#D48496"/>
<stop offset="0.91" stop-color="#A94C66"/>
</linearGradient>
<linearGradient id="paint17_linear_817_45375" x1="36.7902" y1="53.4164" x2="36.9736" y2="55.1195" gradientUnits="userSpaceOnUse">
<stop stop-color="white"/>
<stop offset="0.41" stop-color="white" stop-opacity="0.5"/>
<stop offset="1" stop-color="white" stop-opacity="0"/>
</linearGradient>
<linearGradient id="paint18_linear_817_45375" x1="52.102" y1="22.2683" x2="54.385" y2="18.1522" gradientUnits="userSpaceOnUse">
<stop stop-color="white"/>
<stop offset="0.63" stop-color="white"/>
<stop offset="1" stop-color="white"/>
</linearGradient>
<linearGradient id="paint19_linear_817_45375" x1="52.102" y1="22.2683" x2="54.385" y2="18.1522" gradientUnits="userSpaceOnUse">
<stop stop-color="#C0B0B1"/>
<stop offset="0.63" stop-color="#D4C4C5"/>
<stop offset="1" stop-color="#E8D8D9"/>
</linearGradient>
<linearGradient id="paint20_linear_817_45375" x1="43.1752" y1="48.2942" x2="21.5546" y2="33.7027" gradientUnits="userSpaceOnUse">
<stop offset="0.21" stop-color="white"/>
<stop offset="0.62" stop-color="white"/>
<stop offset="0.86" stop-color="white"/>
<stop offset="0.93" stop-color="white" stop-opacity="0.5"/>
<stop offset="1" stop-color="white" stop-opacity="0"/>
</linearGradient>
<linearGradient id="paint21_linear_817_45375" x1="43.1752" y1="48.2942" x2="21.5546" y2="33.7027" gradientUnits="userSpaceOnUse">
<stop offset="0.21" stop-color="#E4D5D6"/>
<stop offset="0.71" stop-color="#D1C3C4"/>
<stop offset="1" stop-color="#BEB1B2"/>
</linearGradient>
</defs>
</svg>
