<svg width="16" height="16" viewBox="0 0 16 16" fill="none" xmlns="http://www.w3.org/2000/svg">
<path d="M7.00016 1.33518C6.55013 1.34128 6.27996 1.36733 6.06151 1.47864C5.81063 1.60647 5.60665 1.81044 5.47882 2.06133C5.36751 2.27978 5.34146 2.54995 5.33536 2.99998M13.0002 1.33518C13.4502 1.34128 13.7204 1.36733 13.9388 1.47864C14.1897 1.60647 14.3937 1.81044 14.5215 2.06133C14.6328 2.27978 14.6589 2.54994 14.665 2.99997M14.665 8.99997C14.6589 9.45001 14.6328 9.72018 14.5215 9.93863C14.3937 10.1895 14.1897 10.3935 13.9388 10.5213C13.7204 10.6326 13.4502 10.6587 13.0002 10.6648M14.6668 5.33331V6.66664M9.33353 1.33331H10.6668M3.46683 14.6666H8.5335C9.28023 14.6666 9.6536 14.6666 9.93882 14.5213C10.1897 14.3935 10.3937 14.1895 10.5215 13.9386C10.6668 13.6534 10.6668 13.28 10.6668 12.5333V7.46665C10.6668 6.71991 10.6668 6.34654 10.5215 6.06133C10.3937 5.81044 10.1897 5.60647 9.93882 5.47864C9.6536 5.33331 9.28023 5.33331 8.5335 5.33331H3.46683C2.72009 5.33331 2.34672 5.33331 2.06151 5.47864C1.81063 5.60647 1.60665 5.81044 1.47882 6.06133C1.3335 6.34654 1.3335 6.71991 1.3335 7.46665V12.5333C1.3335 13.28 1.3335 13.6534 1.47882 13.9386C1.60665 14.1895 1.81063 14.3935 2.06151 14.5213C2.34672 14.6666 2.72009 14.6666 3.46683 14.6666Z" stroke="#D444F1" stroke-width="1.33333" stroke-linecap="round" stroke-linejoin="round"/>
</svg>
