<svg width="177" height="48" viewBox="0 0 177 48" fill="none" xmlns="http://www.w3.org/2000/svg">
<path d="M175.562 25.7837C175.562 26.2957 175.53 26.829 175.466 27.3837H163.082C163.167 28.493 163.519 29.3464 164.138 29.9437C164.778 30.5197 165.556 30.8077 166.474 30.8077C167.839 30.8077 168.788 30.2317 169.322 29.0797H175.146C174.847 30.253 174.303 31.309 173.514 32.2477C172.746 33.1864 171.775 33.9224 170.602 34.4557C169.428 34.989 168.116 35.2557 166.666 35.2557C164.916 35.2557 163.359 34.8824 161.994 34.1357C160.628 33.389 159.562 32.3224 158.794 30.9357C158.026 29.549 157.642 27.9277 157.642 26.0717C157.642 24.2157 158.015 22.5944 158.762 21.2077C159.53 19.821 160.596 18.7544 161.962 18.0077C163.327 17.261 164.895 16.8877 166.666 16.8877C168.394 16.8877 169.93 17.2504 171.274 17.9757C172.618 18.701 173.663 19.7357 174.41 21.0797C175.178 22.4237 175.562 23.9917 175.562 25.7837ZM169.962 24.3437C169.962 23.405 169.642 22.6584 169.002 22.1037C168.362 21.549 167.562 21.2717 166.602 21.2717C165.684 21.2717 164.906 21.5384 164.266 22.0717C163.647 22.605 163.263 23.3624 163.114 24.3437H169.962Z" fill="white"/>
<path d="M155.172 11.3198V34.9998H149.7V11.3198H155.172Z" fill="white"/>
<path d="M147.06 30.36V35H144.276C142.292 35 140.745 34.52 139.636 33.56C138.527 32.5787 137.972 30.9893 137.972 28.792V21.688H135.796V17.144H137.972V12.792H143.444V17.144H147.028V21.688H143.444V28.856C143.444 29.3893 143.572 29.7733 143.828 30.008C144.084 30.2427 144.511 30.36 145.108 30.36H147.06Z" fill="white"/>
<path d="M134.468 30.36V35H131.684C129.7 35 128.153 34.52 127.044 33.56C125.935 32.5787 125.38 30.9893 125.38 28.792V21.688H123.204V17.144H125.38V12.792H130.852V17.144H134.436V21.688H130.852V28.856C130.852 29.3893 130.98 29.7733 131.236 30.008C131.492 30.2427 131.919 30.36 132.516 30.36H134.468Z" fill="white"/>
<path d="M102.117 26.0397C102.117 24.205 102.459 22.5944 103.141 21.2077C103.845 19.821 104.795 18.7544 105.989 18.0077C107.184 17.261 108.517 16.8877 109.989 16.8877C111.248 16.8877 112.347 17.1437 113.285 17.6557C114.245 18.1677 114.981 18.8397 115.493 19.6717V17.1437H120.965V34.9997H115.493V32.4717C114.96 33.3037 114.213 33.9757 113.253 34.4877C112.315 34.9997 111.216 35.2557 109.957 35.2557C108.507 35.2557 107.184 34.8824 105.989 34.1357C104.795 33.3677 103.845 32.2904 103.141 30.9037C102.459 29.4957 102.117 27.8744 102.117 26.0397ZM115.493 26.0717C115.493 24.7064 115.109 23.629 114.341 22.8397C113.595 22.0504 112.677 21.6557 111.589 21.6557C110.501 21.6557 109.573 22.0504 108.805 22.8397C108.059 23.6077 107.685 24.6744 107.685 26.0397C107.685 27.405 108.059 28.493 108.805 29.3037C109.573 30.093 110.501 30.4877 111.589 30.4877C112.677 30.4877 113.595 30.093 114.341 29.3037C115.109 28.5144 115.493 27.437 115.493 26.0717Z" fill="white"/>
<path d="M96.1195 23.4796C97.4209 23.757 98.4662 24.4076 99.2555 25.4316C100.045 26.4343 100.44 27.5863 100.44 28.8876C100.44 30.765 99.7782 32.2583 98.4555 33.3676C97.1542 34.4556 95.3302 34.9996 92.9835 34.9996H82.5195V12.5356H92.6315C94.9142 12.5356 96.6955 13.0583 97.9755 14.1036C99.2769 15.149 99.9275 16.5676 99.9275 18.3596C99.9275 19.6823 99.5755 20.781 98.8715 21.6556C98.1889 22.5303 97.2715 23.1383 96.1195 23.4796ZM87.9915 21.6236H91.5755C92.4715 21.6236 93.1542 21.4316 93.6235 21.0476C94.1142 20.6423 94.3595 20.0556 94.3595 19.2876C94.3595 18.5196 94.1142 17.933 93.6235 17.5276C93.1542 17.1223 92.4715 16.9196 91.5755 16.9196H87.9915V21.6236ZM92.0235 30.5836C92.9409 30.5836 93.6449 30.381 94.1355 29.9756C94.6475 29.549 94.9035 28.941 94.9035 28.1516C94.9035 27.3623 94.6369 26.7436 94.1035 26.2956C93.5915 25.8476 92.8769 25.6236 91.9595 25.6236H87.9915V30.5836H92.0235Z" fill="white"/>
<path d="M41.1777 17.144V35H35.7057V32.568C35.1511 33.3574 34.3937 33.9974 33.4337 34.488C32.4951 34.9574 31.4497 35.192 30.2977 35.192C28.9324 35.192 27.7271 34.8934 26.6817 34.296C25.6364 33.6774 24.8257 32.792 24.2497 31.64C23.6737 30.488 23.3857 29.1334 23.3857 27.576V17.144H28.8257V26.84C28.8257 28.0347 29.1351 28.9627 29.7537 29.624C30.3724 30.2854 31.2044 30.616 32.2497 30.616C33.3164 30.616 34.1591 30.2854 34.7777 29.624C35.3964 28.9627 35.7057 28.0347 35.7057 26.84V17.144H41.1777Z" fill="white"/>
<path d="M16.4604 23.4801C17.7617 23.7575 18.807 24.4081 19.5964 25.4321C20.3857 26.4348 20.7804 27.5868 20.7804 28.8881C20.7804 30.7655 20.119 32.2588 18.7964 33.3681C17.495 34.4561 15.671 35.0001 13.3244 35.0001H2.86035V12.5361H12.9724C15.255 12.5361 17.0364 13.0588 18.3164 14.1041C19.6177 15.1495 20.2684 16.5681 20.2684 18.3601C20.2684 19.6828 19.9164 20.7815 19.2124 21.6561C18.5297 22.5308 17.6124 23.1388 16.4604 23.4801ZM8.33235 21.6241H11.9164C12.8124 21.6241 13.495 21.4321 13.9644 21.0481C14.455 20.6428 14.7004 20.0561 14.7004 19.2881C14.7004 18.5201 14.455 17.9335 13.9644 17.5281C13.495 17.1228 12.8124 16.9201 11.9164 16.9201H8.33235V21.6241ZM12.3644 30.5841C13.2817 30.5841 13.9857 30.3815 14.4764 29.9761C14.9884 29.5495 15.2444 28.9415 15.2444 28.1521C15.2444 27.3628 14.9777 26.7441 14.4444 26.2961C13.9324 25.8481 13.2177 25.6241 12.3004 25.6241H8.33235V30.5841H12.3644Z" fill="white"/>
<path d="M65.5001 35C65.5 25.55 62.5745 8 72.5 8C82.4255 8 73.5003 23.3 73.5003 35" stroke="#E478FA" stroke-width="5"/>
<path d="M50.5002 35C50.5002 25.55 40.5748 8 50.5001 8C60.4255 8 58.4999 23.3 58.4999 35" stroke="#E478FA" stroke-width="5"/>
</svg>
