<svg width="40" height="40" viewBox="0 0 40 40" fill="none" xmlns="http://www.w3.org/2000/svg">
<g clip-path="url(#clip0_334_4226)">
<mask id="mask0_334_4226" style="mask-type:luminance" maskUnits="userSpaceOnUse" x="0" y="0" width="40" height="40">
<path d="M40 0H0V40H40V0Z" fill="white"/>
</mask>
<g mask="url(#mask0_334_4226)">
<path d="M12.7493 6.50303C12.6154 5.89587 12 5.15677 11.0256 5.3318C10.191 5.48173 9.78648 6.31147 9.6877 6.5463C9.67622 6.57354 9.64024 6.57911 9.62105 6.55666C9.4557 6.36279 8.81881 5.69463 7.97793 5.80463C6.99638 5.93305 6.6339 6.82388 6.69019 7.44303C6.74647 8.06219 7.00109 8.73018 7.99001 9.67361C8.75233 10.4009 9.79727 11.1741 10.2361 11.4902C10.3513 11.5732 10.5116 11.5484 10.5963 11.4343C10.9186 11.0002 11.6803 9.94664 12.1864 9.02258C12.843 7.82385 12.8832 7.11019 12.7493 6.50303Z" fill="url(#paint0_linear_334_4226)"/>
<path d="M12.7493 6.50303C12.6154 5.89587 12 5.15677 11.0256 5.3318C10.191 5.48173 9.78648 6.31147 9.6877 6.5463C9.67622 6.57354 9.64024 6.57911 9.62105 6.55666C9.4557 6.36279 8.81881 5.69463 7.97793 5.80463C6.99638 5.93305 6.6339 6.82388 6.69019 7.44303C6.74647 8.06219 7.00109 8.73018 7.99001 9.67361C8.75233 10.4009 9.79727 11.1741 10.2361 11.4902C10.3513 11.5732 10.5116 11.5484 10.5963 11.4343C10.9186 11.0002 11.6803 9.94664 12.1864 9.02258C12.843 7.82385 12.8832 7.11019 12.7493 6.50303Z" fill="url(#paint1_radial_334_4226)"/>
<path d="M11.9156 6.9016C11.8502 6.47949 11.4379 5.9263 10.6929 6.07854C10.3647 6.13749 10.0935 6.45627 9.92119 6.71877C9.80793 6.89132 9.57036 6.93133 9.40792 6.80402C9.15116 6.60277 8.77566 6.37291 8.44033 6.41678C7.76455 6.50519 7.57538 7.12049 7.6369 7.57653C7.69438 8.00275 8.05549 8.63476 8.90022 9.33213C10.2035 10.4081 10.4032 10.2909 11.3505 8.84551C11.8558 8.07463 12.0078 7.3196 11.9156 6.9016Z" fill="url(#paint2_radial_334_4226)"/>
<path d="M12.7493 6.50303C12.6154 5.89587 12 5.15677 11.0256 5.3318C10.191 5.48173 9.78648 6.31147 9.6877 6.5463C9.67622 6.57354 9.64024 6.57911 9.62105 6.55666C9.4557 6.36279 8.81881 5.69463 7.97793 5.80463C6.99638 5.93305 6.6339 6.82388 6.69019 7.44303C6.74647 8.06219 7.00109 8.73018 7.99001 9.67361C8.75233 10.4009 9.79727 11.1741 10.2361 11.4902C10.3513 11.5732 10.5116 11.5484 10.5963 11.4343C10.9186 11.0002 11.6803 9.94664 12.1864 9.02258C12.843 7.82385 12.8832 7.11019 12.7493 6.50303Z" stroke="#9B0016" stroke-width="0.599708" stroke-linecap="round" stroke-linejoin="round"/>
<path d="M12.7493 6.50303C12.6154 5.89587 12 5.15677 11.0256 5.3318C10.191 5.48173 9.78648 6.31147 9.6877 6.5463C9.67622 6.57354 9.64024 6.57911 9.62105 6.55666C9.4557 6.36279 8.81881 5.69463 7.97793 5.80463C6.99638 5.93305 6.6339 6.82388 6.69019 7.44303C6.74647 8.06219 7.00109 8.73018 7.99001 9.67361C8.75233 10.4009 9.79727 11.1741 10.2361 11.4902C10.3513 11.5732 10.5116 11.5484 10.5963 11.4343C10.9186 11.0002 11.6803 9.94664 12.1864 9.02258C12.843 7.82385 12.8832 7.11019 12.7493 6.50303Z" stroke="#9B0016" stroke-width="0.428363" stroke-linecap="round" stroke-linejoin="round"/>
<path d="M26.6775 3.91792C26.7441 3.10306 26.2567 1.93601 24.9644 1.779C23.8574 1.64447 23.028 2.53086 22.8129 2.78773C22.788 2.81753 22.7406 2.81056 22.7252 2.77492C22.5924 2.46735 22.0506 1.38115 20.9513 1.19408C19.668 0.975727 18.8676 1.95492 18.6988 2.75488C18.53 3.55484 18.5917 4.49282 19.4694 6.06112C20.1461 7.27008 21.1602 8.64616 21.5894 9.21321C21.7021 9.36212 21.9131 9.39279 22.0636 9.28231C22.6369 8.86137 24.0015 7.83208 24.9952 6.86657C26.2841 5.61404 26.611 4.73278 26.6775 3.91792Z" fill="url(#paint3_linear_334_4226)"/>
<path d="M26.6775 3.91792C26.7441 3.10306 26.2567 1.93601 24.9644 1.779C23.8574 1.64447 23.028 2.53086 22.8129 2.78773C22.788 2.81753 22.7406 2.81056 22.7252 2.77492C22.5924 2.46735 22.0506 1.38115 20.9513 1.19408C19.668 0.975727 18.8676 1.95492 18.6988 2.75488C18.53 3.55484 18.5917 4.49282 19.4694 6.06112C20.1461 7.27008 21.1601 8.64616 21.5893 9.21321C21.702 9.36212 21.9131 9.39279 22.0636 9.28231C22.6369 8.86137 24.0015 7.83208 24.9952 6.86657C26.2841 5.61404 26.611 4.73278 26.6775 3.91792Z" fill="url(#paint4_radial_334_4226)"/>
<path d="M25.7599 4.02187C25.8486 3.41317 25.5156 2.47702 24.4257 2.37089C23.949 2.31295 23.4406 2.63682 23.0922 2.92514C22.8633 3.11465 22.5194 3.069 22.3498 2.82494C22.0817 2.4392 21.6621 1.96372 21.182 1.88199C20.2145 1.71731 19.6934 2.48408 19.5848 3.13783C19.4834 3.74889 19.7126 4.77156 20.5798 6.08935C21.9176 8.12241 22.242 8.04573 24.1584 6.45783C25.1805 5.61099 25.7097 4.63624 25.7599 4.02187Z" fill="url(#paint5_radial_334_4226)"/>
<path d="M26.6775 3.91792C26.7441 3.10306 26.2567 1.93601 24.9644 1.779C23.8574 1.64447 23.028 2.53086 22.8129 2.78773C22.788 2.81753 22.7406 2.81056 22.7252 2.77492C22.5924 2.46735 22.0506 1.38115 20.9513 1.19408C19.668 0.975727 18.8676 1.95492 18.6988 2.75488C18.53 3.55484 18.5917 4.49282 19.4694 6.06112C20.1461 7.27008 21.1602 8.64616 21.5894 9.21321C21.7021 9.36212 21.9131 9.39279 22.0636 9.28231C22.6369 8.86137 24.0015 7.83208 24.9952 6.86657C26.2841 5.61404 26.611 4.73278 26.6775 3.91792Z" stroke="#9B0016" stroke-width="0.609926" stroke-linecap="round" stroke-linejoin="round"/>
<path d="M26.6775 3.91792C26.7441 3.10306 26.2567 1.93601 24.9644 1.779C23.8574 1.64447 23.028 2.53086 22.8129 2.78773C22.788 2.81753 22.7406 2.81056 22.7252 2.77492C22.5924 2.46735 22.0506 1.38115 20.9513 1.19408C19.668 0.975727 18.8676 1.95492 18.6988 2.75488C18.53 3.55484 18.5917 4.49282 19.4694 6.06112C20.1461 7.27008 21.1602 8.64616 21.5894 9.21321C21.7021 9.36212 21.9131 9.39279 22.0636 9.28231C22.6369 8.86137 24.0015 7.83208 24.9952 6.86657C26.2841 5.61404 26.611 4.73278 26.6775 3.91792Z" stroke="#9B0016" stroke-width="0.435661" stroke-linecap="round" stroke-linejoin="round"/>
<path d="M32.9906 8.22583C32.9094 7.69965 32.4239 7.03439 31.5817 7.13068C30.8603 7.21315 30.4692 7.90012 30.3719 8.09538C30.3606 8.11804 30.3295 8.1208 30.3144 8.10058C30.1837 7.92593 29.6761 7.32002 28.9515 7.36804C28.1057 7.42412 27.7471 8.16553 27.7614 8.69776C27.7757 9.22999 27.9568 9.8146 28.7502 10.6749C29.3618 11.3381 30.2125 12.0559 30.5702 12.3501C30.6641 12.4273 30.8025 12.4148 30.881 12.322C31.1803 11.9686 31.8887 11.1101 32.3717 10.3481C32.9984 9.35965 33.0718 8.75201 32.9906 8.22583Z" fill="url(#paint6_linear_334_4226)"/>
<path d="M32.9906 8.22583C32.9094 7.69965 32.4239 7.03439 31.5817 7.13068C30.8603 7.21315 30.4692 7.90012 30.3719 8.09538C30.3606 8.11804 30.3295 8.1208 30.3144 8.10058C30.1837 7.92593 29.6761 7.32002 28.9515 7.36804C28.1057 7.42412 27.7471 8.16553 27.7614 8.69776C27.7757 9.22999 27.9568 9.8146 28.7502 10.6749C29.3618 11.3381 30.2125 12.0559 30.5702 12.3501C30.6641 12.4273 30.8025 12.4148 30.881 12.322C31.1803 11.9686 31.8887 11.1101 32.3717 10.3481C32.9984 9.35965 33.0718 8.75201 32.9906 8.22583Z" fill="url(#paint7_radial_334_4226)"/>
<path d="M32.2548 8.5214C32.2219 8.15709 31.8998 7.66183 31.2549 7.75115C30.9712 7.78361 30.722 8.04111 30.5604 8.25604C30.4542 8.39725 30.2491 8.41849 30.1172 8.30082C29.9088 8.1148 29.6004 7.89788 29.3115 7.91702C28.7292 7.95562 28.5339 8.47101 28.5615 8.86412C28.5873 9.23154 28.8614 9.7913 29.5451 10.4334C30.5999 11.4241 30.777 11.3349 31.6656 10.1516C32.1395 9.52047 32.3107 8.88363 32.2548 8.5214Z" fill="url(#paint8_radial_334_4226)"/>
<path d="M32.9906 8.22583C32.9094 7.69965 32.4239 7.03439 31.5817 7.13068C30.8603 7.21315 30.4692 7.90012 30.3719 8.09538C30.3606 8.11804 30.3295 8.1208 30.3144 8.10058C30.1837 7.92593 29.6761 7.32002 28.9515 7.36804C28.1057 7.42412 27.7471 8.16553 27.7614 8.69776C27.7757 9.22999 27.9568 9.8146 28.7502 10.6749C29.3618 11.3381 30.2125 12.0559 30.5702 12.3501C30.6641 12.4273 30.8025 12.4148 30.881 12.322C31.1803 11.9686 31.8887 11.1101 32.3717 10.3481C32.9984 9.35965 33.0718 8.75201 32.9906 8.22583Z" stroke="#9B0016" stroke-width="0.575764" stroke-linecap="round" stroke-linejoin="round"/>
<path d="M32.9906 8.22583C32.9094 7.69965 32.4239 7.03439 31.5817 7.13068C30.8603 7.21315 30.4692 7.90012 30.3719 8.09538C30.3606 8.11804 30.3295 8.1208 30.3144 8.10058C30.1837 7.92593 29.6761 7.32002 28.9515 7.36804C28.1057 7.42412 27.7471 8.16553 27.7614 8.69776C27.7757 9.22999 27.9568 9.8146 28.7502 10.6749C29.3618 11.3381 30.2125 12.0559 30.5702 12.3501C30.6641 12.4273 30.8025 12.4148 30.881 12.322C31.1803 11.9686 31.8887 11.1101 32.3717 10.3481C32.9984 9.35965 33.0718 8.75201 32.9906 8.22583Z" stroke="#9B0016" stroke-width="0.41126" stroke-linecap="round" stroke-linejoin="round"/>
<path d="M32.5836 26.2475C32.4111 25.6947 31.7813 25.0575 30.891 25.2973C30.1282 25.5027 29.8187 26.3049 29.7457 26.5307C29.7372 26.5569 29.7042 26.5649 29.6846 26.5455C29.5158 26.3788 28.8718 25.8092 28.1001 25.978C27.1994 26.1751 26.9336 27.0306 27.035 27.6008C27.1364 28.1709 27.4257 28.7706 28.4184 29.5677C29.1836 30.1821 30.2147 30.8168 30.6471 31.0753C30.7606 31.1432 30.9073 31.1073 30.9768 30.9948C31.2416 30.5663 31.8647 29.5282 32.2611 28.6304C32.7753 27.4658 32.7561 26.8003 32.5836 26.2475Z" fill="url(#paint9_linear_334_4226)"/>
<path d="M32.5836 26.2475C32.4111 25.6947 31.7813 25.0575 30.891 25.2973C30.1282 25.5027 29.8187 26.3049 29.7457 26.5307C29.7372 26.5569 29.7042 26.5649 29.6846 26.5455C29.5158 26.3788 28.8718 25.8092 28.1001 25.978C27.1994 26.1751 26.9336 27.0306 27.035 27.6008C27.1364 28.1709 27.4257 28.7706 28.4184 29.5677C29.1836 30.1821 30.2147 30.8168 30.647 31.0753C30.7605 31.1432 30.9073 31.1073 30.9768 30.9948C31.2416 30.5663 31.8647 29.5282 32.2611 28.6304C32.7753 27.4658 32.7561 26.8003 32.5836 26.2475Z" fill="url(#paint10_radial_334_4226)"/>
<path d="M32.0102 26.5609C31.9069 26.1376 31.4398 25.6112 30.6959 25.8307C30.3674 25.9191 30.1195 26.2667 29.9672 26.5485C29.8671 26.7337 29.6292 26.795 29.453 26.6797C29.1745 26.4975 28.7728 26.2966 28.4359 26.3703C27.7567 26.5188 27.6179 27.1607 27.7201 27.6189C27.8156 28.0471 28.2376 28.6579 29.1567 29.2933C30.5748 30.2735 30.7675 30.1371 31.6048 28.5857C32.0513 27.7583 32.1402 26.9777 32.0102 26.5609Z" fill="url(#paint11_radial_334_4226)"/>
<path d="M32.5836 26.2475C32.4111 25.6947 31.7813 25.0575 30.891 25.2973C30.1282 25.5027 29.8187 26.3049 29.7457 26.5307C29.7372 26.5569 29.7042 26.5649 29.6846 26.5455C29.5158 26.3788 28.8718 25.8092 28.1001 25.978C27.1994 26.1751 26.9336 27.0306 27.035 27.6008C27.1364 28.1709 27.4257 28.7706 28.4184 29.5677C29.1836 30.1821 30.2147 30.8168 30.6471 31.0753C30.7606 31.1432 30.9073 31.1073 30.9768 30.9948C31.2416 30.5663 31.8647 29.5282 32.2611 28.6304C32.7753 27.4658 32.7561 26.8003 32.5836 26.2475Z" stroke="#9B0016" stroke-width="0.432029" stroke-linecap="round" stroke-linejoin="round"/>
<path d="M32.5836 26.2475C32.4111 25.6947 31.7813 25.0575 30.891 25.2973C30.1282 25.5027 29.8187 26.3049 29.7457 26.5307C29.7372 26.5569 29.7042 26.5649 29.6846 26.5455C29.5158 26.3788 28.8718 25.8092 28.1001 25.978C27.1994 26.1751 26.9336 27.0306 27.035 27.6008C27.1364 28.1709 27.4257 28.7706 28.4184 29.5677C29.1836 30.1821 30.2147 30.8168 30.6471 31.0753C30.7606 31.1432 30.9073 31.1073 30.9768 30.9948C31.2416 30.5663 31.8647 29.5282 32.2611 28.6304C32.7753 27.4658 32.7561 26.8003 32.5836 26.2475Z" stroke="#9B0016" stroke-width="0.308592" stroke-linecap="round" stroke-linejoin="round"/>
<path d="M20.3844 28.5525C20.6663 28.1327 20.7555 27.3555 20.1053 26.8807C19.5482 26.4739 18.8329 26.702 18.6393 26.7758C18.6168 26.7844 18.5933 26.7663 18.5957 26.7424C18.6169 26.5364 18.6523 25.7864 18.1153 25.3535C17.4884 24.8483 16.7608 25.1354 16.4282 25.5163C16.0956 25.8973 15.8458 26.4222 15.8462 27.5337C15.8466 28.3907 15.9787 29.4396 16.0392 29.8753C16.0551 29.9897 16.1598 30.07 16.2744 30.0558C16.7109 30.0016 17.7583 29.8578 18.5861 29.6365C19.6601 29.3494 20.1025 28.9723 20.3844 28.5525Z" fill="url(#paint12_linear_334_4226)"/>
<path d="M20.3844 28.5525C20.6663 28.1327 20.7555 27.3555 20.1053 26.8807C19.5482 26.4739 18.8329 26.702 18.6393 26.7758C18.6168 26.7844 18.5933 26.7663 18.5957 26.7424C18.6169 26.5364 18.6523 25.7864 18.1153 25.3535C17.4884 24.8483 16.7608 25.1354 16.4282 25.5163C16.0956 25.8973 15.8458 26.4222 15.8462 27.5337C15.8466 28.3907 15.9787 29.4396 16.0392 29.8753C16.0551 29.9897 16.1598 30.07 16.2744 30.0558C16.7109 30.0016 17.7583 29.8578 18.5861 29.6365C19.6601 29.3494 20.1025 28.9723 20.3844 28.5525Z" fill="url(#paint13_radial_334_4226)"/>
<path d="M19.6806 28.2864C19.8922 28.0108 19.986 27.4575 19.478 27.1048C19.259 26.9449 18.9192 26.9643 18.6679 27.0104C18.5029 27.0407 18.3459 26.9235 18.3296 26.7565C18.3037 26.4924 18.2279 26.1424 18.0138 25.9698C17.5823 25.622 17.1141 25.8562 16.8804 26.1486C16.6619 26.4218 16.493 26.9892 16.5573 27.8778C16.6564 29.2487 16.8375 29.3003 18.2198 29.0458C18.957 28.91 19.4865 28.5754 19.6806 28.2864Z" fill="url(#paint14_radial_334_4226)"/>
<path d="M20.3844 28.5525C20.6663 28.1327 20.7555 27.3555 20.1053 26.8807C19.5482 26.4739 18.8329 26.702 18.6393 26.7758C18.6168 26.7844 18.5933 26.7663 18.5957 26.7424C18.6169 26.5364 18.6523 25.7864 18.1153 25.3535C17.4884 24.8483 16.7608 25.1354 16.4282 25.5163C16.0956 25.8973 15.8458 26.4222 15.8462 27.5337C15.8466 28.3907 15.9787 29.4396 16.0392 29.8753C16.0551 29.9897 16.1598 30.07 16.2744 30.0558C16.7109 30.0016 17.7583 29.8578 18.5861 29.6365C19.6601 29.3494 20.1025 28.9723 20.3844 28.5525Z" stroke="#9B0016" stroke-width="0.546875" stroke-linecap="round" stroke-linejoin="round"/>
<path d="M20.3844 28.5525C20.6663 28.1327 20.7555 27.3555 20.1053 26.8807C19.5482 26.4739 18.8329 26.702 18.6393 26.7758C18.6168 26.7844 18.5933 26.7663 18.5957 26.7424C18.6169 26.5364 18.6523 25.7864 18.1153 25.3535C17.4884 24.8483 16.7608 25.1354 16.4282 25.5163C16.0956 25.8973 15.8458 26.4222 15.8462 27.5337C15.8466 28.3907 15.9787 29.4396 16.0392 29.8753C16.0551 29.9897 16.1598 30.07 16.2744 30.0558C16.7109 30.0016 17.7583 29.8578 18.5861 29.6365C19.6601 29.3494 20.1025 28.9723 20.3844 28.5525Z" stroke="#9B0016" stroke-width="0.390625" stroke-linecap="round" stroke-linejoin="round"/>
<path d="M29.8902 34.3585C28.6964 34.0706 27.5563 33.7023 26.7351 33.817C26.0804 33.9085 25.6283 34.3424 25.5127 35.1091H31.9516C31.9578 34.7818 31.7763 34.5174 31.7959 34.3585C31.8156 34.1995 32.9073 33.7424 32.9073 30.9584C32.9073 28.4339 31.0474 27.6144 29.7279 27.6881C27.295 27.824 26.7455 30.9341 27.1221 32.1309C27.4986 33.3277 28.6865 33.9831 29.8902 34.3585Z" fill="url(#paint15_radial_334_4226)"/>
<path d="M26.043 35.1091C26.0748 34.459 26.6663 34.2441 26.6663 34.2441" stroke="#838384" stroke-width="0.549446" stroke-linecap="round" stroke-linejoin="round"/>
<path d="M29.8902 34.3585C28.6964 34.0706 27.5563 33.7023 26.7351 33.817C26.0804 33.9085 25.6283 34.3424 25.5127 35.1091H31.9516C31.9578 34.7818 31.7763 34.5174 31.7959 34.3585C31.8156 34.1995 32.9073 33.7424 32.9073 30.9584C32.9073 28.4339 31.0474 27.6144 29.7279 27.6881C27.295 27.824 26.7455 30.9341 27.1221 32.1309C27.4986 33.3277 28.6865 33.9831 29.8902 34.3585Z" stroke="#838384" stroke-width="0.549446" stroke-linecap="round" stroke-linejoin="round"/>
<path d="M23.9406 18.9963C25.74 16.5424 28.3133 17.5896 28.3133 17.5896C28.3133 17.5896 27.9104 19.8559 24.0972 19.231L23.9406 18.9963Z" fill="#A5A5A5"/>
<path d="M23.9406 18.9963C25.74 16.5424 28.3133 17.5896 28.3133 17.5896C28.3133 17.5896 27.9104 19.8559 24.0972 19.231L23.9406 18.9963Z" stroke="#777777" stroke-width="0.549448" stroke-linecap="round" stroke-linejoin="round"/>
<path d="M36.7347 30.9214C36.7347 30.9214 36.7597 31.358 37.023 31.467C37.2936 31.579 37.4861 31.3409 37.9398 31.4791C38.3463 31.6028 38.7311 32.1075 38.488 32.8028C38.2406 33.5107 36.8218 34.8494 35.5293 34.6806C34.9097 34.5997 34.3916 34.1113 34.3941 33.4583L36.7347 30.9214Z" fill="url(#paint16_radial_334_4226)"/>
<path d="M36.7347 30.9214C36.7347 30.9214 36.7597 31.358 37.023 31.467C37.2936 31.579 37.4861 31.3409 37.9398 31.4791C38.3463 31.6028 38.7311 32.1075 38.488 32.8028C38.2406 33.5107 36.8218 34.8494 35.5293 34.6806C34.9097 34.5997 34.3916 34.1113 34.3941 33.4583L36.7347 30.9214Z" stroke="#838384" stroke-width="0.549447" stroke-linecap="round" stroke-linejoin="round"/>
<path d="M38.0667 32.0384C38.4354 32.4803 37.9406 33.2062 37.2042 33.7396C36.4677 34.273 35.7414 34.418 35.4927 34.2383C35.244 34.0586 35.7845 33.6802 36.6555 32.8391C37.5265 31.998 37.8539 31.7835 38.0667 32.0384Z" fill="url(#paint17_radial_334_4226)"/>
<path d="M25.1878 20.4852C25.4352 20.8656 25.4698 21.0226 25.6461 21.2382C26.0109 21.6841 26.8017 22.0365 27.4252 22.5805C28.0487 23.1246 28.2407 23.3728 28.7478 23.6174C29.2549 23.8619 30.6172 24.1095 32.3854 24.8985C34.1536 25.6874 35.9277 26.8108 36.597 28.7175C37.4382 31.0798 36.0741 33.9725 34.2378 34.6238C32.599 35.205 29.9875 34.3302 28.2267 32.2019C27.5186 31.346 27.563 30.5159 26.6073 29.3659C25.7622 28.3489 24.6927 28.179 23.9594 27.2295C22.7521 25.6661 23.7586 23.3332 22.0438 22.3633" fill="url(#paint18_radial_334_4226)"/>
<path d="M36.5974 28.7174C35.9289 26.8105 34.1541 25.6874 32.3858 24.8984C30.6176 24.1095 29.2552 23.8619 28.7482 23.6174C28.2411 23.3728 28.0491 23.1245 27.4256 22.5804C26.8021 22.0364 26.0113 21.684 25.6466 21.2381C25.5385 21.106 25.4835 20.9957 25.4004 20.8428L25.399 21.3367C25.581 21.9382 26.4592 22.4918 26.9757 22.8429C27.4922 23.1941 27.9318 23.8657 28.3501 24.144C28.9002 24.5098 31.1306 24.6934 33.303 26.3157C35.3632 27.8542 36.082 29.2016 36.1077 30.3769C36.1678 32.6821 34.0728 34.3958 34.0728 34.3958L34.3444 34.5825C36.1071 33.8539 37.4674 31.1527 36.5974 28.7174Z" fill="#D4D4D4"/>
<path d="M25.1878 20.4852C25.4352 20.8656 25.4698 21.0226 25.6461 21.2382C26.0109 21.6841 26.8017 22.0365 27.4252 22.5805C28.0487 23.1246 28.2407 23.3728 28.7478 23.6174C29.2549 23.8619 30.6172 24.1095 32.3854 24.8985C34.1536 25.6874 35.9483 26.8034 36.597 28.7175C37.4227 31.1516 36.0741 33.9725 34.2378 34.6238C32.599 35.205 29.9875 34.3302 28.2267 32.2019C27.5186 31.346 27.563 30.5159 26.6073 29.3659C25.7622 28.3489 24.6927 28.179 23.9594 27.2295C22.7521 25.6661 23.7586 23.3332 22.0438 22.3633" stroke="#939596" stroke-width="0.549446" stroke-linecap="round" stroke-linejoin="round"/>
<path d="M34.5978 32.7361C33.3708 34.1973 31.5897 32.3372 29.2478 30.3969C26.9058 28.4567 26.1123 26.3023 26.8623 25.4032C27.8507 24.2184 31.0456 25.0588 33.3876 26.9991C35.7296 28.9394 35.8248 31.275 34.5978 32.7361Z" fill="url(#paint19_radial_334_4226)"/>
<path d="M23.062 22.6255C22.5277 22.7118 22.4667 22.649 22.0128 22.5656C21.5589 22.4823 21.2645 22.6371 20.8084 22.5269C20.5265 22.4588 20.0904 21.8055 20.0826 21.469C20.0757 21.1752 20.3996 20.8116 20.6486 20.4847C20.9446 20.0961 21.2445 19.6822 21.6869 19.2629C22.4429 18.5464 23.1185 18.4863 23.7215 18.5171C25.4955 18.6079 25.5792 20.6214 25.2851 21.5702C25.2851 21.5702 25.0834 21.8778 24.3795 22.2293C23.6755 22.5809 23.062 22.6255 23.062 22.6255Z" fill="url(#paint20_radial_334_4226)"/>
<path d="M23.4798 22.4715C22.3539 22.5534 21.764 21.6818 21.764 21.6818C21.5414 22.5326 20.7612 22.5103 20.2005 21.8552C20.3513 22.1604 20.6158 22.4801 20.8084 22.5266C21.2645 22.6369 21.5589 22.4821 22.0128 22.5655C22.1726 22.5948 22.2834 22.6213 22.3835 22.6399C22.9334 22.7038 23.2592 22.5738 23.4798 22.4715Z" fill="#A9AAAB"/>
<path d="M23.062 22.6255C22.5277 22.7118 22.4667 22.649 22.0128 22.5656C21.5589 22.4823 21.2645 22.6371 20.8084 22.5269C20.5265 22.4588 20.0904 21.8055 20.0826 21.469C20.0757 21.1752 20.3996 20.8116 20.6486 20.4847C20.9446 20.0961 21.2445 19.6822 21.6869 19.2629C22.4429 18.5464 23.1185 18.4863 23.7215 18.5171C25.4955 18.6079 25.5792 20.6214 25.2851 21.5702" stroke="#939596" stroke-width="0.549446" stroke-linecap="round" stroke-linejoin="round"/>
<path d="M24.8507 19.8503C25.2127 20.6541 24.7829 21.5354 23.9331 21.913C23.0832 22.2905 22.1353 22.0213 21.7733 21.2175C21.4113 20.4137 21.7791 19.5124 22.6289 19.1349C23.4787 18.7574 24.4887 19.0465 24.8507 19.8503Z" fill="url(#paint21_radial_334_4226)"/>
<path d="M21.49 21.3952C21.6369 21.7215 21.5174 22.0547 21.2403 22.1778C20.9632 22.3009 20.6335 22.1672 20.4866 21.841C20.3396 21.5147 20.4375 21.1717 20.7145 21.0486C20.9916 20.9255 21.343 21.0689 21.49 21.3952Z" fill="url(#paint22_radial_334_4226)"/>
<path d="M20.3297 21.2475C20.415 21.365 20.323 21.765 20.1002 21.7587C19.8775 21.7524 19.7815 21.4342 19.8357 21.2931C19.908 21.1047 20.2346 21.1162 20.3297 21.2475Z" fill="#5E413F"/>
<path d="M21.6744 20.0974C21.609 19.8446 22.6626 19.1912 22.729 19.3288C22.7953 19.4664 22.038 19.9779 22.038 19.9779C22.038 19.9779 22.8564 19.8166 22.8406 20.0317C22.8248 20.2468 21.7445 20.3679 21.6744 20.0974Z" fill="#A9AAAB"/>
<path d="M21.69 20.3659C21.6246 20.1131 22.6783 19.4598 22.7446 19.5974C22.8109 19.735 22.0537 20.2464 22.0537 20.2464C22.0537 20.2464 22.872 20.0851 22.8562 20.3002C22.8404 20.5153 21.7601 20.6365 21.69 20.3659Z" fill="white"/>
<path d="M21.6998 20.2409C21.6344 19.9881 22.688 19.3348 22.7544 19.4724C22.8207 19.61 22.0634 20.1214 22.0634 20.1214C22.0634 20.1214 22.8818 19.9601 22.866 20.1752C22.8502 20.3903 21.7699 20.5115 21.6998 20.2409Z" fill="url(#paint23_radial_334_4226)"/>
<path d="M24.0966 19.3569C26.2151 16.9848 29.0516 18.9429 29.9513 19.3179C29.9513 19.3179 28.891 21.6121 24.1883 19.4894L24.0966 19.3569Z" fill="url(#paint24_radial_334_4226)"/>
<path d="M24.0966 19.3569C26.2151 16.9848 29.0516 18.9429 29.9513 19.3179C29.9513 19.3179 28.891 21.6121 24.1883 19.4894L24.0966 19.3569Z" stroke="#939596" stroke-width="0.549448" stroke-linecap="round" stroke-linejoin="round"/>
<path d="M24.8075 19.264C26.9029 17.8891 29.2918 19.4909 29.2918 19.4909C29.2918 19.4909 28.0537 20.1411 24.8075 19.264Z" fill="url(#paint25_radial_334_4226)"/>
<path d="M20.3859 34.3562C19.1924 34.0683 18.0528 33.6998 17.2317 33.8146C16.5773 33.906 16.1253 34.3402 16.0098 35.1072H22.4466C22.4529 34.7797 22.2714 34.5152 22.291 34.3562C22.3107 34.1972 23.402 33.7399 23.402 30.9549C23.402 28.4293 21.5428 27.6095 20.2236 27.6832C17.7915 27.8192 17.2422 30.9305 17.6186 32.1278C17.9951 33.3251 19.1826 33.9807 20.3859 34.3562Z" fill="url(#paint26_radial_334_4226)"/>
<path d="M16.5391 35.1075C16.5708 34.4571 17.1622 34.2422 17.1622 34.2422" stroke="#838384" stroke-width="0.549468" stroke-linecap="round" stroke-linejoin="round"/>
<path d="M20.3859 34.3562C19.1924 34.0683 18.0528 33.6998 17.2317 33.8146C16.5773 33.906 16.1253 34.3402 16.0098 35.1072H22.4466C22.4529 34.7797 22.2714 34.5152 22.291 34.3562C22.3107 34.1972 23.402 33.7399 23.402 30.9549C23.402 28.4293 21.5428 27.6095 20.2236 27.6832C17.7915 27.8192 17.2422 30.9305 17.6186 32.1278C17.9951 33.3251 19.1826 33.9807 20.3859 34.3562Z" stroke="#838384" stroke-width="0.549468" stroke-linecap="round" stroke-linejoin="round"/>
<path d="M13.8105 19.2038C13.9054 16.1921 15.4802 14.9964 15.4802 14.9964C15.4802 14.9964 17.8261 17.0998 14.0737 19.3082L13.8105 19.2038Z" fill="#A5A5A5"/>
<path d="M13.8105 19.2038C13.9054 16.1921 15.4802 14.9964 15.4802 14.9964C15.4802 14.9964 17.8261 17.0998 14.0737 19.3082L13.8105 19.2038Z" stroke="#777777" stroke-width="0.549469" stroke-linecap="round" stroke-linejoin="round"/>
<path d="M27.2637 30.8931C27.2637 30.8931 27.2442 31.3302 27.4949 31.4651C27.7527 31.6039 27.9683 31.3862 28.4055 31.5693C28.7972 31.7333 29.1285 32.2743 28.816 32.9418C28.4979 33.6215 26.9506 34.8113 25.6823 34.5135C25.0743 34.3707 24.6087 33.8325 24.6776 33.1829L27.2637 30.8931Z" fill="url(#paint27_radial_334_4226)"/>
<path d="M27.2637 30.8931C27.2637 30.8931 27.2442 31.3302 27.4949 31.4651C27.7527 31.6039 27.9683 31.3862 28.4055 31.5693C28.7972 31.7333 29.1285 32.2743 28.816 32.9418C28.4979 33.6215 26.9506 34.8113 25.6823 34.5135C25.0743 34.3707 24.6087 33.8325 24.6776 33.1829L27.2637 30.8931Z" stroke="#838384" stroke-width="0.54947" stroke-linecap="round" stroke-linejoin="round"/>
<path d="M28.4742 32.1383C28.796 32.6151 28.23 33.2878 27.4432 33.7447C26.6565 34.2016 25.9194 34.2729 25.6903 34.0691C25.4613 33.8652 26.0374 33.543 26.9892 32.7934C27.9411 32.0438 28.2886 31.8632 28.4742 32.1383Z" fill="url(#paint28_radial_334_4226)"/>
<path d="M15.5796 20.5297C15.8293 20.9087 15.865 21.0656 16.0426 21.2802C16.4101 21.7239 17.203 22.0713 17.8298 22.6116C18.4566 23.1519 18.6502 23.399 19.1587 23.6404C19.6671 23.8818 21.1285 24.1317 22.9012 24.9097C24.6739 25.6877 26.3625 27.0089 27.0222 28.92C27.7423 31.0058 26.5494 33.9526 24.7179 34.6159C23.0834 35.2077 20.4672 34.3493 18.6932 32.2314C17.9798 31.3798 18.0188 30.5491 17.0561 29.4047C16.2047 28.3927 15.1343 28.2296 14.3952 27.2844C13.1781 25.7282 14.1693 23.3879 12.4488 22.4286" fill="url(#paint29_radial_334_4226)"/>
<path d="M27.0222 28.9187C26.3624 27.0076 24.6739 25.6863 22.9012 24.9083C21.1284 24.1304 19.667 23.8804 19.1585 23.639C18.65 23.3976 18.4565 23.1504 17.8297 22.6102C17.2029 22.0699 16.4101 21.7225 16.0426 21.2787C15.9337 21.1472 15.878 21.0373 15.7939 20.8848L15.7957 21.3789C15.9816 21.9795 16.863 22.5276 17.3817 22.8756C17.9003 23.2236 18.344 23.8927 18.764 24.1684C19.3163 24.5309 21.6451 24.7113 23.8272 26.3203C25.8966 27.8462 26.463 29.2845 26.4779 30.461C26.5048 32.581 24.551 34.3875 24.551 34.3875L24.8238 34.5726C26.5812 33.8324 27.7282 30.9637 27.0222 28.9187Z" fill="#D4D4D4"/>
<path d="M15.5796 20.5297C15.8293 20.9087 15.865 21.0656 16.0426 21.2802C16.4101 21.7239 17.203 22.0713 17.8298 22.6116C18.4566 23.1519 18.6502 23.399 19.1587 23.6404C19.6671 23.8818 21.1285 24.1317 22.9012 24.9097C24.6739 25.6877 26.3625 27.0089 27.0222 28.92C27.7423 31.0058 26.5494 33.9526 24.7179 34.6159C23.0834 35.2077 20.4672 34.3493 18.6932 32.2314C17.9798 31.3798 18.0188 30.5491 17.0561 29.4047C16.2047 28.3927 15.1343 28.2296 14.3952 27.2844C13.1781 25.7282 14.1693 23.3879 12.4488 22.4286" stroke="#939596" stroke-width="0.549468" stroke-linecap="round" stroke-linejoin="round"/>
<path d="M25.0671 32.7252C23.8499 34.1947 22.0575 32.3453 19.7037 30.4192C17.35 28.4932 16.5429 26.3431 17.2868 25.4389C18.2672 24.2473 21.4665 25.0677 23.8202 26.9938C26.174 28.9198 26.2843 31.2557 25.0671 32.7252Z" fill="url(#paint30_radial_334_4226)"/>
<path d="M13.5444 22.8094C13.0316 22.9815 12.9611 22.9295 12.4998 22.9211C12.0385 22.9126 11.7736 23.1133 11.3057 23.0787C11.0164 23.0574 10.4787 22.4836 10.4155 22.1528C10.3603 21.8639 10.6198 21.4525 10.8115 21.0893C11.0393 20.6577 11.2669 20.2004 11.6341 19.7146C12.2617 18.8845 12.918 18.7153 13.5178 18.6476C15.2822 18.4486 15.6965 20.4221 15.5628 21.4063C15.5628 21.4063 15.4146 21.7427 14.7783 22.2042C14.1421 22.6656 13.5444 22.8094 13.5444 22.8094Z" fill="url(#paint31_radial_334_4226)"/>
<path d="M13.9297 22.5897C12.8329 22.8537 12.1076 22.0895 12.1076 22.0895C12.0282 22.9654 11.2551 23.0703 10.5942 22.515C10.7932 22.7916 11.1068 23.0641 11.3044 23.0787C11.7723 23.1133 12.0372 22.9127 12.4985 22.9211C12.6609 22.924 12.7746 22.9322 12.8764 22.9343C13.4292 22.9079 13.7291 22.7265 13.9297 22.5897Z" fill="#A9AAAB"/>
<path d="M13.5444 22.8094C13.0316 22.9815 12.9611 22.9295 12.4998 22.9211C12.0385 22.9126 11.7736 23.1133 11.3057 23.0787C11.0164 23.0574 10.4787 22.4836 10.4155 22.1528C10.3603 21.8639 10.6198 21.4525 10.8115 21.0893C11.0393 20.6577 11.2669 20.2004 11.6341 19.7146C12.2617 18.8845 12.918 18.7153 13.5178 18.6476C15.2822 18.4486 15.6965 20.4221 15.5628 21.4063" stroke="#939596" stroke-width="0.549469" stroke-linecap="round" stroke-linejoin="round"/>
<path d="M14.8502 19.7798C15.3397 20.5142 15.0611 21.4539 14.2852 21.9647C13.5093 22.4756 12.5301 22.3641 12.0406 21.6297C11.5512 20.8954 11.7653 19.9461 12.5412 19.4353C13.3171 18.9244 14.3608 19.0454 14.8502 19.7798Z" fill="url(#paint32_radial_334_4226)"/>
<path d="M11.7923 21.8506C11.9909 22.1487 11.928 22.497 11.675 22.6636C11.4221 22.8302 11.0748 22.7519 10.8762 22.4538C10.6775 22.1557 10.7175 21.8014 10.9704 21.6348C11.2234 21.4682 11.5936 21.5525 11.7923 21.8506Z" fill="url(#paint33_radial_334_4226)"/>
<path d="M10.6218 21.8931C10.7253 21.9952 10.7005 22.405 10.4798 22.435C10.2591 22.465 10.1119 22.1666 10.1421 22.0185C10.1824 21.8208 10.5063 21.779 10.6218 21.8931Z" fill="#5E413F"/>
<path d="M11.7601 20.5366C11.6539 20.2977 12.5853 19.4815 12.6734 19.6065C12.7615 19.7315 12.099 20.3595 12.099 20.3595C12.099 20.3595 12.8795 20.0672 12.8993 20.282C12.9192 20.4969 11.8738 20.7922 11.7601 20.5366Z" fill="#A9AAAB"/>
<path d="M11.8196 20.7993C11.7135 20.5604 12.6449 19.7442 12.733 19.8692C12.8211 19.9942 12.1586 20.6222 12.1586 20.6222C12.1586 20.6222 12.9391 20.3299 12.9589 20.5447C12.9788 20.7596 11.9333 21.0549 11.8196 20.7993Z" fill="white"/>
<path d="M11.8089 20.6743C11.7027 20.4354 12.6342 19.6192 12.7223 19.7442C12.8104 19.8692 12.1478 20.4972 12.1478 20.4972C12.1478 20.4972 12.9283 20.2049 12.9482 20.4197C12.968 20.6346 11.9226 20.9299 11.8089 20.6743Z" fill="url(#paint34_radial_334_4226)"/>
<path d="M13.9923 19.4135C14.8321 16.3531 17.8803 16.4286 18.9378 16.2564C18.9378 16.2564 19.2469 19.0372 14.1336 19.4919L13.9923 19.4135Z" fill="url(#paint35_radial_334_4226)"/>
<path d="M13.9923 19.4135C14.8321 16.3531 17.8803 16.4286 18.9378 16.2564C18.9378 16.2564 19.2469 19.0372 14.1336 19.4919L13.9923 19.4135Z" stroke="#939596" stroke-width="0.549468" stroke-linecap="round" stroke-linejoin="round"/>
<path d="M14.5864 19.0175C15.722 16.8726 18.4515 16.7312 18.4515 16.7312C18.4515 16.7312 17.894 18.3326 14.5864 19.0175Z" fill="url(#paint36_radial_334_4226)"/>
<path d="M5.7088 26.0767C5.7088 26.0767 4.35301 26.9069 3.9849 27.6119C3.61679 28.3168 3.53013 28.6667 3.41763 28.926C3.30513 29.1853 3.22966 29.2736 3.0987 29.5312C2.96775 29.7888 2.91224 30.1995 3.16679 30.2973C3.4184 30.3939 3.69984 30.2023 4.05878 29.7485C4.45107 29.2525 4.39772 29.1198 4.66897 28.6523C4.96582 28.1407 5.79349 27.7324 6.14439 27.2771L5.7088 26.0767Z" fill="url(#paint37_radial_334_4226)"/>
<path d="M5.7088 26.0767C5.7088 26.0767 4.35301 26.9069 3.9849 27.6119C3.61679 28.3168 3.53013 28.6667 3.41763 28.926C3.30513 29.1853 3.22966 29.2736 3.0987 29.5312C2.96775 29.7888 2.91224 30.1995 3.16679 30.2973C3.4184 30.3939 3.69984 30.2023 4.05878 29.7485C4.45107 29.2525 4.39772 29.1198 4.66897 28.6523C4.96582 28.1407 5.79349 27.7324 6.14439 27.2771L5.7088 26.0767Z" stroke="#666666" stroke-width="0.548809" stroke-linecap="round" stroke-linejoin="round"/>
<path d="M3.59904 29.3337C3.4949 29.5538 3.41449 29.8618 3.56545 29.9644C3.71641 30.0671 3.94698 29.886 3.94698 29.886" stroke="#666666" stroke-width="0.548809" stroke-linecap="round" stroke-linejoin="round"/>
<path d="M11.3241 34.3698C10.1198 34.0851 8.96976 33.7208 8.14128 33.8343C7.48085 33.9247 7.02481 34.3539 6.9082 35.1121H13.4036C13.4099 34.7884 13.2267 34.5269 13.2466 34.3698C13.2664 34.2125 14.3677 33.7604 14.3677 31.0073C14.3677 28.5106 12.4915 27.7002 11.1603 27.773C8.70614 27.9074 8.15185 30.9832 8.5317 32.1668C8.91155 33.3504 10.1099 33.9985 11.3241 34.3698Z" fill="url(#paint38_radial_334_4226)"/>
<path d="M7.44336 35.1113C7.47543 34.4683 8.07218 34.2559 8.07218 34.2559" stroke="#838384" stroke-width="0.548796" stroke-linecap="round" stroke-linejoin="round"/>
<path d="M11.3241 34.3698C10.1198 34.0851 8.96976 33.7208 8.14128 33.8343C7.48085 33.9247 7.02481 34.3539 6.9082 35.1121H13.4036C13.4099 34.7884 13.2267 34.5269 13.2466 34.3698C13.2664 34.2125 14.3677 33.7604 14.3677 31.0073C14.3677 28.5106 12.4915 27.7002 11.1603 27.773C8.70614 27.9074 8.15185 30.9832 8.5317 32.1668C8.91155 33.3504 10.1099 33.9985 11.3241 34.3698Z" stroke="#838384" stroke-width="0.548796" stroke-linecap="round" stroke-linejoin="round"/>
<path d="M4.77729 19.3238C5.17993 16.371 6.88305 15.3505 6.88305 15.3505C6.88305 15.3505 9.0237 17.651 5.03092 19.4525L4.77729 19.3238Z" fill="#A5A5A5"/>
<path d="M4.77729 19.3238C5.17993 16.371 6.88305 15.3505 6.88305 15.3505C6.88305 15.3505 9.0237 17.651 5.03092 19.4525L4.77729 19.3238Z" stroke="#777777" stroke-width="0.548807" stroke-linecap="round" stroke-linejoin="round"/>
<path d="M17.5169 30.8788C17.5169 30.8788 17.6394 31.2945 17.9228 31.3425C18.2142 31.3919 18.3502 31.1205 18.8276 31.1554C19.2553 31.1866 19.747 31.59 19.6637 32.3134C19.579 33.0498 18.4832 34.6487 17.1737 34.7661C16.5459 34.8225 15.9266 34.4636 15.7827 33.8333L17.5169 30.8788Z" fill="url(#paint39_radial_334_4226)"/>
<path d="M17.5169 30.8788C17.5169 30.8788 17.6394 31.2945 17.9228 31.3425C18.2142 31.3919 18.3502 31.1205 18.8276 31.1554C19.2553 31.1866 19.747 31.59 19.6637 32.3134C19.579 33.0498 18.4832 34.6487 17.1737 34.7661C16.5459 34.8225 15.9266 34.4636 15.7827 33.8333L17.5169 30.8788Z" stroke="#838384" stroke-width="0.548796" stroke-linecap="round" stroke-linejoin="round"/>
<path d="M19.0781 31.6666C19.54 32.0129 19.2159 32.8203 18.6109 33.4945C18.0058 34.1688 17.3237 34.466 17.0388 34.3466C16.7538 34.2272 17.2008 33.7451 17.8692 32.7449C18.5375 31.7448 18.8116 31.4669 19.0781 31.6666Z" fill="url(#paint40_radial_334_4226)"/>
<path d="M6.38207 20.6803C6.63327 21.0555 6.6689 21.2106 6.84774 21.4231C7.21763 21.8626 8.0169 22.2077 8.64824 22.7431C9.27958 23.2785 9.47438 23.5232 9.98698 23.7629C10.4996 24.0026 11.8749 24.2417 13.662 25.0144C15.4492 25.7872 16.9526 26.9984 17.6142 28.8891C18.3363 30.9525 17.4227 33.9726 15.5731 34.6245C13.9225 35.2062 11.2843 34.3521 9.49875 32.2548C8.78075 31.4113 8.82192 30.5902 7.85285 29.4569C6.99589 28.4547 5.91622 28.2912 5.17236 27.3553C3.94762 25.8143 4.98538 23.4859 3.25131 22.534" fill="url(#paint41_radial_334_4226)"/>
<path d="M17.6142 28.8882C16.9526 26.9976 15.4492 25.7864 13.662 25.0136C11.8749 24.2408 10.4995 24.0017 9.98687 23.762C9.47427 23.5223 9.27957 23.2776 8.64823 22.7421C8.01689 22.2067 7.21761 21.8616 6.84772 21.4222C6.73811 21.292 6.68217 21.1832 6.59766 21.0322L6.59841 21.5207C6.78461 22.1148 7.67293 22.6585 8.19551 23.0036C8.71809 23.3488 9.1644 24.0111 9.58764 24.2845C10.1441 24.644 12.3949 24.8162 14.5934 26.4113C16.6783 27.9241 17.1149 29.3684 17.1274 30.5314C17.1499 32.6273 15.4052 34.3988 15.4052 34.3988L15.68 34.5824C17.455 33.8543 18.3222 30.9113 17.6142 28.8882Z" fill="#D4D4D4"/>
<path d="M6.38207 20.6803C6.63327 21.0555 6.6689 21.2106 6.84774 21.4231C7.21763 21.8626 8.0169 22.2077 8.64824 22.7431C9.27958 23.2785 9.47438 23.5232 9.98698 23.7629C10.4996 24.0026 11.8749 24.2417 13.662 25.0144C15.4492 25.7872 16.9526 26.9984 17.6142 28.8891C18.3363 30.9525 17.4227 33.9726 15.5731 34.6245C13.9225 35.2062 11.2843 34.3521 9.49875 32.2548C8.78075 31.4113 8.82192 30.5902 7.85285 29.4569C6.99589 28.4547 5.91622 28.2912 5.17236 27.3553C3.94762 25.8143 4.98538 23.4859 3.25131 22.534" stroke="#939596" stroke-width="0.548796" stroke-linecap="round" stroke-linejoin="round"/>
<path d="M15.9298 32.7547C14.6985 34.2049 12.8937 32.3729 10.5227 30.4639C8.15174 28.555 7.34195 26.4278 8.09458 25.5355C9.08644 24.3596 12.3131 25.1773 14.684 27.0862C17.055 28.9952 17.1612 31.3046 15.9298 32.7547Z" fill="url(#paint42_radial_334_4226)"/>
<path d="M4.29237 22.8766C3.76563 23.0171 3.69766 22.9618 3.23341 22.9271C2.76916 22.8924 2.49046 23.0754 2.02113 23.0145C1.73101 22.9769 1.22314 22.3799 1.17905 22.0498C1.14055 21.7616 1.42628 21.3704 1.64085 21.0229C1.89583 20.61 2.1521 20.1717 2.55076 19.7133C3.23196 18.93 3.90319 18.8005 4.51138 18.7679C6.30062 18.6724 6.60145 20.6437 6.40863 21.6073C6.40863 21.6073 6.23947 21.9308 5.57121 22.3498C4.90295 22.7689 4.29237 22.8766 4.29237 22.8766Z" fill="url(#paint43_radial_334_4226)"/>
<path d="M4.6952 22.6833C3.5746 22.8812 2.88906 22.0856 2.88906 22.0856C2.75734 22.9454 1.97232 23.0047 1.3393 22.419C1.52348 22.7034 1.82325 22.9902 2.02148 23.0159C2.49082 23.0768 2.76953 22.8939 3.23378 22.9286C3.39721 22.9408 3.51123 22.9554 3.6137 22.9632C4.17211 22.9688 4.48494 22.8069 4.6952 22.6833Z" fill="#A9AAAB"/>
<path d="M4.29237 22.8766C3.76563 23.0171 3.69766 22.9618 3.23341 22.9271C2.76916 22.8924 2.49046 23.0754 2.02113 23.0145C1.73101 22.9769 1.22314 22.3799 1.17905 22.0498C1.14055 21.7616 1.42628 21.3704 1.64085 21.0229C1.89583 20.61 2.1521 20.1717 2.55076 19.7133C3.23196 18.93 3.90319 18.8005 4.51138 18.7679C6.30062 18.6724 6.60145 20.6437 6.40863 21.6073" stroke="#939596" stroke-width="0.548802" stroke-linecap="round" stroke-linejoin="round"/>
<path d="M5.78906 19.9613C6.23874 20.714 5.90256 21.6254 5.09075 22.0852C4.27893 22.545 3.29902 22.3791 2.84934 21.6263C2.39966 20.8736 2.67145 19.9491 3.48327 19.4893C4.29508 19.0295 5.33938 19.2086 5.78906 19.9613Z" fill="url(#paint44_radial_334_4226)"/>
<path d="M2.58391 21.8297C2.76643 22.1352 2.6825 22.4753 2.41781 22.6253C2.15311 22.7752 1.80793 22.6781 1.62541 22.3726C1.44289 22.067 1.50406 21.7196 1.76876 21.5697C2.03345 21.4198 2.40139 21.5241 2.58391 21.8297Z" fill="url(#paint45_radial_334_4226)"/>
<path d="M1.40363 21.8076C1.50182 21.9143 1.45265 22.3173 1.22852 22.3343C1.0044 22.3513 0.873823 22.0483 0.912955 21.904C0.965245 21.7111 1.29404 21.6884 1.40363 21.8076Z" fill="#5E413F"/>
<path d="M3.55296 20.8898C3.35552 21.1335 3.04307 21.1764 2.83193 21.0143C2.62079 20.8522 2.59081 20.5464 2.78825 20.3027C2.98569 20.059 3.29686 19.9955 3.508 20.1576C3.71914 20.3197 3.7504 20.6461 3.55296 20.8898Z" fill="white"/>
<path d="M3.50999 20.5773C3.31255 20.821 3.00011 20.8639 2.78896 20.7018C2.57782 20.5397 2.54784 20.2339 2.74528 19.9902C2.94272 19.7465 3.25389 19.683 3.46503 19.8451C3.67617 20.0072 3.70744 20.3336 3.50999 20.5773Z" fill="#A9AAAB"/>
<path d="M3.51683 20.7297C3.31939 20.9734 3.00694 21.0163 2.7958 20.8542C2.58465 20.692 2.55467 20.3862 2.75212 20.1425C2.94956 19.8988 3.26072 19.8354 3.47187 19.9975C3.68301 20.1596 3.71427 20.4859 3.51683 20.7297Z" fill="url(#paint46_radial_334_4226)"/>
<path d="M3.16571 20.3014C3.08253 20.3717 2.98463 20.3791 2.93727 20.326C2.88991 20.2728 2.911 20.1794 2.99418 20.1091C3.07736 20.0387 3.17697 20.0252 3.22433 20.0783C3.27169 20.1315 3.24889 20.2311 3.16571 20.3014Z" fill="white"/>
<path d="M4.95685 19.5524C6.25608 16.683 9.81698 17.5862 10.845 17.7792C10.845 17.7792 10.09 20.111 5.08611 19.6496L4.95685 19.5524Z" fill="url(#paint47_radial_334_4226)"/>
<path d="M4.95685 19.5524C6.25608 16.683 9.81698 17.5862 10.845 17.7792C10.845 17.7792 10.09 20.111 5.08611 19.6496L4.95685 19.5524Z" stroke="#939596" stroke-width="0.548796" stroke-linecap="round" stroke-linejoin="round"/>
<path d="M5.6126 19.2514C7.19893 17.3281 10.2207 18.111 10.2207 18.111C10.2207 18.111 8.92027 19.2 5.6126 19.2514Z" fill="url(#paint48_radial_334_4226)"/>
<path d="M6.74551 23.1736C8.1825 23.4612 8.60941 24.7327 8.34158 26.2683C8.18588 27.1609 8.14782 27.8867 7.92768 28.3025C7.76905 28.602 7.57873 28.7934 7.33501 28.8991C6.75283 29.1517 5.28751 28.3923 4.83228 28.3975C4.1857 28.4048 4.00668 28.7156 3.61669 29.247C3.29016 29.8499 2.71537 30.1353 2.33125 29.7939C1.94713 29.4525 2.43193 29.0069 2.76269 28.4893C2.96578 28.1395 2.90263 27.8317 3.42718 27.1931C3.943 26.5651 4.16278 26.6546 4.22022 26.569C4.34524 26.3829 4.16905 25.395 4.68809 24.3525C5.20713 23.3099 5.94454 23.0132 6.74551 23.1736Z" fill="url(#paint49_radial_334_4226)"/>
<path d="M7.92753 28.3022C7.76891 28.6018 7.57863 28.7931 7.3349 28.8989C6.75273 29.1515 5.28746 28.3921 4.83222 28.3972C4.18565 28.4045 4.00158 28.7033 3.6166 29.2468C3.29321 29.8045 2.71529 30.1351 2.33116 29.7937C1.94704 29.4522 2.42113 29.0077 2.76258 28.4891C2.97607 28.1716 2.90258 27.8315 3.42713 27.1929C3.94294 26.5649 4.16273 26.6544 4.22016 26.5688C4.34519 26.3826 4.169 25.3948 4.68804 24.3522C5.01243 23.7007 5.42204 23.3404 5.87928 23.201" stroke="#939596" stroke-width="0.548821" stroke-linecap="round" stroke-linejoin="round"/>
<path d="M2.87925 29.8895C2.87925 29.8895 2.69154 29.9188 2.62035 29.7179C2.54208 29.4971 2.69327 29.2604 2.94742 29.1346" stroke="#939596" stroke-width="0.548821" stroke-linecap="round" stroke-linejoin="round"/>
<path d="M6.72221 23.8652C7.72068 24.1306 7.85849 25.3194 7.61682 26.3668C7.37516 27.4143 7.07256 28.2708 5.90152 27.9595C4.79764 27.6661 4.90539 26.4013 5.02946 25.5968C5.15353 24.7924 5.67582 23.587 6.72221 23.8652Z" fill="url(#paint50_radial_334_4226)"/>
<path d="M13.4402 34.3225C12.0451 33.9939 10.6872 32.4051 10.919 30.894C11.1894 29.1315 13.097 27.3045 15.0934 27.7345C16.383 28.0123 17.0747 29.5163 17.0528 31.3153C17.0378 32.5525 16.036 34.1721 16.036 34.3913C16.036 34.6104 16.1769 35.0507 16.0745 35.2436H8.45117C8.45108 34.8276 8.74093 33.6769 9.92998 33.6005C11.1441 33.5226 12.3411 34.1843 13.4402 34.3225Z" fill="url(#paint51_radial_334_4226)"/>
<path d="M16.9289 29.9791C17.0169 30.3919 17.0585 30.8427 17.0528 31.3153C17.0378 32.5524 16.036 34.172 16.036 34.3911C16.036 34.6102 16.1769 35.0506 16.0745 35.2436H8.45117C8.45108 34.8276 8.74093 33.6767 9.92998 33.6004C11.1441 33.5225 12.3411 34.1842 13.4402 34.3224C12.0451 33.9939 10.6872 32.405 10.919 30.8939C11.0402 30.1037 11.5034 29.2705 12.1398 28.6719" stroke="#939596" stroke-width="0.548796" stroke-linecap="round" stroke-linejoin="round"/>
<path d="M13.6043 33.6625C12.5343 33.5606 11.433 32.1366 11.6084 30.9937C11.7973 29.7622 13.0775 28.3477 14.4869 28.3477C14.6398 28.3477 14.7933 28.364 14.9433 28.3963C15.8047 28.5819 16.3559 29.7369 16.3565 31.3068C16.357 32.4401 15.34 33.828 13.6043 33.6625Z" fill="url(#paint52_radial_334_4226)"/>
<path d="M9.49609 34.6324C9.49609 34.6324 9.67851 34.3135 10.3312 34.3135C10.896 34.3135 12.1248 34.6898 12.1248 34.6898L9.49609 34.6324Z" fill="url(#paint53_radial_334_4226)"/>
<path d="M9.19824 35.2438C9.32291 34.2118 10.0293 34.167 10.0293 34.167" stroke="#939596" stroke-width="0.548796" stroke-linecap="round" stroke-linejoin="round"/>
<path d="M16.4985 22.9865C17.9498 22.9025 18.6937 24.0358 18.8404 25.6046C18.9257 26.5165 18.9368 27.1637 18.8352 27.626C18.762 27.959 18.6299 28.1944 18.4243 28.3597C17.9333 28.7545 16.4712 28.4582 16.0367 28.5789C15.4195 28.7503 15.3281 29.3441 14.8124 30.0246C14.3705 30.6076 13.7524 31.0824 13.295 30.8463C12.8376 30.6102 13.3434 29.8986 13.8367 29.3664C14.1444 29.0345 14.0157 28.6722 14.3503 27.9148C14.6792 27.1699 14.938 27.0457 14.9706 26.9475C15.0414 26.7338 14.615 25.8123 14.8382 24.6615C15.0614 23.5107 15.6895 23.0334 16.4985 22.9865Z" fill="url(#paint54_radial_334_4226)"/>
<path d="M18.8346 27.6259C18.7614 27.9589 18.6294 28.1943 18.4238 28.3596C17.9328 28.7544 16.4707 28.4581 16.0362 28.5788C15.419 28.7502 15.3276 29.344 14.8119 30.0244C14.37 30.6074 13.7519 31.0823 13.2945 30.8462C12.8371 30.6101 13.3428 29.8985 13.8361 29.3663C14.1438 29.0343 14.0152 28.6721 14.3498 27.9147C14.6787 27.1698 14.9375 27.0456 14.9701 26.9474C15.0409 26.7337 14.6129 25.8123 14.8377 24.6614C14.978 23.9424 15.2748 23.486 15.6759 23.2336" stroke="#939596" stroke-width="0.549468" stroke-linecap="round" stroke-linejoin="round"/>
<path d="M13.9748 30.7901C13.9748 30.7901 13.6716 30.8771 13.5507 30.6988C13.4178 30.5029 13.6176 30.2225 13.8279 30.035" stroke="#939596" stroke-width="0.549468" stroke-linecap="round" stroke-linejoin="round"/>
<path d="M16.6583 23.6686C17.684 23.6743 18.1294 24.8002 18.173 25.8853C18.2167 26.9704 18.1511 27.8811 16.9482 27.8745C15.8142 27.8683 15.583 26.6097 15.4906 25.7919C15.3982 24.9742 15.5834 23.6627 16.6583 23.6686Z" fill="url(#paint55_radial_334_4226)"/>
<path d="M22.4841 34.3128C21.1016 33.9805 19.7615 32.3731 19.9912 30.8445C20.2592 29.0616 22.1346 27.2495 24.113 27.6845C25.3909 27.9656 26.0513 29.4667 26.0296 31.2865C26.0147 32.5379 25.0566 34.1607 25.0566 34.3824C25.0566 34.6041 25.1962 35.0494 25.0947 35.2446H17.54C17.5399 34.8238 17.8272 33.6598 19.0055 33.5825C20.2087 33.5037 21.3949 34.1731 22.4841 34.3128Z" fill="url(#paint56_radial_334_4226)"/>
<path d="M25.909 29.9343C25.9962 30.3519 26.0374 30.8079 26.0317 31.2859C26.0169 32.5373 25.0566 34.1604 25.0566 34.3821C25.0566 34.6038 25.1962 35.0492 25.0947 35.2444H17.54C17.5399 34.8236 17.8272 33.6595 19.0055 33.5822C20.2087 33.5034 21.3949 34.1728 22.4841 34.3126C21.1016 33.9803 19.7629 32.3728 19.9926 30.8442C20.1128 30.0448 20.557 29.2374 21.1877 28.6318" stroke="#939596" stroke-width="0.549468" stroke-linecap="round" stroke-linejoin="round"/>
<path d="M22.6467 33.6459C21.5863 33.5428 20.5019 32.102 20.6757 30.9459C20.8629 29.7002 22.1168 28.3047 23.5135 28.3047C23.6651 28.3047 23.8172 28.3212 23.9658 28.3539C24.8194 28.5416 25.341 29.6901 25.3416 31.2781C25.3421 32.4246 24.3668 33.8133 22.6467 33.6459Z" fill="url(#paint57_radial_334_4226)"/>
<path d="M18.5752 34.6273C18.5752 34.6273 18.756 34.3047 19.4027 34.3047C19.9625 34.3047 21.1803 34.6854 21.1803 34.6854L18.5752 34.6273Z" fill="url(#paint58_radial_334_4226)"/>
<path d="M18.2812 35.2445C18.4048 34.2006 19.1048 34.1553 19.1048 34.1553" stroke="#939596" stroke-width="0.549468" stroke-linecap="round" stroke-linejoin="round"/>
<path d="M25.7913 23.1646C27.243 23.0785 28.0433 24.174 28.1925 25.742C28.2792 26.6535 28.2599 27.1673 28.159 27.6296C28.0863 27.9626 27.9546 28.198 27.7492 28.3636C27.2585 28.759 25.7049 28.6653 25.2705 28.7866C24.6534 28.9589 24.5628 29.5525 24.048 30.2335C23.6068 30.8169 22.9893 31.2925 22.5313 31.0572C22.0734 30.8219 22.5783 30.1098 23.071 29.577C23.3783 29.2448 23.249 28.8828 23.5825 28.1252C23.9105 27.3802 24.1692 27.2557 24.2016 27.1574C24.2721 26.9437 23.9115 25.9921 24.133 24.8414C24.3546 23.6907 24.9822 23.2127 25.7913 23.1646Z" fill="url(#paint59_radial_334_4226)"/>
<path d="M28.1581 27.6294C28.0853 27.9624 27.9537 28.1979 27.7483 28.3634C27.2576 28.7588 25.7041 28.6652 25.2696 28.7864C24.6525 28.9587 24.562 29.5524 24.0471 30.2333C23.606 30.8168 22.9884 31.2923 22.5305 31.057C22.0725 30.8217 22.5773 30.1096 23.07 29.5769C23.3773 29.2446 23.2481 28.8827 23.5817 28.1251C23.9096 27.38 24.1683 27.2555 24.2007 27.1572C24.2712 26.9435 23.8449 25.9956 24.1321 24.8413C24.3065 24.1326 24.5676 23.6657 24.9685 23.4128" stroke="#939596" stroke-width="0.549446" stroke-linecap="round" stroke-linejoin="round"/>
<path d="M23.2115 31C23.2115 31 22.9083 31.0874 22.787 30.9094C22.6538 30.7138 22.8533 30.4332 23.0634 30.2454" stroke="#939596" stroke-width="0.549446" stroke-linecap="round" stroke-linejoin="round"/>
<path d="M25.9517 23.8468C26.9777 23.8509 27.4795 24.9396 27.5248 26.0242C27.5701 27.1088 27.4746 27.8862 26.2713 27.8814C25.137 27.8768 24.8133 26.8194 24.7196 26.0021C24.6259 25.1848 24.8765 23.8425 25.9517 23.8468Z" fill="url(#paint60_radial_334_4226)"/>
<path d="M31.9925 34.312C30.6096 33.9798 29.4408 32.3641 29.6706 30.8361C29.9386 29.0539 31.8481 27.1624 33.8272 27.5973C35.1055 27.8782 35.8219 29.4238 35.8002 31.2429C35.7854 32.4938 34.5658 34.1599 34.5658 34.3815C34.5658 34.6031 34.7055 35.0483 34.6039 35.2434H27.0469C27.0468 34.8228 27.3341 33.6591 28.5128 33.5819C29.7163 33.5032 30.903 34.1722 31.9925 34.312Z" fill="url(#paint61_radial_334_4226)"/>
<path d="M35.6775 29.8915C35.7647 30.309 35.8059 30.7648 35.8002 31.2426C35.7854 32.4936 34.5658 34.1596 34.5658 34.3812C34.5658 34.6028 34.7055 35.048 34.6039 35.2431H27.0469C27.0468 34.8225 27.3341 33.6588 28.5128 33.5816C29.7163 33.5028 30.903 34.172 31.9925 34.3117C30.6096 33.9795 29.4408 32.3638 29.6706 30.8359C29.7908 30.0367 30.2684 29.1503 30.8992 28.5449" stroke="#939596" stroke-width="0.549446" stroke-linecap="round" stroke-linejoin="round"/>
<path d="M32.1546 33.6452C31.0938 33.542 30.1795 32.0931 30.3534 30.9374C30.5406 29.6922 31.8282 28.2178 33.2253 28.2178C33.3769 28.2178 33.5291 28.2343 33.6777 28.267C34.5316 28.4546 35.1087 29.6474 35.1094 31.2347C35.1099 32.3807 33.8752 33.8125 32.1546 33.6452Z" fill="url(#paint62_radial_334_4226)"/>
<path d="M28.082 34.6252C28.082 34.6252 28.2629 34.3027 28.9098 34.3027C29.4698 34.3027 30.6879 34.6833 30.6879 34.6833L28.082 34.6252Z" fill="url(#paint63_radial_334_4226)"/>
<path d="M27.7861 35.2431C27.9097 34.1997 28.61 34.1543 28.61 34.1543" stroke="#939596" stroke-width="0.549446" stroke-linecap="round" stroke-linejoin="round"/>
</g>
</g>
<defs>
<linearGradient id="paint0_linear_334_4226" x1="10.8971" y1="12.5261" x2="9.97119" y2="6.55769" gradientUnits="userSpaceOnUse">
<stop offset="0.26" stop-color="#EB2A13"/>
<stop offset="0.73" stop-color="#F59489"/>
<stop offset="0.89" stop-color="white"/>
</linearGradient>
<radialGradient id="paint1_radial_334_4226" cx="0" cy="0" r="1" gradientUnits="userSpaceOnUse" gradientTransform="translate(9.65463 6.74232) scale(4.51035)">
<stop offset="0.48" stop-color="#FE1512"/>
<stop offset="0.83" stop-color="#D30C13"/>
<stop offset="1" stop-color="#A80315"/>
</radialGradient>
<radialGradient id="paint2_radial_334_4226" cx="0" cy="0" r="1" gradientUnits="userSpaceOnUse" gradientTransform="translate(10.3404 11.4543) scale(5.89145)">
<stop offset="0.26" stop-color="#EB2A13"/>
<stop offset="0.73" stop-color="#F59489"/>
<stop offset="0.89" stop-color="white"/>
</radialGradient>
<linearGradient id="paint3_linear_334_4226" x1="21.3687" y1="9.14656" x2="22.5143" y2="1.2874" gradientUnits="userSpaceOnUse">
<stop offset="0.26" stop-color="#EB2A13"/>
<stop offset="0.73" stop-color="#F59489"/>
<stop offset="0.89" stop-color="white"/>
</linearGradient>
<radialGradient id="paint4_radial_334_4226" cx="0" cy="0" r="1" gradientUnits="userSpaceOnUse" gradientTransform="translate(22.6404 2.93063) scale(6.32697)">
<stop offset="0.48" stop-color="#FE1512"/>
<stop offset="0.83" stop-color="#D30C13"/>
<stop offset="1" stop-color="#A80315"/>
</radialGradient>
<radialGradient id="paint5_radial_334_4226" cx="0" cy="0" r="1" gradientUnits="userSpaceOnUse" gradientTransform="translate(21.6822 9.72695) scale(8.13042 8.13042)">
<stop offset="0.26" stop-color="#EB2A13"/>
<stop offset="0.73" stop-color="#F59489"/>
<stop offset="0.89" stop-color="white"/>
</radialGradient>
<linearGradient id="paint6_linear_334_4226" x1="30.8971" y1="11.8368" x2="30.4323" y2="6.68594" gradientUnits="userSpaceOnUse">
<stop offset="0.26" stop-color="#EB2A13"/>
<stop offset="0.73" stop-color="#F59489"/>
<stop offset="0.89" stop-color="white"/>
</linearGradient>
<radialGradient id="paint7_radial_334_4226" cx="0" cy="0" r="1" gradientUnits="userSpaceOnUse" gradientTransform="translate(30.2858 8.17428) rotate(6.33911) scale(3.87039)">
<stop offset="0.48" stop-color="#FE1512"/>
<stop offset="0.83" stop-color="#D30C13"/>
<stop offset="1" stop-color="#A80315"/>
</radialGradient>
<radialGradient id="paint8_radial_334_4226" cx="0" cy="0" r="1" gradientUnits="userSpaceOnUse" gradientTransform="translate(30.6479 12.3531) rotate(6.33911) scale(4.55714)">
<stop offset="0.26" stop-color="#EB2A13"/>
<stop offset="0.73" stop-color="#F59489"/>
<stop offset="0.89" stop-color="white"/>
</radialGradient>
<linearGradient id="paint9_linear_334_4226" x1="30.4844" y1="31.0901" x2="29.1514" y2="25.6246" gradientUnits="userSpaceOnUse">
<stop offset="0.26" stop-color="#EB2A13"/>
<stop offset="0.73" stop-color="#F59489"/>
<stop offset="0.89" stop-color="white"/>
</linearGradient>
<radialGradient id="paint10_radial_334_4226" cx="0" cy="0" r="1" gradientUnits="userSpaceOnUse" gradientTransform="translate(29.6703 26.6703) rotate(-22) scale(4.48158)">
<stop offset="0.48" stop-color="#FE1512"/>
<stop offset="0.83" stop-color="#D30C13"/>
<stop offset="1" stop-color="#A80315"/>
</radialGradient>
<radialGradient id="paint11_radial_334_4226" cx="0" cy="0" r="1" gradientUnits="userSpaceOnUse" gradientTransform="translate(30.8459 31.3898) rotate(-22) scale(5.75902)">
<stop offset="0.26" stop-color="#EB2A13"/>
<stop offset="0.73" stop-color="#F59489"/>
<stop offset="0.89" stop-color="white"/>
</radialGradient>
<linearGradient id="paint12_linear_334_4226" x1="16.598" y1="29.7272" x2="19.5887" y2="25.8302" gradientUnits="userSpaceOnUse">
<stop offset="0.26" stop-color="#EB2A13"/>
<stop offset="0.73" stop-color="#F59489"/>
<stop offset="0.89" stop-color="white"/>
</linearGradient>
<radialGradient id="paint13_radial_334_4226" cx="0" cy="0" r="1" gradientUnits="userSpaceOnUse" gradientTransform="translate(18.5283 26.7755) rotate(49) scale(3.67619)">
<stop offset="0.48" stop-color="#FE1512"/>
<stop offset="0.83" stop-color="#D30C13"/>
<stop offset="1" stop-color="#A80315"/>
</radialGradient>
<radialGradient id="paint14_radial_334_4226" cx="0" cy="0" r="1" gradientUnits="userSpaceOnUse" gradientTransform="translate(16.092 29.9285) rotate(49) scale(4.32849)">
<stop offset="0.26" stop-color="#EB2A13"/>
<stop offset="0.73" stop-color="#F59489"/>
<stop offset="0.89" stop-color="white"/>
</radialGradient>
<radialGradient id="paint15_radial_334_4226" cx="0" cy="0" r="1" gradientUnits="userSpaceOnUse" gradientTransform="translate(29.2015 31.3685) scale(3.7177 3.69254)">
<stop offset="0.74" stop-color="#969696"/>
<stop offset="0.86" stop-color="#A9A9A9"/>
<stop offset="0.98" stop-color="#BCBCBC"/>
</radialGradient>
<radialGradient id="paint16_radial_334_4226" cx="0" cy="0" r="1" gradientUnits="userSpaceOnUse" gradientTransform="translate(36.4708 32.8036) rotate(13.0971) scale(1.95207 1.94022)">
<stop offset="0.46" stop-color="#BCBCBC"/>
<stop offset="0.73" stop-color="#A9A9A9"/>
<stop offset="1" stop-color="#969696"/>
</radialGradient>
<radialGradient id="paint17_radial_334_4226" cx="0" cy="0" r="1" gradientUnits="userSpaceOnUse" gradientTransform="translate(37.1588 31.0886) rotate(13.0971) scale(3.78726 3.76427)">
<stop offset="0.1" stop-color="white" stop-opacity="0.7"/>
<stop offset="0.5" stop-color="white" stop-opacity="0.35"/>
<stop offset="0.89" stop-color="white" stop-opacity="0"/>
</radialGradient>
<radialGradient id="paint18_radial_334_4226" cx="0" cy="0" r="1" gradientUnits="userSpaceOnUse" gradientTransform="translate(32.7285 17.4933) rotate(0.695855) scale(14.5989 14.5001)">
<stop offset="0.71" stop-color="#EFEFEF"/>
<stop offset="0.82" stop-color="#D5D5D5"/>
<stop offset="0.92" stop-color="#BCBCBC"/>
</radialGradient>
<radialGradient id="paint19_radial_334_4226" cx="0" cy="0" r="1" gradientUnits="userSpaceOnUse" gradientTransform="translate(35.1002 18.8909) rotate(0.695855) scale(13.9328 13.8385)">
<stop offset="0.56" stop-color="white"/>
<stop offset="0.75" stop-color="white" stop-opacity="0.5"/>
<stop offset="0.94" stop-color="white" stop-opacity="0"/>
</radialGradient>
<radialGradient id="paint20_radial_334_4226" cx="0" cy="0" r="1" gradientUnits="userSpaceOnUse" gradientTransform="translate(22.5578 17.9626) rotate(-1.31415) scale(4.46727 4.43718)">
<stop offset="0.7" stop-color="#EFEFEF"/>
<stop offset="0.84" stop-color="#D5D5D5"/>
<stop offset="0.98" stop-color="#BCBCBC"/>
</radialGradient>
<radialGradient id="paint21_radial_334_4226" cx="0" cy="0" r="1" gradientUnits="userSpaceOnUse" gradientTransform="translate(23.416 19.3116) rotate(-1.31415) scale(2.10904 2.09484)">
<stop offset="0.27" stop-color="white"/>
<stop offset="0.53" stop-color="white" stop-opacity="0.5"/>
<stop offset="0.78" stop-color="white" stop-opacity="0"/>
</radialGradient>
<radialGradient id="paint22_radial_334_4226" cx="0" cy="0" r="1" gradientUnits="userSpaceOnUse" gradientTransform="translate(20.9775 21.1947) rotate(-1.31415) scale(0.981242 0.974634)">
<stop offset="0.27" stop-color="white"/>
<stop offset="0.53" stop-color="white" stop-opacity="0.5"/>
<stop offset="0.78" stop-color="white" stop-opacity="0"/>
</radialGradient>
<radialGradient id="paint23_radial_334_4226" cx="0" cy="0" r="1" gradientUnits="userSpaceOnUse" gradientTransform="translate(22.2543 19.4842) rotate(-8.54295) scale(1.06176 1.03935)">
<stop offset="0.36" stop-color="#BD3530"/>
<stop offset="0.68" stop-color="#97312E"/>
<stop offset="1" stop-color="#722D2C"/>
</radialGradient>
<radialGradient id="paint24_radial_334_4226" cx="0" cy="0" r="1" gradientUnits="userSpaceOnUse" gradientTransform="translate(27.7841 23.5686) rotate(19.0401) scale(5.87927 5.84809)">
<stop offset="0.73" stop-color="#ECECEC"/>
<stop offset="0.86" stop-color="#D4D4D4"/>
<stop offset="1" stop-color="#BCBCBC"/>
</radialGradient>
<radialGradient id="paint25_radial_334_4226" cx="0" cy="0" r="1" gradientUnits="userSpaceOnUse" gradientTransform="translate(31.8003 29.8822) rotate(19.0401) scale(12.7587 12.6911)">
<stop offset="0.94" stop-color="#CF8B89"/>
<stop offset="0.96" stop-color="#BA7776"/>
<stop offset="0.99" stop-color="#A66362"/>
</radialGradient>
<radialGradient id="paint26_radial_334_4226" cx="0" cy="0" r="1" gradientUnits="userSpaceOnUse" gradientTransform="translate(19.6975 31.3651) scale(3.71653 3.69399)">
<stop offset="0.74" stop-color="#969696"/>
<stop offset="0.86" stop-color="#A9A9A9"/>
<stop offset="0.98" stop-color="#BCBCBC"/>
</radialGradient>
<radialGradient id="paint27_radial_334_4226" cx="0" cy="0" r="1" gradientUnits="userSpaceOnUse" gradientTransform="translate(26.8097 32.74) rotate(18.8805) scale(1.95089 1.94155)">
<stop offset="0.46" stop-color="#BCBCBC"/>
<stop offset="0.73" stop-color="#A9A9A9"/>
<stop offset="1" stop-color="#969696"/>
</radialGradient>
<radialGradient id="paint28_radial_334_4226" cx="0" cy="0" r="1" gradientUnits="userSpaceOnUse" gradientTransform="translate(27.668 31.1017) rotate(18.8805) scale(3.78497 3.76684)">
<stop offset="0.1" stop-color="white" stop-opacity="0.7"/>
<stop offset="0.5" stop-color="white" stop-opacity="0.35"/>
<stop offset="0.89" stop-color="white" stop-opacity="0"/>
</radialGradient>
<radialGradient id="paint29_radial_334_4226" cx="0" cy="0" r="1" gradientUnits="userSpaceOnUse" gradientTransform="translate(23.0984 17.4886) rotate(0.330626) scale(14.5943 14.5058)">
<stop offset="0.71" stop-color="#EFEFEF"/>
<stop offset="0.82" stop-color="#D5D5D5"/>
<stop offset="0.92" stop-color="#BCBCBC"/>
</radialGradient>
<radialGradient id="paint30_radial_334_4226" cx="0" cy="0" r="1" gradientUnits="userSpaceOnUse" gradientTransform="translate(25.4798 18.8716) rotate(0.330626) scale(13.9284 13.844)">
<stop offset="0.56" stop-color="white"/>
<stop offset="0.75" stop-color="white" stop-opacity="0.5"/>
<stop offset="0.94" stop-color="white" stop-opacity="0"/>
</radialGradient>
<radialGradient id="paint31_radial_334_4226" cx="0" cy="0" r="1" gradientUnits="userSpaceOnUse" gradientTransform="translate(12.2787 18.2897) rotate(-10.6828) scale(4.46493 4.43986)">
<stop offset="0.7" stop-color="#EFEFEF"/>
<stop offset="0.84" stop-color="#D5D5D5"/>
<stop offset="0.98" stop-color="#BCBCBC"/>
</radialGradient>
<radialGradient id="paint32_radial_334_4226" cx="0" cy="0" r="1" gradientUnits="userSpaceOnUse" gradientTransform="translate(13.3465 19.4816) rotate(-10.6828) scale(2.10794 2.0961)">
<stop offset="0.27" stop-color="white"/>
<stop offset="0.53" stop-color="white" stop-opacity="0.5"/>
<stop offset="0.78" stop-color="white" stop-opacity="0"/>
</radialGradient>
<radialGradient id="paint33_radial_334_4226" cx="0" cy="0" r="1" gradientUnits="userSpaceOnUse" gradientTransform="translate(11.2538 21.7361) rotate(-10.6828) scale(0.98073 0.975222)">
<stop offset="0.27" stop-color="white"/>
<stop offset="0.53" stop-color="white" stop-opacity="0.5"/>
<stop offset="0.78" stop-color="white" stop-opacity="0"/>
</radialGradient>
<radialGradient id="paint34_radial_334_4226" cx="0" cy="0" r="1" gradientUnits="userSpaceOnUse" gradientTransform="translate(12.2311 19.8373) rotate(-17.9214) scale(1.06097 1.04021)">
<stop offset="0.36" stop-color="#BD3530"/>
<stop offset="0.68" stop-color="#97312E"/>
<stop offset="1" stop-color="#722D2C"/>
</radialGradient>
<radialGradient id="paint35_radial_334_4226" cx="0" cy="0" r="1" gradientUnits="userSpaceOnUse" gradientTransform="translate(19.1759 21.5656) rotate(-7.1163) scale(5.88111 5.84672)">
<stop offset="0.73" stop-color="#ECECEC"/>
<stop offset="0.86" stop-color="#D4D4D4"/>
<stop offset="1" stop-color="#BCBCBC"/>
</radialGradient>
<radialGradient id="paint36_radial_334_4226" cx="0" cy="0" r="1" gradientUnits="userSpaceOnUse" gradientTransform="translate(25.5907 25.4582) rotate(-7.1163) scale(12.7627 12.6881)">
<stop offset="0.94" stop-color="#CF8B89"/>
<stop offset="0.96" stop-color="#BA7776"/>
<stop offset="0.99" stop-color="#A66362"/>
</radialGradient>
<radialGradient id="paint37_radial_334_4226" cx="0" cy="0" r="1" gradientUnits="userSpaceOnUse" gradientTransform="translate(4.57723 25.9441) rotate(-10.5107) scale(3.76739 3.67508)">
<stop offset="0.45" stop-color="#969696"/>
<stop offset="0.71" stop-color="#A9A9A9"/>
<stop offset="0.98" stop-color="#BCBCBC"/>
</radialGradient>
<radialGradient id="paint38_radial_334_4226" cx="0" cy="0" r="1" gradientUnits="userSpaceOnUse" gradientTransform="translate(10.6294 31.4128) scale(3.75031 3.65177)">
<stop offset="0.74" stop-color="#969696"/>
<stop offset="0.86" stop-color="#A9A9A9"/>
<stop offset="0.98" stop-color="#BCBCBC"/>
</radialGradient>
<radialGradient id="paint39_radial_334_4226" cx="0" cy="0" r="1" gradientUnits="userSpaceOnUse" gradientTransform="translate(17.6792 32.7516) rotate(0.420019) scale(1.96988 1.91813)">
<stop offset="0.46" stop-color="#BCBCBC"/>
<stop offset="0.73" stop-color="#A9A9A9"/>
<stop offset="1" stop-color="#969696"/>
</radialGradient>
<radialGradient id="paint40_radial_334_4226" cx="0" cy="0" r="1" gradientUnits="userSpaceOnUse" gradientTransform="translate(17.972 30.9473) rotate(0.420019) scale(3.82181 3.72141)">
<stop offset="0.1" stop-color="white" stop-opacity="0.7"/>
<stop offset="0.5" stop-color="white" stop-opacity="0.35"/>
<stop offset="0.89" stop-color="white" stop-opacity="0"/>
</radialGradient>
<radialGradient id="paint41_radial_334_4226" cx="0" cy="0" r="1" gradientUnits="userSpaceOnUse" gradientTransform="translate(13.9758 17.6896) rotate(0.442381) scale(14.727 14.3401)">
<stop offset="0.71" stop-color="#EFEFEF"/>
<stop offset="0.82" stop-color="#D5D5D5"/>
<stop offset="0.92" stop-color="#BCBCBC"/>
</radialGradient>
<radialGradient id="paint42_radial_334_4226" cx="0" cy="0" r="1" gradientUnits="userSpaceOnUse" gradientTransform="translate(16.3762 19.0604) rotate(0.442381) scale(14.055 13.6858)">
<stop offset="0.56" stop-color="white"/>
<stop offset="0.75" stop-color="white" stop-opacity="0.5"/>
<stop offset="0.94" stop-color="white" stop-opacity="0"/>
</radialGradient>
<radialGradient id="paint43_radial_334_4226" cx="0" cy="0" r="1" gradientUnits="userSpaceOnUse" gradientTransform="translate(3.28426 18.344) rotate(-7.2188) scale(4.50467 4.38993)">
<stop offset="0.7" stop-color="#EFEFEF"/>
<stop offset="0.84" stop-color="#D5D5D5"/>
<stop offset="0.98" stop-color="#BCBCBC"/>
</radialGradient>
<radialGradient id="paint44_radial_334_4226" cx="0" cy="0" r="1" gradientUnits="userSpaceOnUse" gradientTransform="translate(4.29183 19.581) rotate(-7.2188) scale(2.1267 2.07253)">
<stop offset="0.27" stop-color="white"/>
<stop offset="0.53" stop-color="white" stop-opacity="0.5"/>
<stop offset="0.78" stop-color="white" stop-opacity="0"/>
</radialGradient>
<radialGradient id="paint45_radial_334_4226" cx="0" cy="0" r="1" gradientUnits="userSpaceOnUse" gradientTransform="translate(2.04826 21.6859) rotate(-7.2188) scale(0.989458 0.964255)">
<stop offset="0.27" stop-color="white"/>
<stop offset="0.53" stop-color="white" stop-opacity="0.5"/>
<stop offset="0.78" stop-color="white" stop-opacity="0"/>
</radialGradient>
<radialGradient id="paint46_radial_334_4226" cx="0" cy="0" r="1" gradientUnits="userSpaceOnUse" gradientTransform="translate(2.97663 20.9336) rotate(-8.05016) scale(1.00069 0.975361)">
<stop offset="0.36" stop-color="#BD3530"/>
<stop offset="0.68" stop-color="#97312E"/>
<stop offset="1" stop-color="#722D2C"/>
</radialGradient>
<radialGradient id="paint47_radial_334_4226" cx="0" cy="0" r="1" gradientUnits="userSpaceOnUse" gradientTransform="translate(9.80557 22.4121) rotate(1.33926) scale(5.93523 5.77925)">
<stop offset="0.73" stop-color="#ECECEC"/>
<stop offset="0.86" stop-color="#D4D4D4"/>
<stop offset="1" stop-color="#BCBCBC"/>
</radialGradient>
<radialGradient id="paint48_radial_334_4226" cx="0" cy="0" r="1" gradientUnits="userSpaceOnUse" gradientTransform="translate(15.6237 27.1524) rotate(1.33926) scale(12.8802 12.5417)">
<stop offset="0.94" stop-color="#CF8B89"/>
<stop offset="0.96" stop-color="#BA7776"/>
<stop offset="0.99" stop-color="#A66362"/>
</radialGradient>
<radialGradient id="paint49_radial_334_4226" cx="0" cy="0" r="1" gradientUnits="userSpaceOnUse" gradientTransform="translate(7.91844 23.2454) rotate(14.8857) scale(8.25189 8.06409)">
<stop offset="0.74" stop-color="#EFEFEF"/>
<stop offset="0.86" stop-color="#D5D5D5"/>
<stop offset="0.98" stop-color="#BCBCBC"/>
</radialGradient>
<radialGradient id="paint50_radial_334_4226" cx="0" cy="0" r="1" gradientUnits="userSpaceOnUse" gradientTransform="translate(7.57676 24.4643) rotate(14.8857) scale(4.33458 4.23593)">
<stop offset="0.27" stop-color="white"/>
<stop offset="0.53" stop-color="white" stop-opacity="0.5"/>
<stop offset="0.78" stop-color="white" stop-opacity="0"/>
</radialGradient>
<radialGradient id="paint51_radial_334_4226" cx="0" cy="0" r="1" gradientUnits="userSpaceOnUse" gradientTransform="translate(13.9649 29.6066) scale(5.12696 4.99226)">
<stop offset="0.64" stop-color="#EFEFEF"/>
<stop offset="0.81" stop-color="#D5D5D5"/>
<stop offset="0.98" stop-color="#BCBCBC"/>
</radialGradient>
<radialGradient id="paint52_radial_334_4226" cx="0" cy="0" r="1" gradientUnits="userSpaceOnUse" gradientTransform="translate(14.0579 28.8839) scale(4.55635 4.43664)">
<stop offset="0.27" stop-color="white"/>
<stop offset="0.6" stop-color="white" stop-opacity="0.5"/>
<stop offset="0.93" stop-color="white" stop-opacity="0"/>
</radialGradient>
<radialGradient id="paint53_radial_334_4226" cx="0" cy="0" r="1" gradientUnits="userSpaceOnUse" gradientTransform="translate(10.7215 34.2089) scale(1.41872 1.38145)">
<stop offset="0.27" stop-color="white"/>
<stop offset="0.6" stop-color="white" stop-opacity="0.5"/>
<stop offset="0.93" stop-color="white" stop-opacity="0"/>
</radialGradient>
<radialGradient id="paint54_radial_334_4226" cx="0" cy="0" r="1" gradientUnits="userSpaceOnUse" gradientTransform="translate(17.6387 22.7594) rotate(0.315801) scale(8.19232 8.14264)">
<stop offset="0.74" stop-color="#EFEFEF"/>
<stop offset="0.86" stop-color="#D5D5D5"/>
<stop offset="0.98" stop-color="#BCBCBC"/>
</radialGradient>
<radialGradient id="paint55_radial_334_4226" cx="0" cy="0" r="1" gradientUnits="userSpaceOnUse" gradientTransform="translate(17.6321 24.0378) rotate(0.315801) scale(4.30329 4.27719)">
<stop offset="0.27" stop-color="white"/>
<stop offset="0.53" stop-color="white" stop-opacity="0.5"/>
<stop offset="0.78" stop-color="white" stop-opacity="0"/>
</radialGradient>
<radialGradient id="paint56_radial_334_4226" cx="0" cy="0" r="1" gradientUnits="userSpaceOnUse" gradientTransform="translate(23.0041 29.5424) scale(5.08079 5.04998)">
<stop offset="0.64" stop-color="#EFEFEF"/>
<stop offset="0.81" stop-color="#D5D5D5"/>
<stop offset="0.98" stop-color="#BCBCBC"/>
</radialGradient>
<radialGradient id="paint57_radial_334_4226" cx="0" cy="0" r="1" gradientUnits="userSpaceOnUse" gradientTransform="translate(23.0962 28.812) scale(4.51531 4.48793)">
<stop offset="0.27" stop-color="white"/>
<stop offset="0.6" stop-color="white" stop-opacity="0.5"/>
<stop offset="0.93" stop-color="white" stop-opacity="0"/>
</radialGradient>
<radialGradient id="paint58_radial_334_4226" cx="0" cy="0" r="1" gradientUnits="userSpaceOnUse" gradientTransform="translate(19.7895 34.1989) scale(1.40594 1.39742)">
<stop offset="0.27" stop-color="white"/>
<stop offset="0.6" stop-color="white" stop-opacity="0.5"/>
<stop offset="0.93" stop-color="white" stop-opacity="0"/>
</radialGradient>
<radialGradient id="paint59_radial_334_4226" cx="0" cy="0" r="1" gradientUnits="userSpaceOnUse" gradientTransform="translate(26.8643 22.967) rotate(0.23066) scale(8.19489 8.13943)">
<stop offset="0.74" stop-color="#EFEFEF"/>
<stop offset="0.86" stop-color="#D5D5D5"/>
<stop offset="0.98" stop-color="#BCBCBC"/>
</radialGradient>
<radialGradient id="paint60_radial_334_4226" cx="0" cy="0" r="1" gradientUnits="userSpaceOnUse" gradientTransform="translate(26.8592 24.2455) rotate(0.23066) scale(4.30464 4.27551)">
<stop offset="0.27" stop-color="white"/>
<stop offset="0.53" stop-color="white" stop-opacity="0.5"/>
<stop offset="0.78" stop-color="white" stop-opacity="0"/>
</radialGradient>
<radialGradient id="paint61_radial_334_4226" cx="0" cy="0" r="1" gradientUnits="userSpaceOnUse" gradientTransform="translate(32.5127 29.5434) scale(5.08238 5.04799)">
<stop offset="0.64" stop-color="#EFEFEF"/>
<stop offset="0.81" stop-color="#D5D5D5"/>
<stop offset="0.98" stop-color="#BCBCBC"/>
</radialGradient>
<radialGradient id="paint62_radial_334_4226" cx="0" cy="0" r="1" gradientUnits="userSpaceOnUse" gradientTransform="translate(32.6043 28.8132) scale(4.51673 4.48616)">
<stop offset="0.27" stop-color="white"/>
<stop offset="0.6" stop-color="white" stop-opacity="0.5"/>
<stop offset="0.93" stop-color="white" stop-opacity="0"/>
</radialGradient>
<radialGradient id="paint63_radial_334_4226" cx="0" cy="0" r="1" gradientUnits="userSpaceOnUse" gradientTransform="translate(29.2968 34.197) scale(1.40639 1.39687)">
<stop offset="0.27" stop-color="white"/>
<stop offset="0.6" stop-color="white" stop-opacity="0.5"/>
<stop offset="0.93" stop-color="white" stop-opacity="0"/>
</radialGradient>
<clipPath id="clip0_334_4226">
<rect width="40" height="40" fill="white"/>
</clipPath>
</defs>
</svg>
