<svg width="41" height="40" viewBox="0 0 41 40" fill="none" xmlns="http://www.w3.org/2000/svg">
<g clip-path="url(#clip0_334_3158)">
<mask id="mask0_334_3158" style="mask-type:luminance" maskUnits="userSpaceOnUse" x="0" y="0" width="41" height="40">
<path d="M40.125 0H0.125V40H40.125V0Z" fill="white"/>
</mask>
<g mask="url(#mask0_334_3158)">
<path d="M14.6103 8.19677C16.7493 3.61595 19.0519 2.22839 19.0519 2.22839C19.0519 2.22839 22.2694 8.07198 14.8846 8.60998L14.6103 8.19677Z" fill="#A5A5A5"/>
<path d="M14.6103 8.19677C16.7493 3.61595 19.0519 2.22839 19.0519 2.22839C19.0519 2.22839 22.2694 8.07198 14.8846 8.60998L14.6103 8.19677Z" stroke="#777777" stroke-width="0.632138" stroke-linecap="round" stroke-linejoin="round"/>
<path d="M35.8519 30.0698C35.8519 30.0698 35.7572 30.8598 36.1455 31.1443C36.5447 31.437 36.9266 31.0762 37.6111 31.4778C38.2245 31.8375 38.6854 32.8716 38.0812 34.0335C37.4661 35.2163 34.779 37.13 32.7596 36.3883C31.7914 36.0328 31.1118 34.9824 31.3173 33.8146L35.8519 30.0698Z" fill="url(#paint0_radial_334_3158)"/>
<path d="M35.8519 30.0698C35.8519 30.0698 35.7572 30.8598 36.1455 31.1443C36.5447 31.437 36.9266 31.0762 37.6111 31.4778C38.2245 31.8375 38.6854 32.8716 38.0812 34.0335C37.4661 35.2163 34.779 37.13 32.7596 36.3883C31.7914 36.0328 31.1118 34.9824 31.3173 33.8146L35.8519 30.0698Z" stroke="#838384" stroke-width="0.632591" stroke-linecap="round" stroke-linejoin="round"/>
<path d="M37.6395 32.523C38.0942 33.4394 37.0771 34.5703 35.732 35.2746C34.3869 35.979 33.1781 35.9914 32.835 35.5852C32.492 35.179 33.4751 34.6856 35.1306 33.4763C36.7862 32.2671 37.3772 31.9945 37.6395 32.523Z" fill="url(#paint1_radial_334_3158)"/>
<path d="M14.3287 19.6908C14.3287 19.6908 10.7185 21.6056 9.92671 22.7873C9.13491 23.969 8.91664 24.567 8.66705 25.0045C8.41746 25.4419 8.26485 25.5864 7.98199 26.0187C7.69913 26.4509 7.527 27.1584 7.97318 27.3588C8.41418 27.5569 8.9594 27.2574 9.69102 26.5112C10.4906 25.6957 10.4166 25.4584 10.991 24.678C11.6197 23.8239 13.6801 22.9602 14.3974 22.2104L14.3287 19.6908Z" fill="url(#paint2_radial_334_3158)"/>
<path d="M14.2662 19.6897C14.2662 19.6897 10.7183 21.6049 9.92648 22.7866C9.13467 23.9684 8.9164 24.5664 8.66681 25.0038C8.41722 25.4412 8.26462 25.5858 7.98175 26.018C7.69889 26.4502 7.52676 27.1577 7.97294 27.3581C8.41394 27.5562 8.95916 27.2567 9.69078 26.5105C10.4904 25.695 10.4163 25.4578 10.9908 24.6774C11.6195 23.8232 13.6799 22.9595 14.3972 22.2097L14.2662 19.6897Z" stroke="#666666" stroke-width="0.652844" stroke-linecap="round" stroke-linejoin="round"/>
<path d="M8.92595 25.7335C8.69837 26.1037 8.49871 26.6296 8.75558 26.8261C9.01245 27.0227 9.46328 26.7354 9.46328 26.7354" stroke="#666666" stroke-width="0.652844" stroke-linecap="round" stroke-linejoin="round"/>
<path d="M15.5476 10.6948C15.9485 11.39 16.0039 11.6764 16.2901 12.0708C16.882 12.8863 18.1699 13.5347 19.1833 14.5311C20.1968 15.5276 20.5083 15.9815 21.334 16.4312C22.1597 16.8809 24.3808 17.343 27.2604 18.795C30.1401 20.2469 34.7031 21.6779 35.8843 25.1168C37.8712 30.8761 33.2133 35.3601 30.2121 36.5321C27.5336 37.5781 23.2786 35.9629 20.4209 32.0704C19.2717 30.5051 19.3502 28.9928 17.7992 26.8894C16.4276 25.0294 14.6835 24.7112 13.4939 22.9749C11.5352 20.1164 13.1947 15.8731 10.4036 14.092" fill="url(#paint3_radial_334_3158)"/>
<path d="M35.8846 25.1171C34.7082 21.676 30.1404 20.2474 27.2608 18.7954C24.3812 17.3435 22.1599 16.8814 21.3342 16.4317C20.5085 15.9819 20.1971 15.5279 19.1837 14.5314C18.1702 13.535 16.8824 12.8866 16.2904 12.0711C16.115 11.8295 16.0261 11.6281 15.8916 11.3486L15.8857 12.2487C16.1783 13.3463 17.6073 14.3621 18.4476 15.0062C19.2879 15.6503 20.0002 16.8777 20.6808 17.3881C21.5758 18.0592 25.2141 18.4118 28.7471 21.3855C32.0976 24.2056 34.9526 25.9987 35.0734 28.1372C35.3733 33.3229 29.9441 36.1158 29.9441 36.1158L30.386 36.4583C33.2678 35.1447 38.1169 31.6123 35.8846 25.1171Z" fill="#D4D4D4"/>
<path d="M15.5476 10.6948C15.9485 11.39 16.0039 11.6764 16.2901 12.0708C16.882 12.8863 18.1699 13.5347 19.1833 14.5311C20.1968 15.5276 20.5083 15.9815 21.334 16.4312C22.1597 16.8809 24.3808 17.343 27.2604 18.795C30.1401 20.2469 34.8342 21.6255 35.8843 25.1168C37.7705 31.3864 33.2133 35.3601 30.2121 36.5321C27.5336 37.5781 23.2786 35.9629 20.4209 32.0704C19.2717 30.5051 19.3502 28.9928 17.7992 26.8894C16.4276 25.0294 14.6835 24.7112 13.4939 22.9749C11.5352 20.1164 13.1947 15.8731 10.4036 14.092" stroke="#939596" stroke-width="0.631655" stroke-linecap="round" stroke-linejoin="round"/>
<path d="M30.8136 33.0964C28.8007 35.7492 25.9079 32.3452 22.1005 28.7906C18.293 25.2361 17.0141 21.3038 18.2444 19.6715C19.8659 17.5204 25.0733 19.0776 28.8807 22.6322C32.6882 26.1869 32.8265 30.4437 30.8136 33.0964Z" fill="url(#paint4_radial_334_3158)"/>
<path d="M14.7588 8.7636C18.4781 4.71743 21.8572 6.51863 23.249 6.06777C23.249 6.06777 23.7292 12.2314 14.8931 9.01607L14.7588 8.7636Z" fill="url(#paint5_radial_334_3158)"/>
<path d="M14.7588 8.7636C18.4781 4.71743 21.8572 6.51863 23.249 6.06777C23.249 6.06777 23.7292 12.2314 14.8931 9.01607L14.7588 8.7636Z" stroke="#939596" stroke-width="0.63254" stroke-linecap="round" stroke-linejoin="round"/>
<path d="M15.9273 8.68525C19.4951 6.44916 22.4823 6.86019 22.4823 6.86019C22.4823 6.86019 22.0604 10.1192 15.9273 8.68525Z" fill="url(#paint6_radial_334_3158)"/>
<path d="M11.9387 14.1686C11.057 14.1066 10.9829 13.9705 10.2914 13.6395C9.59986 13.3086 9.07479 13.465 8.38961 13.0854C7.96605 12.8508 7.51118 11.5144 7.62181 10.9135C7.71839 10.3888 8.36662 9.87341 8.88234 9.39287C9.49523 8.8218 10.1238 8.20725 10.981 7.64059C12.4457 6.67242 13.5425 6.8378 14.4905 7.13551C17.2794 8.01154 16.676 11.6225 15.8611 13.1896C15.8611 13.1896 15.4278 13.6548 14.1794 13.9957C12.9309 14.3366 11.9387 14.1686 11.9387 14.1686Z" fill="url(#paint7_radial_334_3158)"/>
<path d="M12.6592 14.063C10.8381 13.7548 10.2185 11.9688 10.2185 11.9688C9.5531 13.3906 8.32012 13.0365 7.66772 11.6468C7.79606 12.2497 8.0999 12.9244 8.38931 13.0846C9.07449 13.4642 9.59953 13.308 10.2911 13.6389C10.5345 13.7553 10.7011 13.8472 10.8536 13.9206C11.7049 14.2557 12.2708 14.1559 12.6592 14.063Z" fill="#A9AAAB"/>
<path d="M11.9387 14.1686C11.057 14.1066 10.9829 13.9705 10.2914 13.6395C9.59986 13.3086 9.07479 13.465 8.38961 13.0854C7.96605 12.8508 7.51118 11.5144 7.62181 10.9135C7.71839 10.3888 8.36662 9.87341 8.88234 9.39287C9.49523 8.8218 10.1238 8.20725 10.981 7.64059C12.4457 6.67242 13.5425 6.8378 14.4905 7.13551C17.2794 8.01154 16.676 11.6225 15.8611 13.1896" stroke="#939596" stroke-width="0.631914" stroke-linecap="round" stroke-linejoin="round"/>
<path d="M15.8 9.9598C16.0819 11.5337 15.0758 12.9262 13.5858 13.2545C12.0957 13.5828 10.6861 12.7226 10.4043 11.1487C10.1224 9.57482 11.0371 8.12185 12.5271 7.79357C14.0172 7.46529 15.5182 8.38592 15.8 9.9598Z" fill="url(#paint8_radial_334_3158)"/>
<path d="M9.89022 11.3485C10.0046 11.9874 9.69271 12.5312 9.20687 12.6383C8.72102 12.7453 8.24532 12.375 8.13093 11.7362C8.01654 11.0973 8.29758 10.5275 8.78342 10.4204C9.26926 10.3133 9.77583 10.7096 9.89022 11.3485Z" fill="url(#paint9_radial_334_3158)"/>
<path d="M8.0963 10.6202C8.18895 10.8634 7.89631 11.537 7.54425 11.4361C7.19219 11.3351 7.15586 10.7311 7.29363 10.5023C7.47767 10.1966 7.99295 10.3487 8.0963 10.6202Z" fill="#5E413F"/>
<path d="M10.6611 9.11549C10.6495 8.63999 12.5647 7.90381 12.6199 8.17499C12.6751 8.44617 11.2833 9.04971 11.2833 9.04971C11.2833 9.04971 12.6442 9.09291 12.5404 9.46867C12.4365 9.84442 10.6736 9.62439 10.6611 9.11549Z" fill="#A9AAAB"/>
<path d="M10.5879 9.60084C10.5763 9.12535 12.4914 8.38916 12.5467 8.66034C12.6019 8.93152 11.2101 9.53506 11.2101 9.53506C11.2101 9.53506 12.571 9.57826 12.4671 9.95402C12.3633 10.3298 10.6004 10.1097 10.5879 9.60084Z" fill="white"/>
<path d="M10.6513 9.38307C10.6398 8.90757 12.5549 8.17139 12.6101 8.44257C12.6653 8.71375 11.2736 9.31728 11.2736 9.31728C11.2736 9.31728 12.6345 9.36049 12.5306 9.73624C12.4268 10.112 10.6639 9.89197 10.6513 9.38307Z" fill="url(#paint10_radial_334_3158)"/>
<path d="M22.083 23.6393C20.6405 22.0979 18.6441 21.1422 16.4389 21.1387C14.2337 21.1351 12.2343 22.0846 10.7868 23.6213C9.33909 25.1578 8.44135 27.2842 8.4376 29.6327C8.43378 31.9812 9.32496 34.1102 10.7676 35.6516C12.21 37.193 14.2065 38.1486 16.4117 38.1522C18.6169 38.1558 20.6163 37.2063 22.0638 35.6696C23.5115 34.133 24.4092 32.0067 24.413 29.6582C24.4169 27.3097 23.5257 25.1806 22.083 23.6393ZM21.83 35.4197C20.4415 36.8934 18.527 37.8027 16.4123 37.7993C14.2975 37.7958 12.3858 36.8807 11.0022 35.4025C9.61879 33.9241 8.76533 31.8854 8.76893 29.6332C8.7726 27.381 9.63234 25.3449 11.0206 23.8712C12.409 22.3976 14.3235 21.4882 16.4383 21.4916C18.5531 21.495 20.4648 22.4102 21.8484 23.8885C23.2318 25.3668 24.0853 27.4055 24.0817 29.6577C24.078 31.9099 23.2183 33.946 21.83 35.4197Z" fill="#E76900"/>
<path d="M23.9476 29.6569C23.9405 34.0807 20.5674 37.6614 16.4136 37.6548C12.2598 37.6482 8.89813 34.0567 8.90519 29.6329C8.91225 25.2092 12.2854 21.6284 16.4392 21.635C20.593 21.6417 23.9546 25.2332 23.9476 29.6569Z" fill="url(#paint11_linear_334_3158)"/>
<path d="M23.1322 29.6854C23.0678 33.7153 20.0142 36.9284 16.3118 36.8621C12.6095 36.7957 9.66028 33.4751 9.72472 29.4451C9.7892 25.4153 12.8428 22.2022 16.5452 22.2685C20.2475 22.3349 23.1966 25.6555 23.1322 29.6854Z" fill="url(#paint12_radial_334_3158)"/>
<path d="M15.6163 36.8885C14.0626 36.8533 13.2062 36.8938 13.1023 34.9771C13.0416 33.8565 13.2528 33.271 13.4225 32.8005C13.5099 32.5584 13.9269 32.1617 14.0091 31.9457C14.1202 31.6536 14.1865 31.3621 14.245 31.1049C14.3454 30.6635 14.4246 30.3149 14.6784 30.2617C14.7517 30.2463 14.8308 30.2509 14.9071 30.2749C15.2422 30.3805 15.4917 30.8222 15.3204 31.4623C15.2794 31.6154 15.2333 31.7545 15.1926 31.8772C15.0442 32.3243 14.7186 32.4818 15.114 32.7144C15.2416 32.7894 15.4326 32.8303 15.6818 32.8359L15.682 32.8359C16.3377 32.8508 17.2502 32.6267 17.9164 32.4633L18.0086 32.4406C18.9256 32.2161 18.6795 32.0448 19.0272 32.0527C19.2891 32.0587 19.4587 32.1806 19.5104 32.3735C19.6288 32.8153 19.3182 33.0905 18.6919 33.3619C18.3481 33.5431 18.0911 33.6649 17.6467 33.8569C17.8226 33.9124 17.9432 34.085 17.9513 34.3908C17.9593 34.7418 17.7959 34.8877 17.6658 34.9502C17.7841 35.024 17.9384 35.1949 17.9392 35.4905C17.94 35.815 17.7385 35.9848 17.6249 36.0431C17.686 36.1178 17.6653 36.2746 17.5184 36.4163C17.2427 36.6854 16.9297 36.9183 15.6163 36.8885Z" fill="url(#paint13_linear_334_3158)"/>
<g opacity="0.75">
<path d="M20.5062 30.2628C20.4751 30.2692 20.4435 30.2692 20.4121 30.263C19.7344 30.127 19.0218 29.6086 17.8954 29.8395C17.5161 29.9172 16.7522 30.4031 16.3798 30.5656C16.3644 30.5723 16.3484 30.5773 16.3323 30.5806C16.2198 30.6037 16.1056 30.5416 16.0608 30.433C16.0084 30.3062 16.0848 30.1865 16.1898 30.1051C16.5638 29.8064 17.0859 29.4621 17.8053 29.347C19.1294 29.1244 19.9796 29.5444 20.505 29.772C20.5628 29.8001 20.6242 29.8224 20.6605 29.8778C20.6969 29.9332 20.71 29.9998 20.6975 30.0654C20.6785 30.1654 20.6035 30.2429 20.5062 30.2628Z" fill="#EAAC1F"/>
</g>
<path d="M20.4867 30.4364C20.4564 30.4426 20.4237 30.448 20.3951 30.4365C19.7283 30.161 19.1112 29.871 18.004 30.0251C17.3305 30.1055 16.8288 30.4555 16.4628 30.7322C16.4497 30.7416 16.4323 30.7436 16.4166 30.7468C16.307 30.7693 16.1958 30.7088 16.1522 30.603C16.1012 30.4794 16.1575 30.3361 16.2777 30.2836C16.6729 30.1112 17.4708 29.6631 17.8725 29.5807C19.0542 29.3385 19.7859 29.818 20.4855 29.9583C20.548 29.9708 20.6017 30.0074 20.637 30.0613C20.6724 30.1153 20.6851 30.1802 20.673 30.2441C20.6545 30.3415 20.5814 30.417 20.4867 30.4364Z" fill="#FEDD78"/>
<path d="M20.4953 30.2349C20.4779 30.2384 20.4578 30.2431 20.4412 30.2349C19.5777 29.796 18.0615 29.3245 16.3232 30.5459C16.2593 30.5891 16.17 30.5427 16.1398 30.4696C16.1096 30.3965 16.1494 30.3232 16.214 30.2811C17.9715 29.1076 19.5558 29.4513 20.4948 29.9526C20.5625 29.9869 20.6201 30.0434 20.6053 30.1213C20.5941 30.1803 20.5493 30.2238 20.4953 30.2349Z" fill="#874101"/>
<path d="M16.1369 26.1055C16.1634 26.7381 15.8173 27.2672 15.3639 27.2874C14.9106 27.3075 14.5215 26.8111 14.4949 26.1785C14.4684 25.5459 14.8144 25.0168 15.2678 24.9966C15.7212 24.9764 16.1103 25.4729 16.1369 26.1055Z" fill="#EAAC1F"/>
<path d="M16.1573 26.5791C16.1839 27.2117 15.8378 27.7408 15.3845 27.7609C14.9311 27.7811 14.542 27.2847 14.5154 26.6521C14.4889 26.0195 14.8349 25.4904 15.2883 25.4702C15.7417 25.4501 16.1308 25.9465 16.1573 26.5791Z" fill="#FEDC97"/>
<path d="M16.1021 26.3424C16.1287 26.975 15.8056 27.5032 15.3806 27.522C14.9555 27.5409 14.5894 27.0435 14.5629 26.4109C14.5363 25.7783 14.8594 25.2502 15.2844 25.2313C15.7095 25.2124 16.0756 25.7099 16.1021 26.3424Z" fill="#974800"/>
<path d="M16.1014 26.3422C16.1035 26.3925 16.1034 26.4422 16.1009 26.4909C16.029 25.93 15.6875 25.51 15.2962 25.5274C14.9049 25.5448 14.5999 25.9936 14.5752 26.5587C14.5687 26.5104 14.5644 26.461 14.5623 26.4106C14.5357 25.7779 14.8588 25.25 15.2837 25.231C15.7088 25.2122 16.0748 25.7095 16.1014 26.3422Z" fill="#632900"/>
<path d="M20.6493 25.6735C20.6738 26.258 20.3541 26.7469 19.9352 26.7655C19.5163 26.7841 19.1568 26.3255 19.1323 25.741C19.1077 25.1566 19.4275 24.6677 19.8463 24.6491C20.2653 24.6304 20.6247 25.0891 20.6493 25.6735Z" fill="#EAAC1F"/>
<path d="M20.6688 26.111C20.6933 26.6955 20.3736 27.1843 19.9547 27.203C19.5358 27.2216 19.1763 26.7629 19.1518 26.1785C19.1273 25.5941 19.447 25.1052 19.8659 25.0866C20.2848 25.0679 20.6443 25.5266 20.6688 26.111Z" fill="#FEDC97"/>
<path d="M20.6163 25.8921C20.6409 26.4765 20.3424 26.9645 19.9497 26.9819C19.5569 26.9994 19.2187 26.5398 19.1942 25.9553C19.1696 25.3709 19.4681 24.8829 19.8608 24.8655C20.2536 24.848 20.5918 25.3076 20.6163 25.8921Z" fill="#974800"/>
<path d="M20.6169 25.8908C20.6188 25.9373 20.6187 25.9832 20.6164 26.0282C20.55 25.51 20.2345 25.1219 19.8729 25.138C19.5114 25.154 19.2296 25.5687 19.2068 26.0909C19.2008 26.0462 19.1968 26.0005 19.1948 25.954C19.1703 25.3694 19.4688 24.8817 19.8614 24.8642C20.2541 24.8467 20.5923 25.3062 20.6169 25.8908Z" fill="#632900"/>
<path d="M18.7346 24.3615C18.6279 24.0983 18.9942 23.331 19.6608 23.1759C20.5137 22.9774 20.863 24.072 20.8449 24.2733C20.8296 24.4423 20.5893 23.6475 19.9494 23.8493C19.3239 24.0465 18.8355 24.6105 18.7346 24.3615Z" fill="#FFDE9C"/>
<path d="M18.7386 24.161C18.6473 23.9668 19.0966 23.2926 19.6649 23.1548C20.4865 22.9556 20.9052 23.9983 20.8797 24.1511C20.8582 24.2794 20.5215 23.4619 19.9015 23.6417C19.2954 23.8176 18.8251 24.3447 18.7386 24.161Z" fill="#974800"/>
<path d="M18.7686 24.2004C18.8275 24.0039 19.2449 23.4317 19.6991 23.331C20.4341 23.1681 20.6125 23.9526 20.8058 24.1045C20.8688 24.0859 20.8754 24.1764 20.8797 24.1511C20.9052 23.9983 20.4865 22.9556 19.6649 23.1548C19.0966 23.2926 18.6473 23.9668 18.7386 24.161C18.7466 24.1778 18.7565 24.1908 18.7686 24.2004Z" fill="#632900"/>
<path d="M15.8568 24.3776C16.0542 24.0097 15.3412 23.8655 14.26 24.0499C12.9522 24.2728 12.5785 24.8055 12.812 25.013C12.9176 25.1068 13.3358 24.8812 14.354 24.629C15.3054 24.3934 15.7385 24.5981 15.8568 24.3776Z" fill="#FFDE9C"/>
<path d="M15.8078 24.172C15.9246 23.9418 15.1129 23.8008 14.2587 23.9915C13.0984 24.2507 12.6709 24.771 12.7761 24.8547C12.8568 24.9189 13.3591 24.6688 14.351 24.451C15.2842 24.2461 15.6778 24.4281 15.8078 24.172Z" fill="#974800"/>
<path d="M14.2655 24.1439C14.9654 23.9662 15.6328 24.0872 15.8009 24.1472C15.8066 24.142 15.8036 24.1796 15.8068 24.1718C15.9176 23.9027 15.1091 23.7777 14.2589 23.986C13.1201 24.265 12.7321 24.6804 12.7588 24.8264C12.9933 24.5418 13.4706 24.3457 14.2655 24.1439Z" fill="#632900"/>
<path d="M21.8693 23.8668C20.4823 22.3847 18.5626 21.4658 16.4422 21.4625C14.3218 21.459 12.3993 22.3719 11.0075 23.8495C9.61549 25.327 8.75228 27.3715 8.74867 29.6297C8.74499 31.8879 9.6019 33.9351 10.989 35.4171C12.376 36.8993 14.2957 37.8181 16.4161 37.8215C18.5365 37.825 20.4589 36.912 21.8508 35.4344C23.2428 33.957 24.106 31.9124 24.1096 29.6542C24.1133 27.3961 23.2564 25.3489 21.8693 23.8668ZM21.6259 35.1942C20.2909 36.6111 18.4501 37.4855 16.4166 37.4822C14.3832 37.4789 12.545 36.5989 11.2147 35.1776C9.88443 33.7561 9.06379 31.7958 9.06726 29.6302C9.07078 27.4647 9.89746 25.5069 11.2324 24.0898C12.5674 22.6729 14.4082 21.7985 16.4416 21.8017C18.4751 21.8051 20.3133 22.6851 21.6436 24.1064C22.9739 25.5279 23.7945 27.4882 23.7911 29.6537C23.7875 31.8193 22.9609 33.7771 21.6259 35.1942Z" fill="#E76900"/>
<path d="M15.3788 36.9413C13.8251 36.906 12.799 36.7395 12.6951 34.8229C12.6344 33.7022 12.8456 33.1167 13.0153 32.6463C13.1026 32.4041 13.5197 32.0074 13.6019 31.7914C13.713 31.4993 13.7793 31.2078 13.8378 30.9506C13.9381 30.5092 14.0174 30.1606 14.2712 30.1074C14.3445 30.092 14.4235 30.0966 14.4999 30.1206C14.8349 30.2262 15.0845 30.6679 14.9131 31.3081C14.8722 31.4611 14.826 31.6002 14.7853 31.7229C14.6369 32.17 14.3113 32.3275 14.7068 32.5601C14.8344 32.6351 15.0254 32.676 15.2746 32.6816L15.2748 32.6816C15.9305 32.6965 16.8429 32.4724 17.5092 32.309L17.6014 32.2863C18.5184 32.0618 18.3958 31.9297 18.7435 31.9375C19.0055 31.9435 19.1453 32.0321 19.197 32.225C19.3154 32.6668 18.8512 32.8864 18.2179 33.1311C17.8598 33.2866 17.5942 33.4832 17.1163 33.662C17.2921 33.7175 17.525 33.8791 17.5441 34.2365C17.5628 34.5872 17.3887 34.7335 17.2585 34.7959C17.3769 34.8697 17.5312 35.0406 17.5319 35.3362C17.5328 35.6607 17.3313 35.8305 17.2177 35.8888C17.2788 35.9635 17.2976 36.1018 17.2555 36.3328C17.1749 36.7745 16.6922 36.971 15.3788 36.9413Z" fill="url(#paint14_radial_334_3158)"/>
<path d="M15.3881 36.9977C13.8346 36.9562 12.8083 36.795 12.7047 34.865C12.6442 33.7365 12.9737 32.7349 13.2528 32.3392C13.3965 32.1355 13.5206 31.9596 13.6023 31.7433C13.7127 31.4508 13.7782 31.1589 13.836 30.9013C13.9352 30.4594 14.0135 30.1104 14.2672 30.0564C14.3406 30.0408 14.4197 30.0451 14.4961 30.069C14.8317 30.1736 15.0826 30.6149 14.9129 31.2558C14.8723 31.4092 14.8266 31.5484 14.7862 31.6713C14.6389 32.1191 14.6301 32.3504 14.873 32.5534C14.9695 32.6434 15.0974 32.6811 15.3466 32.6868L15.3468 32.6868C15.9634 32.6863 16.5436 32.5631 17.1059 32.4511C17.3931 32.4067 18.1519 32.193 18.4478 32.0564C18.694 31.932 18.8857 31.8668 19.0788 32.0365C19.3188 32.3192 18.9257 32.8362 18.1682 33.2061C17.827 33.3914 17.512 33.5007 17.0338 33.6879C17.2096 33.7457 17.5029 33.8959 17.5219 34.2558C17.5406 34.6089 17.3059 34.7721 17.1758 34.835C17.2941 34.9093 17.4634 35.0822 17.4641 35.3799C17.4649 35.7066 17.2484 35.8768 17.1348 35.9355C17.1959 36.0107 17.2186 36.1662 17.1764 36.3988C17.0958 36.8437 16.5202 37.0275 15.3881 36.9977Z" stroke="#E76900" stroke-width="0.602837" stroke-linecap="round" stroke-linejoin="round"/>
<path d="M15.2449 15.9102C16.7836 15.4786 18.9277 18.5802 19.0177 20.2582C19.1069 21.8257 19.1624 20.3855 18.9898 21.181C18.8656 21.7539 18.4981 23.1555 18.1436 23.441C17.2969 24.123 14.9947 24.6591 14.2439 24.8694C13.1776 25.1683 13.0291 26.0825 12.1417 27.2557C11.3814 28.2608 10.3156 29.081 9.52272 28.6783C8.72986 28.2756 9.59968 27.049 10.4493 26.1308C10.9793 25.5582 10.9276 24.8465 11.5011 23.5422C12.065 22.2596 12.333 22.2411 12.3886 22.072C12.5096 21.7042 12.3591 19.4355 12.7372 17.4557C13.1153 15.476 13.8963 16.2805 15.2449 15.9102Z" fill="url(#paint15_radial_334_3158)"/>
<path d="M19.0018 21.1129C19.2003 21.9292 18.4989 23.1555 18.1444 23.441C17.2977 24.123 14.9955 24.6591 14.2447 24.8695C13.1784 25.1683 13.0298 26.0826 12.1424 27.2558C11.3821 28.2609 10.3162 29.0811 9.52337 28.6784C8.73051 28.2756 9.60049 27.0491 10.4501 26.1309C10.9801 25.5583 10.9284 24.8465 11.5019 23.5423C12.0658 22.2597 12.3338 22.2413 12.3894 22.0722C12.5104 21.7044 12.3597 19.4355 12.7378 17.4558C12.9742 16.2185 13.1339 16.1168 13.8261 15.6802" stroke="#939596" stroke-width="0.631659" stroke-linecap="round" stroke-linejoin="round"/>
<path d="M10.6987 28.5772C10.6987 28.5772 10.1746 28.7289 9.96429 28.4233C9.733 28.0874 10.077 27.604 10.4394 27.2802" stroke="#939596" stroke-width="0.631659" stroke-linecap="round" stroke-linejoin="round"/>
<path d="M15.4856 16.5881C16.9671 16.5212 17.6688 19.0369 17.7695 20.5248C17.9125 22.3851 17.8905 23.6635 15.8097 23.6602C13.8482 23.6571 14.0076 21.6413 13.3746 20.4709C12.6927 19.256 13.6332 16.6959 15.4856 16.5881Z" fill="url(#paint16_radial_334_3158)"/>
<path d="M25.9747 35.9554C23.7179 35.35 22.6515 32.3577 23.0265 29.5733C23.4639 26.3256 26.742 22.4456 29.9714 23.2381C32.0573 23.75 33.4969 26.8101 33.4615 30.125C33.4372 32.4046 30.1737 35.6783 30.1737 36.0821C30.1737 36.4859 30.4017 37.2972 30.236 37.6527H17.9043C17.9041 36.8862 18.373 34.7658 20.2964 34.6251C22.2604 34.4815 24.1967 35.7008 25.9747 35.9554Z" fill="url(#paint17_radial_334_3158)"/>
<path d="M33.2612 27.6643C33.4035 28.425 33.4708 29.2556 33.4615 30.1264C33.4372 32.406 30.1737 35.6796 30.1737 36.0834C30.1737 36.4872 30.4017 37.2986 30.236 37.6542H17.9043C17.9041 36.8876 18.373 34.767 20.2964 34.6263C22.2604 34.4828 24.1967 35.7022 25.9747 35.9568C23.7179 35.3514 22.6515 32.3589 23.0265 29.5746C23.2226 28.1184 24.164 26.0699 25.1935 24.9668" stroke="#939596" stroke-width="0.631653" stroke-linecap="round" stroke-linejoin="round"/>
<path d="M26.2416 34.7408C24.5107 34.5529 23.8595 31.8644 24.1432 29.7584C24.4487 27.4892 26.7119 24.3691 28.9917 24.3691C29.2391 24.3691 29.4874 24.3992 29.73 24.4588C31.1234 24.8007 32.3356 27.218 32.3367 30.1106C32.3374 32.199 29.0494 35.0456 26.2416 34.7408Z" fill="url(#paint18_radial_334_3158)"/>
<path d="M19.5947 36.528C19.5947 36.528 19.8898 35.9404 20.9455 35.9404C21.8593 35.9404 23.847 36.6339 23.847 36.6339L19.5947 36.528Z" fill="url(#paint19_radial_334_3158)"/>
<path d="M19.1133 37.6521C19.315 35.7506 20.4576 35.668 20.4576 35.668" stroke="#939596" stroke-width="0.631653" stroke-linecap="round" stroke-linejoin="round"/>
</g>
</g>
<defs>
<radialGradient id="paint0_radial_334_3158" cx="0" cy="0" r="1" gradientUnits="userSpaceOnUse" gradientTransform="translate(34.8478 33.349) rotate(26.2953) scale(3.24671 3.46891)">
<stop offset="0.46" stop-color="#BCBCBC"/>
<stop offset="0.73" stop-color="#A9A9A9"/>
<stop offset="1" stop-color="#969696"/>
</radialGradient>
<radialGradient id="paint1_radial_334_3158" cx="0" cy="0" r="1" gradientUnits="userSpaceOnUse" gradientTransform="translate(36.4777 30.5143) rotate(26.2953) scale(6.29903 6.73011)">
<stop offset="0.1" stop-color="white" stop-opacity="0.7"/>
<stop offset="0.5" stop-color="white" stop-opacity="0.35"/>
<stop offset="0.89" stop-color="white" stop-opacity="0"/>
</radialGradient>
<radialGradient id="paint2_radial_334_3158" cx="0" cy="0" r="1" gradientUnits="userSpaceOnUse" gradientTransform="translate(11.2932 19.9581) rotate(-6.26196) scale(6.89922 6.38967)">
<stop offset="0.45" stop-color="#969696"/>
<stop offset="0.71" stop-color="#A9A9A9"/>
<stop offset="0.98" stop-color="#BCBCBC"/>
</radialGradient>
<radialGradient id="paint3_radial_334_3158" cx="0" cy="0" r="1" gradientUnits="userSpaceOnUse" gradientTransform="translate(27.8743 5.30336) rotate(1.05968) scale(23.8234 26.4228)">
<stop offset="0.71" stop-color="#EFEFEF"/>
<stop offset="0.82" stop-color="#D5D5D5"/>
<stop offset="0.92" stop-color="#BCBCBC"/>
</radialGradient>
<radialGradient id="paint4_radial_334_3158" cx="0" cy="0" r="1" gradientUnits="userSpaceOnUse" gradientTransform="translate(31.7345 7.87054) rotate(1.05968) scale(22.7364 25.2171)">
<stop offset="0.56" stop-color="white"/>
<stop offset="0.75" stop-color="white" stop-opacity="0.5"/>
<stop offset="0.94" stop-color="white" stop-opacity="0"/>
</radialGradient>
<radialGradient id="paint5_radial_334_3158" cx="0" cy="0" r="1" gradientUnits="userSpaceOnUse" gradientTransform="translate(20.2813 16.8833) rotate(25.3622) scale(9.76998 10.4649)">
<stop offset="0.73" stop-color="#ECECEC"/>
<stop offset="0.86" stop-color="#D4D4D4"/>
<stop offset="1" stop-color="#BCBCBC"/>
</radialGradient>
<radialGradient id="paint6_radial_334_3158" cx="0" cy="0" r="1" gradientUnits="userSpaceOnUse" gradientTransform="translate(26.0996 28.8668) rotate(25.3622) scale(21.2021 22.7101)">
<stop offset="0.94" stop-color="#CF8B89"/>
<stop offset="0.96" stop-color="#BA7776"/>
<stop offset="0.99" stop-color="#A66362"/>
</radialGradient>
<radialGradient id="paint7_radial_334_3158" cx="0" cy="0" r="1" gradientUnits="userSpaceOnUse" gradientTransform="translate(12.8419 5.68155) rotate(12.7607) scale(7.32322 8.0489)">
<stop offset="0.7" stop-color="#EFEFEF"/>
<stop offset="0.84" stop-color="#D5D5D5"/>
<stop offset="0.98" stop-color="#BCBCBC"/>
</radialGradient>
<radialGradient id="paint8_radial_334_3158" cx="0" cy="0" r="1" gradientUnits="userSpaceOnUse" gradientTransform="translate(13.7146 8.42458) rotate(12.7607) scale(3.45737 3.79996)">
<stop offset="0.27" stop-color="white"/>
<stop offset="0.53" stop-color="white" stop-opacity="0.5"/>
<stop offset="0.78" stop-color="white" stop-opacity="0"/>
</radialGradient>
<radialGradient id="paint9_radial_334_3158" cx="0" cy="0" r="1" gradientUnits="userSpaceOnUse" gradientTransform="translate(9.14831 10.7858) rotate(12.7607) scale(1.60856 1.76795)">
<stop offset="0.27" stop-color="white"/>
<stop offset="0.53" stop-color="white" stop-opacity="0.5"/>
<stop offset="0.78" stop-color="white" stop-opacity="0"/>
</radialGradient>
<radialGradient id="paint10_radial_334_3158" cx="0" cy="0" r="1" gradientUnits="userSpaceOnUse" gradientTransform="translate(11.8103 8.2622) rotate(4.72622) scale(1.73394 1.89253)">
<stop offset="0.36" stop-color="#BD3530"/>
<stop offset="0.68" stop-color="#97312E"/>
<stop offset="1" stop-color="#722D2C"/>
</radialGradient>
<linearGradient id="paint11_linear_334_3158" x1="16.4063" y1="22.5181" x2="16.3583" y2="37.2523" gradientUnits="userSpaceOnUse">
<stop stop-color="#FDCF18"/>
<stop offset="0.47" stop-color="#F5AB0C"/>
<stop offset="0.93" stop-color="#ED8700"/>
</linearGradient>
<radialGradient id="paint12_radial_334_3158" cx="0" cy="0" r="1" gradientUnits="userSpaceOnUse" gradientTransform="translate(16.2569 23.134) rotate(0.0914297) scale(13.3071 13.6808)">
<stop offset="0.07" stop-color="#FEFEE2"/>
<stop offset="0.28" stop-color="#FDEE8C"/>
<stop offset="0.49" stop-color="#FCDE36"/>
<stop offset="0.82" stop-color="#F5B820"/>
<stop offset="1" stop-color="#EE910A"/>
</radialGradient>
<linearGradient id="paint13_linear_334_3158" x1="18.6259" y1="21.1795" x2="18.2817" y2="35.965" gradientUnits="userSpaceOnUse">
<stop stop-color="#FDCF18"/>
<stop offset="0.47" stop-color="#F5AB0C"/>
<stop offset="0.93" stop-color="#ED8700"/>
</linearGradient>
<radialGradient id="paint14_radial_334_3158" cx="0" cy="0" r="1" gradientUnits="userSpaceOnUse" gradientTransform="translate(15.9358 31.1702) rotate(1.29898) scale(5.3579 5.50823)">
<stop offset="0.17" stop-color="#FEFEE2"/>
<stop offset="0.33" stop-color="#FDEE8C"/>
<stop offset="0.49" stop-color="#FCDE36"/>
<stop offset="0.75" stop-color="#F5B820"/>
<stop offset="1" stop-color="#EE910A"/>
</radialGradient>
<radialGradient id="paint15_radial_334_3158" cx="0" cy="0" r="1" gradientUnits="userSpaceOnUse" gradientTransform="translate(17.8214 15.3691) rotate(0.0914297) scale(14.1707 13.9973)">
<stop offset="0.74" stop-color="#EFEFEF"/>
<stop offset="0.86" stop-color="#D5D5D5"/>
<stop offset="0.98" stop-color="#BCBCBC"/>
</radialGradient>
<radialGradient id="paint16_radial_334_3158" cx="0" cy="0" r="1" gradientUnits="userSpaceOnUse" gradientTransform="translate(17.8167 17.566) rotate(0.0914297) scale(7.44363 7.35254)">
<stop offset="0.27" stop-color="white"/>
<stop offset="0.53" stop-color="white" stop-opacity="0.5"/>
<stop offset="0.78" stop-color="white" stop-opacity="0"/>
</radialGradient>
<radialGradient id="paint17_radial_334_3158" cx="0" cy="0" r="1" gradientUnits="userSpaceOnUse" gradientTransform="translate(26.8235 27.2657) scale(8.29349 9.19896)">
<stop offset="0.64" stop-color="#EFEFEF"/>
<stop offset="0.81" stop-color="#D5D5D5"/>
<stop offset="0.98" stop-color="#BCBCBC"/>
</radialGradient>
<radialGradient id="paint18_radial_334_3158" cx="0" cy="0" r="1" gradientUnits="userSpaceOnUse" gradientTransform="translate(26.9754 25.9355) scale(7.37044 8.17514)">
<stop offset="0.27" stop-color="white"/>
<stop offset="0.6" stop-color="white" stop-opacity="0.5"/>
<stop offset="0.93" stop-color="white" stop-opacity="0"/>
</radialGradient>
<radialGradient id="paint19_radial_334_3158" cx="0" cy="0" r="1" gradientUnits="userSpaceOnUse" gradientTransform="translate(21.5769 35.7477) scale(2.29495 2.54552)">
<stop offset="0.27" stop-color="white"/>
<stop offset="0.6" stop-color="white" stop-opacity="0.5"/>
<stop offset="0.93" stop-color="white" stop-opacity="0"/>
</radialGradient>
<clipPath id="clip0_334_3158">
<rect width="40" height="40" fill="white" transform="translate(0.125)"/>
</clipPath>
</defs>
</svg>
