<svg width="12" height="14" viewBox="0 0 12 14" fill="none" xmlns="http://www.w3.org/2000/svg">
<g clip-path="url(#clip0_189_9478)">
<path d="M11.1657 9.04674V1.90391C11.1562 1.30624 10.6914 0.825195 10.108 0.825195H2.83174C1.26171 0.849491 0 2.1663 0 3.77952C0 4.32374 0.142299 4.79021 0.36049 5.19837C0.545476 5.53851 0.834818 5.85921 1.11941 6.09732C1.20005 6.16531 1.16211 6.13618 1.40876 6.29168C1.75027 6.50544 2.13922 6.61235 2.13922 6.61235L2.13448 10.8835C2.14396 11.0876 2.16294 11.2819 2.21511 11.4617C2.37638 12.0643 2.7843 12.5259 3.33927 12.7494C3.57169 12.8417 3.83257 12.9049 4.11243 12.9098L9.92295 12.9292C11.0803 12.9292 12.0195 11.9671 12.0195 10.7766C12.0242 10.072 11.6827 9.44036 11.1657 9.04674Z" fill="#FFEEDA"/>
<path d="M11.3074 10.8303C11.2837 11.5931 10.6718 12.2054 9.9224 12.2054L5.92383 12.1908C6.2416 11.8118 6.43607 11.321 6.43607 10.7865C6.43607 9.94592 5.94753 9.36768 5.94753 9.36768H9.92713C10.6908 9.36768 11.3122 10.0042 11.3122 10.7865L11.3074 10.8303Z" fill="#EBC28E"/>
<path d="M1.49888 5.4948C1.03878 5.04776 0.716235 4.46953 0.716235 3.7844V3.71151C0.754182 2.54047 1.69335 1.59781 2.83648 1.5638H10.1127C10.3024 1.57352 10.4542 1.70957 10.4542 1.90879V8.21587C10.6202 8.24506 10.7008 8.26935 10.8621 8.32767C10.9902 8.37626 11.1657 8.47828 11.1657 8.47828V1.90879C11.1562 1.31112 10.6914 0.830078 10.108 0.830078H2.83174C1.26171 0.854373 0 2.17118 0 3.7844C0 4.7222 0.41741 5.52395 1.10044 6.08759C1.14787 6.1265 1.19056 6.17509 1.31389 6.17509C1.52734 6.17509 1.67912 6.00013 1.66964 5.81064C1.66489 5.65029 1.59849 5.59198 1.49888 5.4948Z" fill="#101010"/>
<path d="M9.92266 8.62913H4.21651C3.8323 8.63397 3.52398 8.94986 3.52398 9.34341V10.184C3.53347 10.5728 3.85602 10.9032 4.24023 10.9032H4.66237V10.184H4.24023V9.36287C4.24023 9.36287 4.34458 9.36287 4.47265 9.36287C5.19362 9.36287 5.72489 10.048 5.72489 10.7817C5.72489 11.4328 5.14619 12.2637 4.17856 12.1957C3.32003 12.1374 2.85518 11.3551 2.85518 10.7817V3.65829C2.85518 3.33759 2.59905 3.0752 2.28599 3.0752H1.7168V3.80406H2.13895V10.7865C2.11523 12.2054 3.12555 12.9197 4.17856 12.9197L9.92744 12.9391C11.0848 12.9391 12.024 11.9771 12.024 10.7865C12.024 9.59609 11.0801 8.62913 9.92266 8.62913ZM11.3077 10.8303C11.284 11.5932 10.6721 12.2054 9.92266 12.2054L5.92409 12.1908C6.24191 11.8118 6.43638 11.321 6.43638 10.7865C6.43638 9.94595 5.94779 9.36771 5.94779 9.36771H9.92744C10.6911 9.36771 11.3125 10.0043 11.3125 10.7865L11.3077 10.8303Z" fill="#101010"/>
<path d="M8.38418 3.9354H4.08203V3.20654H8.38418C8.57865 3.20654 8.73995 3.36689 8.73995 3.57097C8.73995 3.77019 8.58343 3.9354 8.38418 3.9354Z" fill="#101010"/>
<path d="M8.38418 7.36562H4.08203V6.63672H8.38418C8.57865 6.63672 8.73995 6.79711 8.73995 7.0012C8.73995 7.20039 8.58343 7.36562 8.38418 7.36562Z" fill="#101010"/>
<path d="M9.14313 5.65074H4.08203V4.92188H9.13835C9.33287 4.92188 9.49412 5.08222 9.49412 5.28631C9.49885 5.48552 9.3376 5.65074 9.14313 5.65074Z" fill="#101010"/>
</g>
<defs>
<clipPath id="clip0_189_9478">
<rect width="12" height="12.9" fill="white" transform="translate(0 0.549805)"/>
</clipPath>
</defs>
</svg>
