<svg width="24" height="24" viewBox="0 0 24 24" fill="none" xmlns="http://www.w3.org/2000/svg">
<path fill-rule="evenodd" clip-rule="evenodd" d="M11.1927 4.11461C10.6031 4.37482 10.1494 5.14609 9.24207 6.68864L4.837 14.1773C3.90725 15.7578 3.44237 16.5481 3.50689 17.1975C3.56315 17.7638 3.858 18.2793 4.31758 18.6149C4.84455 18.9997 5.76143 18.9997 7.59519 18.9997H16.4053C18.2391 18.9997 19.156 18.9997 19.6829 18.6149C20.1425 18.2793 20.4374 17.7638 20.4936 17.1975C20.5581 16.5481 20.0933 15.7578 19.1635 14.1773L14.7584 6.68864C13.8511 5.14609 13.3974 4.37482 12.8078 4.11461C12.2934 3.88758 11.7071 3.88758 11.1927 4.11461ZM12.0003 6.99972C11.448 6.99972 11.0003 7.44743 11.0003 7.99972C11.0003 8.552 11.448 8.99972 12.0003 8.99972H12.0103C12.5625 8.99972 13.0103 8.552 13.0103 7.99972C13.0103 7.44743 12.5625 6.99972 12.0103 6.99972H12.0003ZM13.0003 11.9997C13.0003 11.4474 12.5525 10.9997 12.0003 10.9997C11.448 10.9997 11.0003 11.4474 11.0003 11.9997V15.9997C11.0003 16.552 11.448 16.9997 12.0003 16.9997C12.5525 16.9997 13.0003 16.552 13.0003 15.9997V11.9997Z" fill="#7A2E0E"/>
</svg>
